<svg width="320" height="150" viewBox="0 0 320 150" fill="none" xmlns="http://www.w3.org/2000/svg">
<rect width="320" height="150" fill="#50A5DC"/>
<path d="M123.574 35.6335V114.367H196.427V35.6335H123.574ZM141.46 104.157C137.626 104.157 134.518 101.049 134.518 97.2152C134.518 93.3811 137.626 90.2729 141.46 90.2729C145.294 90.2729 148.403 93.3811 148.403 97.2152C148.403 101.049 145.294 104.157 141.46 104.157ZM141.46 82.1056C137.626 82.1056 134.518 78.9974 134.518 75.1634C134.518 71.3293 137.626 68.2211 141.46 68.2211C145.294 68.2211 148.403 71.3293 148.403 75.1634C148.403 78.9974 145.294 82.1056 141.46 82.1056ZM141.46 59.7271C137.626 59.7271 134.518 56.619 134.518 52.7849C134.518 48.9508 137.626 45.8426 141.46 45.8426C145.294 45.8426 148.403 48.9508 148.403 52.7849C148.403 56.619 145.294 59.7271 141.46 59.7271Z" fill="#C7EBFF"/>
<path d="M141.461 59.7271C145.295 59.7271 148.403 56.619 148.403 52.7849C148.403 48.9508 145.295 45.8427 141.461 45.8427C137.626 45.8427 134.518 48.9508 134.518 52.7849C134.518 56.619 137.626 59.7271 141.461 59.7271Z" fill="#50A5DC"/>
<path d="M141.461 82.1056C145.295 82.1056 148.403 78.9975 148.403 75.1634C148.403 71.3293 145.295 68.2211 141.461 68.2211C137.626 68.2211 134.518 71.3293 134.518 75.1634C134.518 78.9975 137.626 82.1056 141.461 82.1056Z" fill="#50A5DC"/>
<path d="M141.461 104.157C145.295 104.157 148.403 101.049 148.403 97.2152C148.403 93.3811 145.295 90.2729 141.461 90.2729C137.626 90.2729 134.518 93.3811 134.518 97.2152C134.518 101.049 137.626 104.157 141.461 104.157Z" fill="#50A5DC"/>
<path d="M196.426 34H123.574C122.672 34 121.94 34.7313 121.94 35.6335V114.367C121.94 115.269 122.672 116 123.574 116H196.426C197.329 116 198.06 115.269 198.06 114.367V35.6335C198.06 34.7313 197.329 34 196.426 34ZM194.793 112.733H125.207V37.2669H194.793V112.733Z" fill="black"/>
<path d="M141.46 61.3606C146.189 61.3606 150.036 57.5136 150.036 52.7849C150.036 48.0561 146.189 44.2092 141.46 44.2092C136.732 44.2092 132.885 48.0561 132.885 52.7849C132.885 57.5136 136.732 61.3606 141.46 61.3606ZM141.46 47.4761C144.388 47.4761 146.769 49.8577 146.769 52.7849C146.769 55.712 144.388 58.0936 141.46 58.0936C138.533 58.0936 136.152 55.712 136.152 52.7849C136.152 49.8577 138.533 47.4761 141.46 47.4761Z" fill="black"/>
<path d="M155.917 54.4183H185.482C186.385 54.4183 187.116 53.687 187.116 52.7848C187.116 51.8827 186.385 51.1514 185.482 51.1514H155.917C155.015 51.1514 154.283 51.8827 154.283 52.7848C154.283 53.687 155.015 54.4183 155.917 54.4183Z" fill="black"/>
<path d="M185.482 73.5298H179.438C178.536 73.5298 177.805 74.2612 177.805 75.1633C177.805 76.0655 178.536 76.7968 179.438 76.7968H185.482C186.384 76.7968 187.116 76.0655 187.116 75.1633C187.116 74.2612 186.384 73.5298 185.482 73.5298Z" fill="black"/>
<path d="M141.46 83.7391C145.631 83.7391 149.113 80.7467 149.878 76.7968H173.231C174.134 76.7968 174.865 76.0655 174.865 75.1633C174.865 74.2612 174.134 73.5299 173.231 73.5299H149.878C149.113 69.58 145.631 66.5876 141.46 66.5876C136.732 66.5876 132.885 70.4346 132.885 75.1633C132.885 79.8921 136.732 83.7391 141.46 83.7391ZM141.46 69.8546C144.388 69.8546 146.769 72.2362 146.769 75.1633C146.769 78.0905 144.388 80.4721 141.46 80.4721C138.533 80.4721 136.152 78.0905 136.152 75.1633C136.152 72.2362 138.533 69.8546 141.46 69.8546Z" fill="black"/>
<path d="M141.46 105.791C145.631 105.791 149.113 102.799 149.878 98.8486H185.482C186.385 98.8486 187.116 98.1173 187.116 97.2152C187.116 96.313 186.385 95.5817 185.482 95.5817H149.878C149.113 91.6318 145.631 88.6395 141.46 88.6395C136.732 88.6395 132.885 92.4864 132.885 97.2152C132.885 101.944 136.732 105.791 141.46 105.791ZM141.46 91.9064C144.388 91.9064 146.769 94.288 146.769 97.2152C146.769 100.142 144.388 102.524 141.46 102.524C138.533 102.524 136.152 100.142 136.152 97.2152C136.152 94.288 138.533 91.9064 141.46 91.9064Z" fill="black"/>
</svg>
