<svg width="320" height="150" viewBox="0 0 320 150" fill="none" xmlns="http://www.w3.org/2000/svg">
<rect width="320" height="150" fill="#D4FBFF"/>
<path d="M176.401 40.4062H146.161C143.318 40.4062 141.013 42.7111 141.013 45.5543V107.008C141.013 109.851 143.318 112.156 146.161 112.156H176.401C179.244 112.156 181.549 109.851 181.549 107.008V45.5543C181.549 42.7111 179.244 40.4062 176.401 40.4062Z" fill="#E6E7E8"/>
<path d="M173.839 38.4844H143.599C141.11 38.4844 139.092 40.5021 139.092 42.9912V104.446C139.092 106.935 141.11 108.953 143.599 108.953H173.839C176.328 108.953 178.346 106.935 178.346 104.446V42.9912C178.346 40.5021 176.328 38.4844 173.839 38.4844Z" fill="#6DC9F7"/>
<path d="M139.092 45.1654H178.346V99.3988H139.092V45.1654Z" fill="#D4FBFF"/>
<path d="M139.092 97.477H178.346V99.3988H139.092V97.477Z" fill="white"/>
<path d="M146.739 78.3556L148.196 89.1354C148.249 89.5316 148.444 89.8951 148.744 90.1584C149.045 90.4217 149.431 90.567 149.831 90.5672H166.973C167.372 90.5672 167.758 90.4224 168.059 90.1596C168.359 89.8967 168.555 89.5338 168.608 89.138L170.065 78.3582L146.739 78.3556Z" fill="#0089EF"/>
<path d="M171.17 75.0641H145.633C145.202 75.0726 144.792 75.2497 144.49 75.5573C144.188 75.865 144.019 76.2786 144.019 76.7095C144.019 77.1404 144.188 77.554 144.49 77.8617C144.792 78.1694 145.202 78.3464 145.633 78.3549H171.17C171.601 78.3464 172.011 78.1694 172.313 77.8617C172.615 77.554 172.784 77.1404 172.784 76.7095C172.784 76.2786 172.615 75.865 172.313 75.5573C172.011 75.2497 171.601 75.0726 171.17 75.0641Z" fill="#FA759E"/>
<path d="M167.8 67.6027C167.648 67.4499 167.466 67.3287 167.267 67.246C167.067 67.1633 166.853 67.1208 166.637 67.1208C166.421 67.1208 166.207 67.1633 166.007 67.246C165.808 67.3287 165.626 67.4499 165.474 67.6027L157.53 75.5464C157.377 75.6992 157.256 75.8806 157.173 76.0802C157.09 76.2798 157.048 76.4938 157.048 76.7098C157.048 76.9259 157.09 77.1398 157.173 77.3395C157.256 77.5391 157.377 77.7204 157.53 77.8732C157.683 78.026 157.864 78.1472 158.064 78.2299C158.263 78.3126 158.477 78.3551 158.693 78.3551C158.909 78.3551 159.123 78.3126 159.323 78.2299C159.522 78.1472 159.704 78.026 159.857 77.8732L167.8 69.9295C167.953 69.7767 168.074 69.5953 168.157 69.3957C168.24 69.1961 168.282 68.9821 168.282 68.7661C168.282 68.55 168.24 68.3361 168.157 68.1365C168.074 67.9368 167.953 67.7555 167.8 67.6027V67.6027Z" fill="#0089EF"/>
<path d="M164.188 41.166H153.249C152.886 41.166 152.592 41.4603 152.592 41.8233V41.9623C152.592 42.3253 152.886 42.6196 153.249 42.6196H164.188C164.551 42.6196 164.846 42.3253 164.846 41.9623V41.8233C164.846 41.4603 164.551 41.166 164.188 41.166Z" fill="#0089EF"/>
<path d="M167.752 41.0949C167.594 41.0948 167.439 41.1415 167.308 41.2291C167.177 41.3168 167.074 41.4414 167.014 41.5872C166.953 41.7331 166.937 41.8936 166.968 42.0485C166.999 42.2033 167.075 42.3456 167.186 42.4573C167.298 42.569 167.44 42.6451 167.595 42.676C167.75 42.7068 167.911 42.691 168.056 42.6306C168.202 42.5703 168.327 42.4679 168.415 42.3367C168.502 42.2054 168.549 42.051 168.549 41.8931C168.549 41.7883 168.529 41.6846 168.489 41.5877C168.449 41.4909 168.39 41.4029 168.316 41.3287C168.242 41.2546 168.154 41.1958 168.057 41.1557C167.96 41.1156 167.857 41.0949 167.752 41.0949V41.0949Z" fill="#0089EF"/>
<path d="M162.418 102.004H155.019C154.137 102.004 153.423 102.719 153.423 103.601V103.938C153.423 104.82 154.137 105.535 155.019 105.535H162.418C163.3 105.535 164.015 104.82 164.015 103.938V103.601C164.015 102.719 163.3 102.004 162.418 102.004Z" fill="#0089EF"/>
<path d="M139.091 45.1654V56.5967C139.106 57.8884 139.63 59.1222 140.548 60.0304C141.467 60.9385 142.706 61.4479 143.998 61.4479C145.29 61.4479 146.53 60.9385 147.448 60.0304C148.367 59.1222 148.89 57.8884 148.905 56.5967V45.1654H139.091Z" fill="#FFD7E5"/>
<path d="M148.905 45.1654V56.5967C148.92 57.8884 149.443 59.1222 150.362 60.0304C151.28 60.9385 152.52 61.4479 153.812 61.4479C155.104 61.4479 156.343 60.9385 157.262 60.0304C158.181 59.1222 158.704 57.8884 158.719 56.5967V45.1654H148.905Z" fill="#FA759E"/>
<path d="M158.719 45.1654V56.5967C158.719 57.2411 158.846 57.8791 159.092 58.4744C159.339 59.0697 159.7 59.6106 160.156 60.0662C160.611 60.5218 161.152 60.8832 161.748 61.1298C162.343 61.3764 162.981 61.5033 163.625 61.5033C164.927 61.5033 166.175 60.9864 167.095 60.0662C168.015 59.1461 168.532 57.8981 168.532 56.5967V45.1654H158.719Z" fill="#FFD7E5"/>
<path d="M168.532 45.1654V56.5967C168.532 57.898 169.049 59.146 169.97 60.0662C170.89 60.9864 172.138 61.5033 173.439 61.5033C174.74 61.5033 175.988 60.9864 176.908 60.0662C177.829 59.146 178.346 57.898 178.346 56.5967V45.1654H168.532Z" fill="#FA759E"/>
<path d="M156.555 88.464C156.725 88.464 156.888 88.3965 157.008 88.2764C157.128 88.1562 157.195 87.9933 157.195 87.8234V81.1667C157.195 80.9968 157.128 80.8338 157.008 80.7137C156.888 80.5935 156.725 80.526 156.555 80.526C156.385 80.526 156.222 80.5935 156.102 80.7137C155.982 80.8338 155.914 80.9968 155.914 81.1667V87.8234C155.914 87.9933 155.982 88.1562 156.102 88.2764C156.222 88.3965 156.385 88.464 156.555 88.464Z" fill="#3A2C60"/>
<path d="M152.703 88.464C152.721 88.465 152.738 88.465 152.756 88.464C152.926 88.45 153.083 88.3693 153.192 88.2396C153.302 88.11 153.356 87.9421 153.342 87.7728L152.792 81.116C152.786 81.0319 152.763 80.9498 152.725 80.8745C152.686 80.7993 152.634 80.7324 152.569 80.6779C152.505 80.6233 152.43 80.5822 152.35 80.5569C152.269 80.5316 152.184 80.5226 152.1 80.5305C151.931 80.5446 151.774 80.6253 151.664 80.7549C151.555 80.8845 151.501 81.0524 151.515 81.2217L152.065 87.8766C152.078 88.0365 152.151 88.1857 152.269 88.2945C152.387 88.4032 152.542 88.4638 152.703 88.464Z" fill="#3A2C60"/>
<path d="M160.406 88.464C160.575 88.464 160.738 88.3965 160.859 88.2764C160.979 88.1562 161.046 87.9933 161.046 87.8234V81.1667C161.046 80.9968 160.979 80.8338 160.859 80.7137C160.738 80.5935 160.575 80.526 160.406 80.526C160.236 80.526 160.073 80.5935 159.953 80.7137C159.832 80.8338 159.765 80.9968 159.765 81.1667V87.8234C159.765 87.9933 159.832 88.1562 159.953 88.2764C160.073 88.3965 160.236 88.464 160.406 88.464Z" fill="#3A2C60"/>
<path d="M164.204 88.4615C164.222 88.4624 164.239 88.4624 164.257 88.4615C164.418 88.462 164.574 88.4018 164.692 88.2928C164.811 88.1838 164.884 88.034 164.898 87.8734L165.445 81.2192C165.459 81.0498 165.406 80.8818 165.296 80.7521C165.186 80.6224 165.029 80.5417 164.86 80.5276C164.69 80.5136 164.522 80.5675 164.392 80.6773C164.263 80.7872 164.182 80.9441 164.168 81.1135L163.618 87.7702C163.611 87.8541 163.62 87.9385 163.646 88.0187C163.672 88.0988 163.713 88.1731 163.768 88.2373C163.822 88.3015 163.888 88.3543 163.963 88.3928C164.038 88.4313 164.12 88.4546 164.204 88.4615V88.4615Z" fill="#3A2C60"/>
<path d="M168.253 67.1504C167.824 66.7221 167.243 66.4814 166.637 66.4814C166.031 66.4814 165.449 66.7221 165.021 67.1504L157.746 74.4234H145.633C145.033 74.4335 144.461 74.6787 144.041 75.1064C143.62 75.534 143.385 76.1098 143.385 76.7095C143.385 77.3093 143.62 77.885 144.041 78.3126C144.461 78.7403 145.033 78.9855 145.633 78.9956H146.178L147.56 89.2219C147.636 89.771 147.907 90.2743 148.324 90.6392C148.741 91.0041 149.276 91.206 149.831 91.2078H166.972C167.526 91.2061 168.061 91.0041 168.478 90.6392C168.896 90.2743 169.167 89.771 169.243 89.2219L170.625 78.9969H171.171C171.77 78.9868 172.342 78.7416 172.762 78.3139C173.183 77.8863 173.419 77.3106 173.419 76.7108C173.419 76.111 173.183 75.5353 172.762 75.1077C172.342 74.68 171.77 74.4348 171.171 74.4247H164.212L168.253 70.383C168.681 69.9541 168.922 69.3728 168.922 68.7667C168.922 68.1606 168.681 67.5793 168.253 67.1504V67.1504ZM144.628 76.7098C144.628 76.4435 144.734 76.1881 144.923 75.9997C145.111 75.8113 145.366 75.7052 145.633 75.7047H156.651C156.498 76.0174 156.418 76.3611 156.418 76.7095C156.418 77.0579 156.498 77.4016 156.651 77.7143H145.633C145.366 77.7138 145.111 77.6078 144.923 77.4196C144.735 77.2313 144.629 76.9761 144.628 76.7098V76.7098ZM167.973 89.0495C167.94 89.2919 167.82 89.5141 167.636 89.6753C167.452 89.8364 167.216 89.9257 166.972 89.9266H149.831C149.587 89.9258 149.351 89.837 149.167 89.6765C148.983 89.516 148.864 89.2945 148.83 89.0528L147.471 78.9962H169.332L167.973 89.0495ZM171.171 75.7047C171.433 75.7113 171.682 75.8201 171.865 76.0078C172.048 76.1955 172.15 76.4473 172.15 76.7095C172.15 76.9717 172.048 77.2235 171.865 77.4112C171.682 77.5989 171.433 77.7077 171.171 77.7143H160.921L162.931 75.7047H171.171ZM167.347 69.4759L159.404 77.4196C159.212 77.6021 158.958 77.7038 158.693 77.7038C158.429 77.7038 158.174 77.6021 157.983 77.4196C157.794 77.2313 157.689 76.9758 157.689 76.7095C157.689 76.4432 157.794 76.1877 157.983 75.9994L165.926 68.0556C166.115 67.8672 166.37 67.7613 166.637 67.7613C166.903 67.7612 167.159 67.867 167.347 68.0553C167.535 68.2436 167.641 68.4991 167.641 68.7655C167.641 69.0319 167.536 69.2875 167.347 69.4759V69.4759Z" fill="#3A2C60"/>
<path d="M158.772 77.3184C159.152 77.3184 159.459 77.0107 159.459 76.631C159.459 76.2514 159.152 75.9436 158.772 75.9436C158.392 75.9436 158.084 76.2514 158.084 76.631C158.084 77.0107 158.392 77.3184 158.772 77.3184Z" fill="#3A2C60"/>
<path d="M139.091 92.5621C139.261 92.5621 139.424 92.4946 139.544 92.3745C139.664 92.2543 139.732 92.0914 139.732 91.9215V86.7446C139.732 86.5747 139.664 86.4117 139.544 86.2916C139.424 86.1714 139.261 86.1039 139.091 86.1039C138.921 86.1039 138.758 86.1714 138.638 86.2916C138.518 86.4117 138.451 86.5747 138.451 86.7446V91.9215C138.451 92.0914 138.518 92.2543 138.638 92.3745C138.758 92.4946 138.921 92.5621 139.091 92.5621V92.5621Z" fill="#3A2C60"/>
<path d="M173.838 37.8438H143.6C142.235 37.8453 140.927 38.3881 139.961 39.3533C138.996 40.3184 138.453 41.6269 138.452 42.9918V83.6484C138.452 83.8183 138.519 83.9813 138.64 84.1014C138.76 84.2216 138.923 84.2891 139.093 84.2891C139.262 84.2891 139.425 84.2216 139.546 84.1014C139.666 83.9813 139.733 83.8183 139.733 83.6484V60.1375C140.315 60.8404 141.062 61.3886 141.907 61.7333C142.752 62.078 143.669 62.2087 144.577 62.1136C145.485 62.0185 146.355 61.7006 147.11 61.1883C147.865 60.6759 148.482 59.9848 148.906 59.1766C149.376 60.0714 150.081 60.8207 150.946 61.3435C151.811 61.8663 152.802 62.1426 153.813 62.1426C154.823 62.1426 155.814 61.8663 156.679 61.3435C157.544 60.8207 158.249 60.0714 158.719 59.1766C159.188 60.0717 159.894 60.8213 160.758 61.3444C161.623 61.8674 162.615 62.1439 163.626 62.1439C164.636 62.1439 165.628 61.8674 166.493 61.3444C167.358 60.8213 168.063 60.0717 168.533 59.1766C168.956 59.9848 169.573 60.6759 170.328 61.1883C171.084 61.7007 171.954 62.0185 172.861 62.1136C173.769 62.2087 174.686 62.0781 175.531 61.7333C176.376 61.3886 177.123 60.8404 177.705 60.1375V98.7582H139.732V95.0195C139.732 94.8496 139.664 94.6867 139.544 94.5665C139.424 94.4464 139.261 94.3789 139.091 94.3789C138.921 94.3789 138.758 94.4464 138.638 94.5665C138.518 94.6867 138.451 94.8496 138.451 95.0195V104.446C138.452 105.811 138.995 107.12 139.961 108.085C140.926 109.05 142.235 109.593 143.6 109.594H173.838C175.202 109.592 176.511 109.049 177.476 108.084C178.441 107.119 178.984 105.811 178.985 104.446V42.9918C178.984 41.627 178.441 40.3184 177.476 39.3533C176.511 38.3882 175.202 37.8453 173.838 37.8438V37.8438ZM173.838 108.312H143.6C142.575 108.311 141.592 107.904 140.867 107.179C140.142 106.454 139.734 105.471 139.733 104.446V100.039H177.705V104.446C177.704 105.471 177.296 106.454 176.571 107.179C175.846 107.904 174.863 108.312 173.838 108.312V108.312ZM143.6 39.125H173.838C174.863 39.1262 175.845 39.534 176.57 40.2589C177.295 40.9838 177.703 41.9667 177.704 42.9918V44.5248H139.732V42.9918C139.733 41.9664 140.141 40.9834 140.866 40.2584C141.591 39.5335 142.575 39.1258 143.6 39.125V39.125ZM144 60.8627C142.869 60.8615 141.784 60.4117 140.984 59.612C140.185 58.8122 139.735 57.7279 139.733 56.5968V45.8061H148.264V56.5968C148.263 57.7278 147.813 58.8122 147.014 59.6119C146.214 60.4117 145.13 60.8615 143.998 60.8627H144ZM153.813 60.8627C152.682 60.8615 151.597 60.4117 150.798 59.6119C149.998 58.8122 149.548 57.7278 149.547 56.5968V45.8061H158.078V56.5968C158.077 57.7279 157.627 58.8124 156.827 59.6121C156.027 60.4119 154.943 60.8617 153.812 60.8627H153.813ZM163.627 60.8627C162.495 60.8618 161.411 60.4122 160.611 59.6124C159.811 58.8126 159.361 57.728 159.359 56.5968V45.8061H167.892V56.5968C167.891 57.7279 167.441 58.8124 166.641 59.6121C165.841 60.4119 164.756 60.8617 163.625 60.8627H163.627ZM173.44 60.8627C172.309 60.8615 171.225 60.4117 170.425 59.6119C169.625 58.8122 169.176 57.7278 169.174 56.5968V45.8061H177.705V56.5968C177.704 57.7278 177.254 58.8122 176.454 59.6119C175.654 60.4117 174.57 60.8615 173.439 60.8627H173.44Z" fill="#3A2C60"/>
</svg>
