<svg width="320" height="150" viewBox="0 0 320 150" fill="none" xmlns="http://www.w3.org/2000/svg">
<rect width="320" height="150" fill="#ED432A"/>
<path d="M199.633 40.8333V46.3H120.367V40.8333C120.367 37.8142 122.814 35.3667 125.833 35.3667H194.167C197.186 35.3667 199.633 37.8142 199.633 40.8333Z" fill="#26AAF7"/>
<path d="M194.167 35.3667H190.067C193.086 35.3667 195.533 37.8142 195.533 40.8333V46.3H199.633V40.8333C199.633 37.8142 197.186 35.3667 194.167 35.3667Z" fill="#1779BE"/>
<path d="M199.633 46.3V109.167C199.633 112.186 197.186 114.633 194.167 114.633H125.833C122.814 114.633 120.367 112.186 120.367 109.167V46.3H199.633Z" fill="#F4F4F4"/>
<path d="M195.533 46.3V109.167C195.533 112.186 193.086 114.633 190.067 114.633H194.167C197.186 114.633 199.633 112.186 199.633 109.167V46.3H195.533Z" fill="#CED7DB"/>
<path d="M127.2 42.2C127.955 42.2 128.567 41.5882 128.567 40.8334C128.567 40.0786 127.955 39.4667 127.2 39.4667C126.445 39.4667 125.833 40.0786 125.833 40.8334C125.833 41.5882 126.445 42.2 127.2 42.2Z" fill="#FFE800"/>
<path d="M132.667 42.2C133.422 42.2 134.033 41.5882 134.033 40.8334C134.033 40.0786 133.422 39.4667 132.667 39.4667C131.912 39.4667 131.3 40.0786 131.3 40.8334C131.3 41.5882 131.912 42.2 132.667 42.2Z" fill="#E83247"/>
<path d="M138.134 42.2C138.888 42.2 139.5 41.5882 139.5 40.8334C139.5 40.0786 138.888 39.4667 138.134 39.4667C137.379 39.4667 136.767 40.0786 136.767 40.8334C136.767 41.5882 137.379 42.2 138.134 42.2Z" fill="#A6C100"/>
<path d="M191.433 42.2H190.067C189.312 42.2 188.7 41.5882 188.7 40.8334C188.7 40.0786 189.312 39.4667 190.067 39.4667H191.433C192.188 39.4667 192.8 40.0786 192.8 40.8334C192.8 41.5882 192.188 42.2 191.433 42.2Z" fill="#F4F4F4"/>
<path d="M184.6 42.2H176.4C175.645 42.2 175.033 41.5882 175.033 40.8334C175.033 40.0786 175.645 39.4667 176.4 39.4667H184.6C185.355 39.4667 185.967 40.0786 185.967 40.8334C185.967 41.5882 185.355 42.2 184.6 42.2Z" fill="#F4F4F4"/>
<path d="M187.333 51.7667H132.667C131.157 51.7667 129.933 52.9904 129.933 54.5V76.3667C129.933 77.8762 131.157 79.1 132.667 79.1H187.333C188.843 79.1 190.067 77.8762 190.067 76.3667V54.5C190.067 52.9904 188.843 51.7667 187.333 51.7667Z" fill="#627D8B"/>
<path d="M187.333 51.7667H183.233C184.743 51.7667 185.967 52.9904 185.967 54.5V76.3667C185.967 77.8762 184.743 79.1 183.233 79.1H187.333C188.843 79.1 190.067 77.8762 190.067 76.3667V54.5C190.067 52.9904 188.843 51.7667 187.333 51.7667Z" fill="#384750"/>
<path d="M160 73.6333C164.529 73.6333 168.2 69.9621 168.2 65.4333C168.2 60.9046 164.529 57.2333 160 57.2333C155.471 57.2333 151.8 60.9046 151.8 65.4333C151.8 69.9621 155.471 73.6333 160 73.6333Z" fill="#A6C100"/>
<path d="M160 57.2333C159.308 57.2331 158.618 57.325 157.95 57.5067C161.546 58.4592 164.05 61.7132 164.05 65.4333C164.05 69.1535 161.546 72.4075 157.95 73.36C158.618 73.5417 159.308 73.6336 160 73.6333C164.529 73.6333 168.2 69.9621 168.2 65.4333C168.2 60.9046 164.529 57.2333 160 57.2333Z" fill="#92AA00"/>
<path d="M160 90.0333V106.433C160 107.943 158.776 109.167 157.267 109.167H132.667C131.157 109.167 129.933 107.943 129.933 106.433V90.0333C129.933 88.5238 131.157 87.3 132.667 87.3H135.4V102.333C135.4 103.088 136.012 103.7 136.767 103.7H153.167C153.921 103.7 154.533 103.088 154.533 102.333V87.3H157.267C158.776 87.3 160 88.5238 160 90.0333Z" fill="#ED432A"/>
<path d="M157.267 87.3H154.533V87.6827C155.374 88.168 155.894 89.0627 155.9 90.0333V106.433C155.9 107.943 154.676 109.167 153.167 109.167H157.267C158.776 109.167 160 107.943 160 106.433V90.0333C160 88.5238 158.776 87.3 157.267 87.3Z" fill="#C21E11"/>
<path d="M144.967 87.3V100.967C144.967 99.4571 143.743 98.2333 142.233 98.2333H135.4V85.9333C135.4 85.1786 136.012 84.5667 136.767 84.5667H142.233C143.743 84.5667 144.967 85.7904 144.967 87.3Z" fill="#F4F4F4"/>
<path d="M154.533 85.9333V98.2333H147.7C146.19 98.2333 144.967 99.4571 144.967 100.967V87.3C144.967 85.7904 146.19 84.5667 147.7 84.5667H153.167C153.921 84.5667 154.533 85.1786 154.533 85.9333Z" fill="#F4F4F4"/>
<path d="M153.167 84.5667H149.067C149.821 84.5667 150.433 85.1786 150.433 85.9333V98.2333H154.533V85.9333C154.533 85.1786 153.921 84.5667 153.167 84.5667Z" fill="#CED7DB"/>
<path d="M144.967 100.967V103.7H136.767C136.012 103.7 135.4 103.088 135.4 102.333V98.2333H142.233C143.743 98.2333 144.967 99.4571 144.967 100.967Z" fill="#808D93"/>
<path d="M154.533 98.2333V102.333C154.533 103.088 153.921 103.7 153.167 103.7H144.967V100.967C144.967 99.4571 146.19 98.2333 147.7 98.2333H154.533Z" fill="#808D93"/>
<path d="M194.167 34H125.833C122.059 34 119 37.0594 119 40.8333V109.167C119 112.941 122.059 116 125.833 116H194.167C197.941 116 201 112.941 201 109.167V40.8333C201 37.0594 197.941 34 194.167 34ZM125.833 36.7333H194.167C196.431 36.7333 198.267 38.569 198.267 40.8333V44.9333H121.733V40.8333C121.733 38.569 123.569 36.7333 125.833 36.7333ZM194.167 113.267H125.833C123.569 113.267 121.733 111.431 121.733 109.167V47.6667H198.267V109.167C198.267 111.431 196.431 113.267 194.167 113.267Z" fill="black"/>
<path d="M187.333 50.4H132.667C130.402 50.4 128.567 52.2356 128.567 54.5V76.3667C128.567 78.631 130.402 80.4667 132.667 80.4667H187.333C189.598 80.4667 191.433 78.631 191.433 76.3667V54.5C191.433 52.2356 189.598 50.4 187.333 50.4ZM188.7 76.3667C188.7 77.1214 188.088 77.7333 187.333 77.7333H132.667C131.912 77.7333 131.3 77.1214 131.3 76.3667V54.5C131.3 53.7452 131.912 53.1333 132.667 53.1333H187.333C188.088 53.1333 188.7 53.7452 188.7 54.5V76.3667Z" fill="black"/>
<path d="M160 55.8667C154.716 55.8667 150.433 60.1498 150.433 65.4333C150.433 70.7169 154.716 75 160 75C165.284 75 169.567 70.7169 169.567 65.4333C169.567 62.8961 168.559 60.4628 166.765 58.6687C164.971 56.8746 162.537 55.8667 160 55.8667ZM160 72.2667C156.226 72.2667 153.167 69.2073 153.167 65.4333C153.167 61.6594 156.226 58.6 160 58.6C163.774 58.6 166.833 61.6594 166.833 65.4333C166.833 69.2073 163.774 72.2667 160 72.2667Z" fill="black"/>
<path d="M163.485 64.299L159.385 61.5657C158.981 61.2404 158.428 61.1717 157.957 61.3883C157.485 61.605 157.177 62.0697 157.162 62.5881C157.146 63.1065 157.425 63.5892 157.882 63.8344L160.273 65.4334L157.882 67.0324C157.384 67.3666 157.162 67.9861 157.335 68.5601C157.507 69.1341 158.034 69.5287 158.633 69.5334C158.902 69.5364 159.165 69.4552 159.385 69.301L163.485 66.5677C163.863 66.3138 164.089 65.8885 164.089 65.4334C164.089 64.9782 163.863 64.5529 163.485 64.299Z" fill="black"/>
<path d="M157.267 85.9333H155.9C155.9 84.4238 154.676 83.2 153.167 83.2H147.7C146.69 83.2023 145.717 83.577 144.967 84.2523C144.216 83.577 143.243 83.2023 142.233 83.2H136.767C135.257 83.2 134.033 84.4238 134.033 85.9333H132.667C130.402 85.9333 128.567 87.769 128.567 90.0333V106.433C128.567 108.698 130.402 110.533 132.667 110.533H157.267C159.531 110.533 161.367 108.698 161.367 106.433V90.0333C161.367 87.769 159.531 85.9333 157.267 85.9333ZM136.767 99.6H142.233C142.988 99.6 143.6 100.212 143.6 100.967V102.333H136.767V99.6ZM146.333 100.967C146.333 100.212 146.945 99.6 147.7 99.6H153.167V102.333H146.333V100.967ZM147.7 85.9333H153.167V96.8667H147.7C147.234 96.8704 146.772 96.9536 146.333 97.1127V87.3C146.333 86.5452 146.945 85.9333 147.7 85.9333ZM142.233 85.9333C142.988 85.9333 143.6 86.5452 143.6 87.3V97.1127C143.162 96.9536 142.7 96.8704 142.233 96.8667H136.767V85.9333H142.233ZM158.633 106.433C158.633 107.188 158.021 107.8 157.267 107.8H132.667C131.912 107.8 131.3 107.188 131.3 106.433V90.0333C131.3 89.2786 131.912 88.6667 132.667 88.6667H134.033V102.333C134.033 103.843 135.257 105.067 136.767 105.067H153.167C154.676 105.067 155.9 103.843 155.9 102.333V88.6667H157.267C158.021 88.6667 158.633 89.2786 158.633 90.0333V106.433Z" fill="black"/>
<path d="M190.067 88.6667H168.2C167.445 88.6667 166.833 89.2786 166.833 90.0333C166.833 90.7881 167.445 91.4 168.2 91.4H190.067C190.821 91.4 191.433 90.7881 191.433 90.0333C191.433 89.2786 190.821 88.6667 190.067 88.6667Z" fill="black"/>
<path d="M180.5 105.067H168.2C167.445 105.067 166.833 105.679 166.833 106.433C166.833 107.188 167.445 107.8 168.2 107.8H180.5C181.255 107.8 181.867 107.188 181.867 106.433C181.867 105.679 181.255 105.067 180.5 105.067Z" fill="black"/>
<path d="M168.2 96.8667H180.5C181.255 96.8667 181.867 96.2548 181.867 95.5C181.867 94.7452 181.255 94.1333 180.5 94.1333H168.2C167.445 94.1333 166.833 94.7452 166.833 95.5C166.833 96.2548 167.445 96.8667 168.2 96.8667Z" fill="black"/>
<path d="M168.2 102.333H170.933C171.688 102.333 172.3 101.721 172.3 100.967C172.3 100.212 171.688 99.6 170.933 99.6H168.2C167.445 99.6 166.833 100.212 166.833 100.967C166.833 101.721 167.445 102.333 168.2 102.333Z" fill="black"/>
<path d="M190.067 94.1333H185.967C185.212 94.1333 184.6 94.7452 184.6 95.5C184.6 96.2548 185.212 96.8667 185.967 96.8667H190.067C190.822 96.8667 191.433 96.2548 191.433 95.5C191.433 94.7452 190.822 94.1333 190.067 94.1333Z" fill="black"/>
<path d="M190.067 99.6H176.4C175.645 99.6 175.033 100.212 175.033 100.967C175.033 101.721 175.645 102.333 176.4 102.333H190.067C190.821 102.333 191.433 101.721 191.433 100.967C191.433 100.212 190.821 99.6 190.067 99.6Z" fill="black"/>
</svg>
