<svg width="320" height="150" viewBox="0 0 320 150" fill="none" xmlns="http://www.w3.org/2000/svg">
<rect width="320" height="150" fill="#FF6B81"/>
<path d="M181.611 38.5684V103.432C181.611 107.501 178.316 110.799 174.253 110.799H137.792C133.73 110.799 130.436 107.501 130.436 103.432V38.5684C130.436 34.4988 133.73 31.2012 137.792 31.2012H174.253C178.316 31.2012 181.611 34.4988 181.611 38.5684Z" fill="#56788B"/>
<path d="M181.611 38.5684V103.432C181.611 107.501 178.316 110.799 174.253 110.799H171.05C175.113 110.799 178.408 107.501 178.408 103.432V38.5684C178.408 34.4988 175.113 31.2012 171.05 31.2012H174.253C178.316 31.2012 181.611 34.4988 181.611 38.5684Z" fill="#415E6F"/>
<path d="M176.813 38.3698V103.63C176.813 105.068 175.648 106.234 174.213 106.234H137.834C136.397 106.234 135.234 105.068 135.234 103.63V38.3698C135.234 36.9316 136.397 35.7656 137.834 35.7656H141.631L142.571 38.6853C142.964 39.9041 144.096 40.7305 145.375 40.7305H166.671C167.949 40.7305 169.083 39.9041 169.476 38.6853L170.416 35.7656H174.213C175.648 35.7656 176.813 36.9316 176.813 38.3698V38.3698Z" fill="#D9F0F4"/>
<path d="M176.812 38.3698V103.63C176.812 105.068 175.648 106.234 174.213 106.234H171.01C172.445 106.234 173.609 105.068 173.609 103.63V38.3698C173.609 36.9316 172.445 35.7656 171.01 35.7656H174.213C175.648 35.7656 176.812 36.9316 176.812 38.3698V38.3698Z" fill="#BAE1E5"/>
<path d="M141.349 49.3309V61.4419C141.349 62.8064 140.244 63.9131 138.881 63.9131H122.899L116.245 68.9756V49.3309C116.245 47.9663 117.35 46.8596 118.713 46.8596H138.881C140.244 46.8596 141.349 47.9663 141.349 49.3309V49.3309Z" fill="#4DD4F7"/>
<path d="M141.349 49.3309V61.4419C141.349 62.8064 140.244 63.9131 138.881 63.9131H135.678C137.041 63.9131 138.146 62.8064 138.146 61.4419V49.3309C138.146 47.9663 137.041 46.8596 135.678 46.8596H138.881C140.244 46.8596 141.349 47.9663 141.349 49.3309V49.3309Z" fill="#1E90FF"/>
<path d="M195.756 52.513V87.2445C195.756 88.5978 194.659 89.6949 193.306 89.6949H176.268L171.374 95.8593L166.481 89.6949H149.444C148.09 89.6949 146.993 88.5978 146.993 87.2445V52.513C146.993 51.1597 148.09 50.0626 149.444 50.0626H193.306C194.659 50.0626 195.756 51.1597 195.756 52.513V52.513Z" fill="#FF6B81"/>
<path d="M195.756 52.513V87.2445C195.756 88.5978 194.659 89.6949 193.305 89.6949H190.102C191.456 89.6949 192.553 88.5978 192.553 87.2445V52.513C192.553 51.1597 191.456 50.0626 190.102 50.0626H193.305C194.659 50.0626 195.756 51.1597 195.756 52.513V52.513Z" fill="#ED2061"/>
<path d="M178.224 65.8857C176.604 64.2659 173.976 64.2678 172.353 65.89L171.374 66.8691L170.395 65.89C168.773 64.2678 166.145 64.2659 164.525 65.8857C162.905 67.5055 162.907 70.1337 164.529 71.7561L171.374 78.6012L178.219 71.7561C179.842 70.1339 179.844 67.5055 178.224 65.8857Z" fill="#D9F0F4"/>
<path d="M129.235 68.7088V93.0152C129.235 93.6786 129.773 94.2164 130.436 94.2164C131.1 94.2164 131.637 93.6786 131.637 93.0152V68.7088C131.637 68.0454 131.1 67.5076 130.436 67.5076C129.773 67.5076 129.235 68.0454 129.235 68.7088V68.7088Z" fill="black"/>
<path d="M181.61 95.5511C180.947 95.5511 180.409 96.089 180.409 96.7523V103.432C180.409 106.832 177.648 109.598 174.254 109.598H137.792C134.398 109.598 131.637 106.832 131.637 103.432V98.6859C131.637 98.0225 131.1 97.4847 130.436 97.4847C129.773 97.4847 129.235 98.0225 129.235 98.6859V103.432C129.235 108.156 133.074 112 137.792 112H174.254C178.972 112 182.811 108.156 182.811 103.432V96.7522C182.811 96.089 182.274 95.5511 181.61 95.5511V95.5511Z" fill="black"/>
<path d="M130.436 43.2566C131.1 43.2566 131.637 42.7188 131.637 42.0554V38.5684C131.637 35.1684 134.398 32.4023 137.792 32.4023H174.254C177.648 32.4023 180.409 35.1684 180.409 38.5684V45.2235C180.409 45.8869 180.947 46.4247 181.61 46.4247C182.274 46.4247 182.811 45.8869 182.811 45.2235V38.5684C182.811 33.8438 178.973 30 174.254 30H137.792C133.074 30 129.235 33.8438 129.235 38.5684V42.0554C129.235 42.719 129.773 43.2566 130.436 43.2566V43.2566Z" fill="black"/>
<path d="M176.813 46.4247C177.476 46.4247 178.014 45.8869 178.014 45.2235V38.369C178.014 36.2711 176.309 34.5645 174.213 34.5645H170.416C169.894 34.5645 169.432 34.9009 169.273 35.3974L168.332 38.3172C168.099 39.0421 167.431 39.5293 166.671 39.5293H145.375C144.615 39.5293 143.948 39.0421 143.714 38.3172L142.774 35.3974C142.614 34.9009 142.152 34.5645 141.631 34.5645H137.833C135.738 34.5645 134.033 36.2712 134.033 38.369V42.0554C134.033 42.7188 134.57 43.2566 135.234 43.2566C135.897 43.2566 136.435 42.7188 136.435 42.0554V38.369C136.435 37.5957 137.062 36.9668 137.833 36.9668H140.755L141.428 39.0538C141.982 40.7752 143.569 41.9316 145.375 41.9316H166.671C168.478 41.9316 170.064 40.7752 170.619 39.0538L171.291 36.9668H174.213C174.984 36.9668 175.611 37.5959 175.611 38.369V45.2233C175.612 45.8869 176.149 46.4247 176.813 46.4247Z" fill="black"/>
<path d="M136.435 103.631V68.7259C136.435 68.0626 135.897 67.5248 135.234 67.5248C134.57 67.5248 134.033 68.0626 134.033 68.7259V103.631C134.033 105.729 135.738 107.435 137.833 107.435H174.213C176.309 107.435 178.014 105.729 178.014 103.631V96.7595C178.014 96.0962 177.476 95.5584 176.813 95.5584C176.149 95.5584 175.611 96.0962 175.611 96.7595V103.631C175.611 104.404 174.984 105.033 174.213 105.033H137.833C137.062 105.033 136.435 104.404 136.435 103.631Z" fill="black"/>
<path d="M162.528 37.2048C163.192 37.2048 163.729 36.667 163.729 36.0036C163.729 35.3402 163.192 34.8024 162.528 34.8024H149.519C148.855 34.8024 148.317 35.3402 148.317 36.0036C148.317 36.667 148.855 37.2048 149.519 37.2048H162.528Z" fill="black"/>
<path d="M162.528 101.866C163.192 101.866 163.729 101.328 163.729 100.665C163.729 100.001 163.192 99.4634 162.528 99.4634H149.519C148.855 99.4634 148.317 100.001 148.317 100.665C148.317 101.328 148.855 101.866 149.519 101.866H162.528Z" fill="black"/>
<path d="M142.55 61.4417V49.3312C142.55 47.3063 140.905 45.659 138.882 45.659H126.83C126.167 45.659 125.629 46.1968 125.629 46.8601C125.629 47.5235 126.167 48.0613 126.83 48.0613H138.882C139.58 48.0613 140.148 48.631 140.148 49.3312V61.4417C140.148 62.1419 139.58 62.7116 138.882 62.7116H122.9C122.637 62.7116 122.382 62.7978 122.172 62.9568L117.446 66.5531V49.3312C117.446 48.631 118.014 48.0613 118.712 48.0613H121.31C121.973 48.0613 122.511 47.5235 122.511 46.8601C122.511 46.1968 121.973 45.659 121.31 45.659H118.712C116.689 45.659 115.043 47.3063 115.043 49.3312V68.9763C115.043 69.4327 115.302 69.8498 115.711 70.0525C115.88 70.1363 116.063 70.1774 116.244 70.1774C116.502 70.1774 116.759 70.0943 116.972 69.9322L123.305 65.1141H138.882C140.905 65.1139 142.55 63.4666 142.55 61.4417V61.4417Z" fill="black"/>
<path d="M136.395 52.5731C136.395 51.9097 135.857 51.3719 135.194 51.3719H122.4C121.737 51.3719 121.199 51.9097 121.199 52.5731C121.199 53.2364 121.737 53.7742 122.4 53.7742H135.194C135.857 53.7742 136.395 53.2364 136.395 52.5731Z" fill="black"/>
<path d="M122.4 56.8172C121.737 56.8172 121.199 57.355 121.199 58.0184C121.199 58.6817 121.737 59.2195 122.4 59.2195H133.594C134.258 59.2195 134.796 58.6817 134.796 58.0184C134.796 57.355 134.258 56.8172 133.594 56.8172H122.4Z" fill="black"/>
<path d="M193.306 48.8621H163.459C162.795 48.8621 162.258 49.3999 162.258 50.0632C162.258 50.7266 162.795 51.2644 163.459 51.2644H193.306C193.994 51.2644 194.554 51.8246 194.554 52.5133V77.6588C194.554 78.3222 195.092 78.86 195.756 78.86C196.419 78.86 196.957 78.3222 196.957 77.6588V52.5133C196.957 50.5 195.319 48.8621 193.306 48.8621V48.8621Z" fill="black"/>
<path d="M195.756 82.0181C195.092 82.0181 194.554 82.5559 194.554 83.2193V87.2445C194.554 87.9332 193.994 88.4934 193.306 88.4934H176.268C175.901 88.4934 175.555 88.6607 175.327 88.9477L171.374 93.9272L167.422 88.9477C167.194 88.6607 166.847 88.4934 166.481 88.4934H149.443C148.755 88.4934 148.194 87.9332 148.194 87.2445V52.5133C148.194 51.8246 148.755 51.2644 149.443 51.2644H157.842C158.506 51.2644 159.043 50.7266 159.043 50.0632C159.043 49.3999 158.506 48.8621 157.842 48.8621H149.443C147.43 48.8621 145.792 50.5 145.792 52.5133V87.2445C145.792 89.2578 147.43 90.8957 149.443 90.8957H165.901L170.434 96.6061C170.662 96.8931 171.008 97.0605 171.375 97.0605C171.741 97.0605 172.087 96.8931 172.315 96.6061L176.848 90.8957H193.306C195.319 90.8957 196.957 89.2578 196.957 87.2445V83.2193C196.957 82.5559 196.419 82.0181 195.756 82.0181V82.0181Z" fill="black"/>
<path d="M175.288 63.4711C173.859 63.472 172.515 64.0295 171.504 65.0408L171.374 65.1705L171.244 65.0406C169.156 62.953 165.761 62.9507 163.675 65.0364C161.59 67.122 161.592 70.5175 163.679 72.6054L170.524 79.4505C170.759 79.685 171.067 79.8024 171.374 79.8024C171.681 79.8024 171.989 79.6851 172.223 79.4505L179.068 72.6054C181.156 70.5175 181.158 67.1221 179.073 65.0364H179.073C178.063 64.0268 176.721 63.4711 175.292 63.4711H175.288ZM177.37 70.9066L171.374 76.9024L165.378 70.9066C164.227 69.7554 164.225 67.8839 165.374 66.7351C165.948 66.1614 166.701 65.8747 167.456 65.8747C168.212 65.8747 168.969 66.163 169.546 66.7394L170.525 67.7186C170.75 67.9439 171.055 68.0704 171.374 68.0704C171.693 68.0704 171.998 67.9439 172.224 67.7186L173.203 66.7394C174.354 65.588 176.225 65.5861 177.374 66.7351C178.523 67.884 178.521 69.7554 177.37 70.9066Z" fill="black"/>
<path d="M154.313 78.3275H159.461C160.125 78.3275 160.662 77.7897 160.662 77.1263C160.662 76.4629 160.125 75.9251 159.461 75.9251H154.313C153.65 75.9251 153.112 76.4629 153.112 77.1263C153.112 77.7897 153.65 78.3275 154.313 78.3275Z" fill="black"/>
<path d="M154.313 83.9329H162.659C163.323 83.9329 163.86 83.3951 163.86 82.7318C163.86 82.0684 163.323 81.5306 162.659 81.5306H154.313C153.65 81.5306 153.112 82.0684 153.112 82.7318C153.112 83.3951 153.65 83.9329 154.313 83.9329Z" fill="black"/>
<path d="M188.435 61.5092H183.288C182.624 61.5092 182.086 62.047 182.086 62.7103C182.086 63.3737 182.624 63.9115 183.288 63.9115H188.436C189.099 63.9115 189.637 63.3737 189.637 62.7103C189.637 62.047 189.099 61.5092 188.435 61.5092V61.5092Z" fill="black"/>
<path d="M188.435 55.9037H180.089C179.426 55.9037 178.888 56.4415 178.888 57.1049C178.888 57.7682 179.426 58.306 180.089 58.306H188.435C189.099 58.306 189.636 57.7682 189.636 57.1049C189.636 56.4415 189.099 55.9037 188.435 55.9037Z" fill="black"/>
</svg>
