<svg width="320" height="150" viewBox="0 0 320 150" fill="none" xmlns="http://www.w3.org/2000/svg">
<rect width="320" height="150" fill="#96B4EB"/>
<path d="M169.629 86.9144H159.717C148.463 86.9144 139.339 77.7911 139.339 66.5368V65.8373C139.339 54.5831 148.463 45.4597 159.717 45.4597H169.629C180.883 45.4597 190.006 54.5831 190.006 65.8373V66.5368C190.006 77.7911 180.883 86.9144 169.629 86.9144Z" fill="#E8C2D8"/>
<path d="M182.7 110.763C182.7 99.0749 173.225 89.5997 161.537 89.5997C149.849 89.5997 140.374 99.0749 140.374 110.763V116.485H182.701V110.763H182.7Z" fill="#A1E8C3"/>
<path d="M182.571 108.406C181.559 99.2821 174.748 91.9082 165.906 90.0524V96.7275C164.53 96.2804 163.062 96.0356 161.537 96.0356C153.735 96.0356 147.41 102.36 147.41 110.163V116.517H175.664V110.163C175.664 109.567 175.623 108.982 175.551 108.406H182.571Z" fill="#96B4EB"/>
<path d="M163.02 96.9512C167.106 98.7891 169.98 103.151 169.98 108.241V109.466C169.98 111.372 168.434 112.918 166.528 112.918H147.41V116.406H175.664V111.001C175.664 103.699 170.125 97.6925 163.02 96.9512V96.9512Z" fill="#8286EA"/>
<path d="M194.237 74.4479C194.334 73.5198 194.384 72.5778 194.384 71.624C194.384 70.0939 194.256 68.5939 194.01 67.1339C193.782 65.7845 192.219 65.1118 191.09 65.8845C188.724 67.5032 185.863 68.4507 182.78 68.4507C176.968 68.4507 171.942 65.085 169.543 60.197C167.734 60.9889 165.737 61.4314 163.637 61.4314C155.496 61.4314 148.896 54.8319 148.896 46.6909C148.896 46.314 148.915 45.9416 148.943 45.572C137.303 48.5218 128.69 59.0665 128.69 71.624C128.69 72.5778 128.74 73.5197 128.837 74.4479C125.917 75.2937 123.781 77.986 123.781 81.1788C123.781 85.0495 126.919 88.1874 130.79 88.1874C131.893 88.1874 132.936 87.9319 133.864 87.478C138.753 94.1591 146.652 98.4991 155.565 98.4991H167.509C176.422 98.4991 184.321 94.1589 189.21 87.478C190.138 87.9319 191.181 88.1874 192.284 88.1874C196.155 88.1874 199.293 85.0495 199.293 81.1788C199.293 77.9858 197.157 75.2937 194.237 74.4479Z" fill="#A1E8C3"/>
<path d="M190.34 66.0116C189.408 61.2447 187.836 57.1708 185.39 53.057C180.56 48.4175 174.735 44.7333 167.509 44.7333H164.063C176.096 44.7333 185.851 54.4879 185.851 66.5211V68.3714C185.851 68.513 185.848 68.6539 185.845 68.7948C187.657 68.4094 189.284 67.6011 190.779 66.5435C190.564 66.4503 190.391 66.2738 190.34 66.0116V66.0116Z" fill="#D392D8"/>
<path d="M191.594 66.5216C191.347 66.6467 191.033 66.6535 190.779 66.5434C189.284 67.6009 187.657 68.4093 185.845 68.7946C185.62 80.6322 175.954 90.1591 164.063 90.1591H150.478C138.962 90.1591 129.535 81.2256 128.745 69.9111C128.71 70.4723 128.69 71.038 128.69 71.6081V71.6083C128.69 86.4508 140.722 98.4833 155.565 98.4833H167.509C182.352 98.4833 194.384 86.451 194.384 71.6083V71.6081C194.384 69.5005 194.141 67.4499 193.682 65.4821C192.966 65.7764 192.285 66.1701 191.594 66.5216V66.5216Z" fill="#85ADC2"/>
<path d="M164.537 85.7209C164.537 84.0831 163.225 82.7518 161.594 82.7212C159.913 82.6897 158.537 84.1178 158.537 85.7995V86.7991C158.537 87.5375 159.135 88.1361 159.874 88.1361H163.202C163.941 88.1361 164.54 87.5363 164.539 86.7971L164.537 85.7209Z" fill="#D789B9"/>
<path d="M171.827 110.022L169.357 109.642L168.949 112.194L166.553 110.728L164.193 113.545L163.715 108.808L161.492 106.381L163.681 105.801L163.202 102.033L166.484 104.716L169.716 102.997L169.323 106.636L171.827 110.022Z" fill="#A1E8C3"/>
<path d="M129.914 32.4178L131.316 36.3607C131.376 36.5296 131.495 36.6634 131.645 36.7309L135.148 38.3093C135.643 38.5324 135.643 39.3209 135.148 39.5438L131.645 41.1222C131.495 41.1897 131.376 41.3235 131.316 41.4923L129.914 45.4353C129.716 45.9923 129.015 45.9923 128.817 45.4353L127.415 41.4923C127.355 41.3235 127.236 41.1897 127.086 41.1222L123.583 39.5438C123.088 39.3207 123.088 38.5322 123.583 38.3093L127.086 36.7309C127.236 36.6634 127.355 36.5296 127.415 36.3607L128.817 32.4178C129.015 31.8607 129.716 31.8607 129.914 32.4178V32.4178Z" fill="#CCF3E2"/>
<path d="M196.314 39.0502L197.354 41.975C197.399 42.1002 197.487 42.1994 197.598 42.2495L200.197 43.4204C200.564 43.5859 200.564 44.1707 200.197 44.3362L197.598 45.507C197.487 45.5572 197.399 45.6563 197.354 45.7816L196.314 48.7064C196.167 49.1196 195.647 49.1196 195.5 48.7064L194.46 45.7816C194.416 45.6563 194.327 45.5572 194.216 45.507L191.618 44.3362C191.25 44.1707 191.25 43.5859 191.618 43.4204L194.216 42.2495C194.327 42.1994 194.416 42.1002 194.46 41.975L195.5 39.0502C195.647 38.6371 196.167 38.6371 196.314 39.0502V39.0502Z" fill="#CCF3E2"/>
<path d="M197.856 106.542C199.547 106.542 200.918 105.171 200.918 103.48C200.918 101.788 199.547 100.418 197.856 100.418C196.165 100.418 194.794 101.788 194.794 103.48C194.794 105.171 196.165 106.542 197.856 106.542Z" fill="#A1E8C3"/>
<path d="M121.642 53.3249C121.642 54.0543 121.05 54.6457 120.321 54.6457C119.591 54.6457 119 54.0543 119 53.3249C119 52.5954 119.591 52.004 120.321 52.004C121.05 52.004 121.642 52.5953 121.642 53.3249V53.3249Z" fill="#A1E8C3"/>
<path d="M148.624 83.6095H142.225C141.282 83.6095 140.518 82.8453 140.518 81.9024C140.518 80.9595 141.282 80.1952 142.225 80.1952H148.624C149.567 80.1952 150.331 80.9595 150.331 81.9024C150.331 82.8453 149.566 83.6095 148.624 83.6095Z" fill="#3C122C"/>
<path d="M180.731 83.6095H174.332C173.389 83.6095 172.625 82.8453 172.625 81.9024C172.625 80.9595 173.389 80.1952 174.332 80.1952H180.731C181.674 80.1952 182.438 80.9595 182.438 81.9024C182.438 82.8453 181.674 83.6095 180.731 83.6095Z" fill="#3C122C"/>
<path d="M147.933 74.8653C147.776 74.8653 147.617 74.8292 147.468 74.753C147.464 74.7506 146.566 74.3094 145.503 74.3094C144.44 74.3094 143.543 74.7506 143.534 74.755C143.029 75.0065 142.414 74.8042 142.161 74.301C141.907 73.7976 142.105 73.1847 142.607 72.9283C142.741 72.86 143.959 72.2608 145.503 72.2608C147.047 72.2608 148.266 72.86 148.4 72.9283C148.903 73.1855 149.103 73.8025 148.846 74.3064C148.665 74.6612 148.306 74.8653 147.933 74.8653Z" fill="#3C122C"/>
<path d="M180.001 74.8653C179.844 74.8653 179.685 74.8292 179.536 74.753C179.531 74.7506 178.634 74.3094 177.571 74.3094C176.508 74.3094 175.611 74.7506 175.602 74.755C175.097 75.0065 174.482 74.8042 174.228 74.301C173.974 73.7976 174.173 73.1847 174.675 72.9283C174.809 72.86 176.027 72.2608 177.571 72.2608C179.115 72.2608 180.333 72.86 180.467 72.9283C180.971 73.1855 181.171 73.8025 180.914 74.3064C180.733 74.6612 180.373 74.8653 180.001 74.8653V74.8653Z" fill="#3C122C"/>
<path d="M163.202 89.1603H159.874C158.572 89.1603 157.512 88.1011 157.512 86.7991V85.7995C157.512 84.6997 157.966 83.6242 158.756 82.8485C159.533 82.0862 160.546 81.681 161.613 81.6972C163.79 81.7379 165.561 83.542 165.561 85.7194L165.563 86.7956C165.564 87.4269 165.319 88.0208 164.873 88.4676C164.427 88.9144 163.833 89.1603 163.202 89.1603V89.1603ZM161.54 83.745C161.041 83.745 160.563 83.945 160.191 84.3105C159.791 84.7036 159.561 85.2462 159.561 85.7997V86.7993C159.561 86.9717 159.701 87.1121 159.874 87.1121H163.202C163.309 87.1121 163.381 87.0621 163.423 87.0203C163.465 86.9784 163.515 86.9062 163.515 86.799L163.513 85.7227C163.513 85.7222 163.513 85.7216 163.513 85.7212C163.513 84.6519 162.644 83.7656 161.575 83.7456C161.563 83.745 161.552 83.745 161.54 83.745V83.745ZM165.561 85.7209H165.563H165.561Z" fill="#3C122C"/>
<path d="M148.786 88.6363C148.415 88.6363 148.058 88.4349 147.876 88.0834C147.615 87.5813 147.811 86.9631 148.313 86.7025C150.088 85.7817 150.557 84.7233 150.576 84.6787C150.576 84.6787 150.982 83.8117 151.896 84.1829C152.744 84.5275 152.481 85.4312 152.481 85.4312C152.411 85.6125 151.729 87.2382 149.257 88.5208C149.106 88.5992 148.944 88.6363 148.786 88.6363V88.6363Z" fill="#3C122C"/>
<path d="M174.288 88.6363C174.13 88.6363 173.968 88.5992 173.818 88.521C171.346 87.2383 170.663 85.6125 170.593 85.4313C170.593 85.4313 170.379 84.6142 171.119 84.2689C172.009 83.8536 172.498 84.6788 172.498 84.6788C172.518 84.7235 172.986 85.7818 174.761 86.7027C175.263 86.9631 175.459 87.5814 175.199 88.0836C175.016 88.4348 174.659 88.6363 174.288 88.6363V88.6363Z" fill="#3C122C"/>
<path d="M164.193 114.569C164.093 114.569 163.991 114.554 163.892 114.524C163.499 114.403 163.216 114.057 163.174 113.648L162.731 109.249L160.737 107.073C160.495 106.809 160.409 106.437 160.509 106.093C160.61 105.749 160.884 105.483 161.23 105.391L162.552 105.041L162.186 102.162C162.133 101.746 162.339 101.34 162.706 101.137C163.072 100.934 163.526 100.975 163.85 101.24L166.605 103.492L169.235 102.093C169.57 101.915 169.976 101.936 170.29 102.149C170.605 102.361 170.775 102.73 170.735 103.107L170.384 106.349L172.65 109.413C172.897 109.747 172.918 110.196 172.704 110.551C172.489 110.907 172.082 111.097 171.671 111.034L170.208 110.81L169.961 112.356C169.907 112.694 169.688 112.982 169.378 113.125C169.067 113.268 168.706 113.246 168.415 113.068L166.772 112.063L164.978 114.203C164.781 114.439 164.491 114.569 164.193 114.569V114.569ZM163.391 106.938L164.471 108.116C164.62 108.279 164.712 108.485 164.734 108.705L164.968 111.025L165.768 110.071C166.094 109.682 166.655 109.59 167.088 109.855L168.179 110.522L168.345 109.481C168.434 108.925 168.955 108.544 169.512 108.63L169.525 108.632L168.499 107.245C168.346 107.039 168.276 106.782 168.304 106.526L168.49 104.809L166.965 105.62C166.601 105.814 166.155 105.77 165.836 105.509L164.542 104.451L164.697 105.672C164.761 106.182 164.439 106.66 163.943 106.792L163.391 106.938Z" fill="#3C122C"/>
<path d="M196.04 73.3172C196.073 72.7568 196.091 72.1926 196.091 71.6241C196.091 70.2675 195.995 68.9029 195.805 67.5683C195.612 66.2129 194.756 65.0618 193.516 64.4889C192.919 64.213 192.278 64.0945 191.645 64.1273C190.769 52.7463 181.231 43.7527 169.629 43.7527H159.717C156.407 43.7527 153.265 44.4865 150.444 45.7977C150.274 45.3417 149.976 44.9357 149.579 44.6394C148.939 44.1636 148.103 44.0158 147.342 44.2441C141.577 45.9733 136.393 49.5836 132.747 54.41C128.976 59.4004 126.983 65.353 126.983 71.624C126.983 72.1926 127.001 72.7571 127.034 73.3177C124.104 74.7232 122.074 77.7173 122.074 81.1787C122.074 85.9845 125.984 89.8943 130.79 89.8943C131.662 89.8943 132.503 89.7623 133.298 89.5223C135.925 92.7837 139.251 95.4584 143.049 97.3157C140.294 101.092 138.666 105.741 138.666 110.763V116.484C138.666 117.427 139.431 118.192 140.374 118.192C141.317 118.192 142.081 117.427 142.081 116.484V110.763C142.081 106.195 143.664 101.991 146.31 98.6673C147.906 99.215 149.565 99.6254 151.273 99.8838C148.271 102.654 146.386 106.618 146.386 111.016V117.132C146.386 117.698 146.844 118.156 147.41 118.156C147.976 118.156 148.434 117.698 148.434 117.132V111.016C148.434 106.51 150.723 102.531 154.197 100.173C154.651 100.194 155.106 100.206 155.565 100.206H167.509C167.968 100.206 168.423 100.194 168.877 100.173C172.351 102.531 174.64 106.51 174.64 111.016V117.132C174.64 117.698 175.098 118.156 175.664 118.156C176.23 118.156 176.688 117.698 176.688 117.132V111.016C176.688 110.832 176.684 110.649 176.677 110.466L177.548 109.025L178.309 110.033C178.618 110.443 179.182 110.56 179.629 110.309L180.955 109.562C180.98 109.959 180.993 110.359 180.993 110.763V116.484C180.993 117.427 181.758 118.191 182.7 118.191C183.643 118.191 184.408 117.427 184.408 116.484V110.763C184.408 105.741 182.779 101.093 180.024 97.3161C183.821 95.4591 187.148 92.7846 189.775 89.5236C190.57 89.7638 191.412 89.894 192.284 89.894C197.09 89.894 201 85.9842 201 81.1783C201 77.7172 198.971 74.7222 196.04 73.3172V73.3172ZM187.516 60.4837H176.873C176.099 60.4837 175.47 59.8541 175.47 59.0804C175.47 58.3067 176.099 57.6771 176.873 57.6771H186.419C186.857 58.5748 187.225 59.5128 187.516 60.4837V60.4837ZM179.95 50.287H174.562C173.997 50.287 173.538 50.7455 173.538 51.3112C173.538 51.8768 173.997 52.3354 174.562 52.3354H182.511C183.546 53.3227 184.466 54.428 185.253 55.6283H176.873C174.969 55.6283 173.421 57.1767 173.421 59.0802C173.421 60.9837 174.969 62.5321 176.873 62.5321H188.006C188.181 63.5038 188.278 64.5017 188.295 65.5188C186.578 66.3223 184.699 66.7435 182.78 66.7435C178.075 66.7435 173.718 64.1911 171.41 60.0825C171.167 59.6487 170.819 59.3088 170.416 59.0785C170.416 59.0696 170.417 59.0608 170.417 59.0519V50.8932C170.417 49.2902 169.113 47.986 167.51 47.986C165.907 47.986 164.603 49.2902 164.603 50.8932V59.0521C164.603 59.2852 164.681 59.4995 164.813 59.6718C164.423 59.7068 164.031 59.7245 163.636 59.7245C161.98 59.7245 160.396 59.4107 158.938 58.8445C158.995 58.847 159.053 58.8489 159.111 58.8489C161.309 58.8489 163.098 57.0604 163.098 54.8622V47.1669H169.628C173.442 47.1669 176.991 48.3168 179.95 50.287V50.287ZM168.369 58.8464C168.309 58.8641 168.25 58.8819 168.191 58.9039C167.668 59.0992 167.135 59.2585 166.595 59.3844C166.631 59.28 166.652 59.1686 166.652 59.0521V50.8932C166.652 50.4198 167.037 50.0346 167.51 50.0346C167.984 50.0346 168.369 50.4198 168.369 50.8932V58.8464ZM161.05 47.1669V54.8622C161.05 55.931 160.18 56.8005 159.111 56.8005C158.043 56.8005 157.173 55.931 157.173 54.8622V47.3414C158.005 47.2275 158.854 47.1669 159.717 47.1669H161.05ZM155.826 57.1175C153.348 55.2556 151.553 52.531 150.888 49.3919C152.213 48.6776 153.633 48.1177 155.125 47.7387V54.862C155.125 55.6987 155.384 56.4756 155.826 57.1175ZM130.79 86.4803C127.867 86.4803 125.488 84.1021 125.488 81.1788C125.488 79.4989 126.275 78.0003 127.498 77.0288C128.15 80.4253 129.404 83.6104 131.147 86.467C131.029 86.4747 130.91 86.4803 130.79 86.4803V86.4803ZM180.694 107.358L179.404 108.085L178.272 106.584C178.068 106.313 177.742 106.16 177.402 106.178C177.063 106.196 176.754 106.38 176.578 106.671L176.218 107.267C175.483 104.389 173.92 101.839 171.801 99.8841C173.509 99.6259 175.168 99.2155 176.763 98.668C178.736 101.146 180.118 104.114 180.694 107.358ZM167.509 96.792H155.565C141.687 96.792 130.397 85.5017 130.397 71.6241C130.397 60.9788 137.264 51.3724 147.231 47.8697C147.837 56.3909 154.964 63.1388 163.637 63.1388C165.39 63.1388 167.113 62.8636 168.766 62.3198C171.751 67.171 177.062 70.158 182.78 70.158C185.896 70.158 188.929 69.2815 191.553 67.6231C191.765 67.4895 191.959 67.5304 192.084 67.5885C192.194 67.6391 192.384 67.7666 192.425 68.0501C192.592 69.2258 192.677 70.4284 192.677 71.6243C192.677 85.5017 181.387 96.792 167.509 96.792V96.792ZM192.284 86.4803C192.164 86.4803 192.045 86.4751 191.927 86.4672C193.669 83.6116 194.923 80.4275 195.576 77.0322C196.798 78.0039 197.586 79.4996 197.586 81.1788C197.586 84.1019 195.208 86.4803 192.284 86.4803V86.4803Z" fill="#3C122C"/>
<path d="M157.262 113.954C156.696 113.954 156.237 113.496 156.237 112.93V111.049C156.237 110.483 156.696 110.025 157.262 110.025C157.827 110.025 158.286 110.483 158.286 111.049V112.93C158.286 113.496 157.827 113.954 157.262 113.954V113.954Z" fill="#3C122C"/>
<path d="M152.441 111.83C151.875 111.83 151.417 111.371 151.417 110.806V108.925C151.417 108.359 151.875 107.9 152.441 107.9C153.007 107.9 153.465 108.359 153.465 108.925V110.806C153.465 111.371 153.007 111.83 152.441 111.83V111.83Z" fill="#3C122C"/>
<path d="M141.731 59.1179C141.343 59.1179 140.953 58.9866 140.633 58.7174C139.912 58.1107 139.818 57.0338 140.425 56.3121C140.648 56.0463 141.349 55.2615 141.898 54.8263C142.638 54.2412 143.711 54.3661 144.296 55.1053C144.882 55.8445 144.757 56.918 144.018 57.5033C143.793 57.6811 143.307 58.19 143.038 58.5094C142.701 58.9109 142.218 59.1179 141.731 59.1179V59.1179Z" fill="white"/>
<path d="M136.083 68.6744C135.926 68.6744 135.767 68.6527 135.608 68.6069C134.703 68.3451 134.181 67.3987 134.442 66.493C135.247 63.7083 136.488 61.5362 137.387 60.2046C137.914 59.4233 138.976 59.2172 139.757 59.745C140.538 60.2726 140.744 61.3336 140.217 62.1151C139.455 63.2435 138.404 65.0835 137.722 67.441C137.506 68.1882 136.824 68.6744 136.083 68.6744V68.6744Z" fill="white"/>
</svg>
