<svg width="320" height="150" viewBox="0 0 320 150" fill="none" xmlns="http://www.w3.org/2000/svg">
<rect width="320" height="150" fill="#46D093"/>
<g clip-path="url(#clip0)">
<path d="M123.473 90.5559L128.447 99.4722C132.33 106.198 139.917 109.909 148.928 110.442L142.83 100.771C134.433 100.119 127.363 96.6606 123.473 90.5559Z" fill="#FFAF46"/>
<path d="M191.921 51.2263C198.68 64.2264 189.464 83.061 170.927 93.7332C162.467 98.8099 152.69 101.259 142.836 100.771L148.934 110.445C158.582 110.766 168.118 108.293 176.394 103.324L170.932 93.863L176.394 103.324C184.815 98.65 191.71 91.6509 196.258 83.1621L190.54 74.097L196.258 83.1621C200.337 75.0637 200.925 66.6187 197.032 59.8748L191.921 51.2263ZM158.425 99.5075L163.204 107.786L158.425 99.5075ZM181.555 85.826L186.853 94.1277L181.555 85.826Z" fill="#FFAF46"/>
<path d="M142.836 100.771L142.504 100.245L142.836 100.771C152.691 101.261 162.471 98.8112 170.932 93.7331C189.475 83.061 198.686 64.2264 191.927 51.2262L191.413 50.366L191.921 51.2262C191.785 50.9694 191.661 50.71 191.512 50.4589C183.976 37.4423 162.538 35.7123 143.624 46.596C124.71 57.4798 115.504 76.8553 123.041 89.8704C123.178 90.1052 123.328 90.3293 123.473 90.5532L123.143 89.9633L123.473 90.5559C127.363 96.6606 134.433 100.119 142.836 100.771ZM146.355 51.2986C162.357 42.082 180.875 42.9368 186.794 53.1623C192.713 63.3878 184.198 79.814 168.201 89.0306C152.204 98.2471 133.677 97.3924 127.757 87.1668C121.838 76.9413 130.357 60.5153 146.355 51.2986Z" fill="#FFAF46"/>
<path d="M168.201 89.0308C184.202 79.8141 192.72 63.3895 186.802 53.1625C180.885 42.9355 162.361 42.0821 146.355 51.2988C130.348 60.5155 121.84 76.9399 127.757 87.1669C133.675 97.3938 152.194 98.2459 168.201 89.0308ZM145.904 64.1677L148.18 62.8528C148.266 62.8024 146.218 59.2549 146.218 59.2549C146.218 59.2549 148.266 62.8049 148.177 62.8528L152.996 60.0715L150.948 56.5215L152.996 60.0715L155.361 58.706C157.982 57.215 161.317 58.1325 162.808 60.7541C164.285 63.3512 163.4 66.6541 160.822 68.1657L163.187 66.8002C165.809 65.3091 169.143 66.2267 170.634 68.8483C172.112 71.4454 171.227 74.7483 168.649 76.2599L163.919 78.9907L165.967 82.5407L163.919 78.9907L159.19 81.7215L161.238 85.2716L159.19 81.7215L156.825 83.087L153.275 85.1351L156.825 83.087L151.363 73.6274L145.901 64.1677L142.351 66.2158L145.904 64.1677Z" fill="#FFAF46"/>
<path d="M160.828 68.1656C163.431 66.6404 164.303 63.2938 162.778 60.6913C161.266 58.1134 157.965 57.2285 155.366 58.706L153.001 60.0714L148.183 62.8527L145.906 64.1676L151.368 73.6273L160.828 68.1656Z" fill="#FFAF46"/>
<path d="M156.827 83.087L159.192 81.7215L163.922 78.9906L168.652 76.2598C171.254 74.7346 172.127 71.388 170.601 68.7854C169.09 66.2075 165.788 65.3227 163.19 66.8001L160.825 68.1656L151.365 73.6273L156.827 83.087Z" fill="#FFAF46"/>
<path d="M145.756 96.7903C144.465 96.7918 143.174 96.7194 141.891 96.5746C141.141 96.4886 140.603 95.81 140.689 95.0618C140.775 94.3122 141.454 93.7741 142.204 93.8603C143.94 94.0569 145.69 94.1088 147.435 94.0186C148.188 93.9804 148.83 94.5621 148.868 95.3158C148.907 96.0695 148.325 96.7112 147.571 96.7495C146.959 96.7767 146.354 96.7903 145.756 96.7903ZM152.919 96.1076C152.166 96.1061 151.555 95.4945 151.557 94.7394C151.558 94.0826 152.027 93.5201 152.671 93.3998C154.408 93.0748 156.123 92.6461 157.809 92.1177C158.529 91.8911 159.296 92.2912 159.523 93.0108C159.75 93.7304 159.349 94.4977 158.629 94.7245C156.839 95.2871 155.017 95.7431 153.174 96.09C153.089 96.1036 153.004 96.1103 152.919 96.1076ZM136.723 95.4181C136.574 95.4181 136.425 95.3936 136.284 95.3457C134.425 94.7299 132.666 93.8479 131.062 92.7241C130.454 92.2776 130.322 91.4243 130.768 90.8152C131.205 90.2184 132.038 90.0793 132.646 90.4998C134.03 91.4666 135.549 92.2271 137.152 92.7569C137.867 92.9972 138.252 93.7714 138.012 94.4855C137.825 95.044 137.3 95.4181 136.712 95.4167L136.723 95.4181ZM163.328 92.8647C162.574 92.8633 161.964 92.2516 161.964 91.4979C161.964 90.9558 162.285 90.4657 162.782 90.2486C164.403 89.5344 165.984 88.7316 167.519 87.8468C168.201 87.4537 168.874 87.044 169.531 86.618C170.159 86.2001 171.007 86.3708 171.425 86.9975C171.843 87.6257 171.672 88.4735 171.046 88.8914C171.033 88.8996 171.02 88.9077 171.007 88.9159C170.314 89.3597 169.605 89.7897 168.883 90.209C167.262 91.1416 165.592 91.9867 163.881 92.7419C163.706 92.821 163.518 92.862 163.328 92.8647ZM128.091 89.0743C127.625 89.0757 127.192 88.8395 126.941 88.4489C126.814 88.2522 126.693 88.0515 126.575 87.8481C125.694 86.3133 125.087 84.6367 124.781 82.8943C124.648 82.1515 125.141 81.4415 125.884 81.3091C126.627 81.1766 127.337 81.6696 127.469 82.4124C127.719 83.8447 128.218 85.2225 128.943 86.4828C129.038 86.6494 129.138 86.8105 129.24 86.9703C129.649 87.6039 129.464 88.449 128.831 88.8573C128.611 88.9993 128.356 89.0744 128.093 89.0744H128.091V89.0743ZM174.697 85.9475C173.943 85.9475 173.331 85.3372 173.33 84.5835C173.33 84.1711 173.516 83.7792 173.838 83.5199C175.216 82.4098 176.528 81.2205 177.769 79.9602C178.319 79.4441 179.182 79.4714 179.7 80.0203C180.187 80.5392 180.194 81.3448 179.716 81.8719C178.401 83.2058 177.012 84.4648 175.554 85.6404C175.311 85.8383 175.009 85.9463 174.697 85.9475ZM126.059 78.5811C125.997 78.5811 125.935 78.577 125.873 78.5688C125.127 78.4665 124.603 77.7768 124.707 77.03V77.0286C124.982 75.1211 125.473 73.2532 126.174 71.4577C126.458 70.7586 127.255 70.424 127.953 70.7081C128.631 70.9839 128.971 71.7472 128.723 72.4354C128.097 74.0357 127.658 75.703 127.412 77.4029C127.318 78.0786 126.74 78.5811 126.059 78.5811ZM182.321 78.162C181.567 78.1662 180.953 77.5571 180.949 76.8034C180.947 76.5017 181.046 76.2094 181.229 75.9691C182.295 74.5764 183.258 73.1058 184.11 71.5725C184.465 70.9075 185.291 70.655 185.957 71.0099C186.622 71.3649 186.875 72.191 186.52 72.8573C186.513 72.8696 186.507 72.8805 186.501 72.8914C185.584 74.5421 184.548 76.1246 183.401 77.6239C183.144 77.9612 182.744 78.1606 182.321 78.162ZM187.519 68.604C187.373 68.604 187.228 68.5808 187.089 68.5343C186.374 68.2968 185.986 67.5226 186.225 66.807C186.775 65.1877 187.126 63.5068 187.268 61.8013C187.336 61.0504 188.001 60.4973 188.752 60.5656C189.488 60.6325 190.037 61.2715 189.991 62.0087C189.831 63.9367 189.436 65.8374 188.815 67.6684C188.632 68.2295 188.109 68.6078 187.519 68.6091L187.519 68.604ZM129.845 68.4142C129.092 68.4128 128.481 67.8011 128.481 67.0474C128.481 66.8016 128.548 66.5599 128.675 66.3483C129.647 64.7317 130.731 63.186 131.919 61.7224C132.38 61.1243 133.236 61.0124 133.834 61.4725C134.432 61.9327 134.544 62.7889 134.084 63.3869C134.07 63.4047 134.055 63.4224 134.04 63.4401C132.933 64.8041 131.923 66.2446 131.018 67.7494C130.772 68.1629 130.326 68.4155 129.845 68.4142ZM136.672 59.924C135.919 59.9225 135.307 59.3109 135.308 58.5572C135.308 58.1872 135.459 57.8334 135.725 57.5769C137.074 56.2783 138.494 55.0563 139.979 53.9162C140.584 53.4669 141.44 53.5939 141.89 54.1988C142.329 54.7901 142.219 55.623 141.643 56.0818C140.236 57.1577 138.893 58.313 137.616 59.5418C137.362 59.7861 137.025 59.9227 136.672 59.924ZM188.172 57.8608C187.553 57.8608 187.013 57.4457 186.853 56.8477C186.576 55.7963 186.159 54.7858 185.616 53.8438C185.339 53.3659 185.029 52.9057 184.69 52.4688C184.214 51.8844 184.302 51.0242 184.887 50.5477C185.471 50.0713 186.331 50.16 186.808 50.7444C186.82 50.7595 186.832 50.7758 186.845 50.7921C188.078 52.3788 188.979 54.1976 189.492 56.1404C189.686 56.8696 189.253 57.6179 188.526 57.8117C188.411 57.8431 188.292 57.8581 188.172 57.8581V57.8608ZM145.317 53.2813C144.563 53.2813 143.951 52.6709 143.95 51.9172C143.95 51.4408 144.199 50.9983 144.605 50.7499C144.96 50.5354 145.317 50.3226 145.679 50.115C146.939 49.39 148.24 48.7114 149.545 48.0969C150.228 47.7761 151.042 48.0695 151.361 48.7509C151.682 49.4337 151.389 50.2475 150.707 50.5682C149.469 51.1499 148.236 51.7971 147.04 52.4799C146.699 52.6766 146.357 52.8758 146.025 53.0806C145.811 53.2116 145.567 53.2813 145.317 53.2813ZM181.685 49.4185C181.435 49.4185 181.191 49.3503 180.978 49.2205C179.518 48.3507 177.946 47.683 176.308 47.2352C175.58 47.04 175.147 46.2903 175.342 45.5625C175.538 44.8348 176.287 44.4019 177.015 44.5971C177.026 44.5998 177.037 44.6026 177.048 44.6067C178.927 45.1215 180.728 45.8875 182.402 46.8856C183.046 47.2761 183.252 48.1158 182.861 48.7617C182.612 49.1699 182.17 49.4198 181.692 49.4185H181.685ZM155.187 48.6525C154.434 48.6539 153.821 48.0435 153.819 47.2898C153.818 46.7041 154.191 46.1825 154.746 45.994C156.52 45.3878 158.329 44.8867 160.162 44.4921C160.903 44.3527 161.617 44.8388 161.756 45.5803C161.892 46.2957 161.441 46.9908 160.734 47.1616C159.006 47.5342 157.301 48.0067 155.628 48.5788C155.486 48.6279 155.338 48.6525 155.187 48.6525ZM165.845 46.3899C165.091 46.42 164.455 45.8329 164.426 45.0777C164.396 44.3241 164.983 43.6877 165.737 43.6591C167.623 43.5034 169.519 43.4938 171.406 43.6304C172.158 43.6741 172.733 44.3199 172.69 45.0736C172.646 45.826 172 46.4008 171.246 46.3571C171.231 46.3556 171.215 46.3544 171.2 46.3529C169.454 46.2274 167.702 46.2368 165.957 46.3803C165.92 46.3886 165.88 46.3899 165.845 46.3899Z" fill="#231F20"/>
<path d="M171.833 68.1165C170.411 65.6259 167.57 64.3056 164.75 64.8245C165.529 61.1474 163.179 57.5359 159.502 56.7562C157.857 56.4081 156.139 56.6811 154.684 57.5236L153.501 58.2063L152.136 55.8414C151.763 55.1861 150.93 54.9566 150.273 55.3294C149.618 55.7021 149.388 56.5351 149.761 57.1919C149.764 57.1973 149.767 57.2028 149.771 57.2069L151.136 59.5718L148.758 60.9373C148.437 60.3583 148.001 59.5965 147.406 58.5655C147.033 57.9102 146.2 57.6807 145.544 58.0535C144.888 58.4262 144.659 59.2592 145.032 59.916C145.034 59.9214 145.037 59.9269 145.041 59.931C145.504 60.7325 146.015 61.6337 146.386 62.3082L141.677 65.0267C141.021 65.3994 140.792 66.2324 141.165 66.8892C141.537 67.5446 142.37 67.7741 143.027 67.4012C143.033 67.3985 143.038 67.3958 143.042 67.3916L145.407 66.0261L154.965 82.5804L152.6 83.9459C151.945 84.3186 151.715 85.1516 152.088 85.8084C152.461 86.4637 153.294 86.6932 153.95 86.3204C153.956 86.3177 153.961 86.315 153.967 86.3108L158.697 83.58L160.062 85.9448C160.443 86.5947 161.28 86.8132 161.93 86.4323C162.574 86.0541 162.796 85.2294 162.427 84.5795L161.061 82.2146L163.426 80.8491L164.792 83.214C165.173 83.8639 166.01 84.0824 166.66 83.7015C167.304 83.3232 167.525 82.4986 167.157 81.8487L165.791 79.4838L169.341 77.4357C172.599 75.5486 173.715 71.3786 171.833 68.1165ZM156.049 59.8886C158.036 58.8058 160.524 59.539 161.606 61.5257C162.651 63.4428 162.008 65.8418 160.145 66.9805L151.863 71.7594L147.766 64.6592L156.049 59.8886ZM169.881 72.5869C169.602 73.6384 168.913 74.534 167.969 75.0747L157.327 81.2191L153.231 74.1188L154.924 73.1413L161.511 69.3454L163.876 67.9799C165.834 66.8466 168.339 67.5156 169.473 69.4737C170.017 70.4159 170.165 71.5355 169.883 72.5868H169.881V72.5869Z" fill="#231F20"/>
<path d="M198.208 59.1799L192.981 50.3347C192.881 50.1504 192.801 49.9565 192.695 49.775C184.792 36.1288 162.477 34.1707 142.948 45.4138C131.38 52.0715 122.806 62.2656 120.009 72.6838C118.185 78.6466 118.854 85.0928 121.86 90.5545C121.986 90.7716 122.133 90.975 122.262 91.1866L127.265 100.155C131.144 106.873 138.52 110.992 148.037 111.761C149.098 111.847 150.17 111.891 151.252 111.889C160.354 111.714 169.254 109.173 177.077 104.516C196.637 93.2116 206.12 72.8845 198.208 59.1799ZM194.542 67.6455C195.226 65.1358 195.544 62.5416 195.485 59.9418L195.85 60.5576C199.154 66.2814 198.998 73.3406 196.079 80.3193L192.096 74.0071C193.119 71.9724 193.938 69.8411 194.542 67.6455ZM124.653 89.8663L124.334 89.2982C124.293 89.2409 124.248 89.189 124.198 89.1398C121.586 84.3117 121.029 78.6343 122.654 73.3897C125.26 63.6584 133.357 54.0842 144.306 47.7799C151.721 43.3778 160.149 40.9733 168.771 40.8C178.182 40.8 186.184 44.2381 190.187 50.9137C190.201 50.9642 190.217 51.0133 190.238 51.0612L190.617 51.703C192.989 56.4273 193.449 61.8849 191.902 66.9397C189.296 76.6709 181.198 86.2453 170.249 92.5495C152.362 102.845 132.162 101.578 124.653 89.8663ZM129.639 98.807L129.15 97.9372C133.069 100.256 137.466 101.651 142.004 102.017L146.271 108.784C138.656 107.723 132.775 104.239 129.639 98.807ZM149.692 109.086L145.354 102.203C145.522 102.203 145.687 102.218 145.856 102.218C149.793 102.189 153.711 101.669 157.519 100.671L161.658 107.841C157.747 108.814 153.718 109.233 149.692 109.086ZM164.37 107.075L160.226 99.8966C163.734 98.7933 167.124 97.3501 170.352 95.5887L174.505 102.784C171.28 104.554 167.884 105.992 164.37 107.075ZM176.881 101.433L172.726 94.2342C175.763 92.3977 178.621 90.2814 181.266 87.9151L185.662 94.8036C182.965 97.3038 180.024 99.5253 176.881 101.433ZM187.648 92.8306L183.288 86.0035C186.099 83.2358 188.557 80.1294 190.602 76.7555L194.69 83.2372C192.795 86.7435 190.425 89.9715 187.648 92.8306Z" fill="#231F20"/>
</g>
<defs>
<clipPath id="clip0">
<rect width="82" height="82" fill="white" transform="translate(119 34)"/>
</clipPath>
</defs>
</svg>
