<svg width="320" height="150" viewBox="0 0 320 150" fill="none" xmlns="http://www.w3.org/2000/svg">
<rect width="320" height="150" fill="#2FDF84"/>
<path d="M135.06 44.7555C130.597 61.2625 118.98 70.2861 116.83 78.2417C114.679 86.1973 114.736 104.138 151.329 114.032C187.923 123.926 199.37 102.905 201.733 94.1529C212.811 53.1833 142.963 15.519 135.06 44.7555V44.7555Z" fill="#EFEFEF"/>
<path d="M122.323 44.9087C120.278 44.9087 118.614 43.2449 118.614 41.2004C118.614 39.1559 120.278 37.492 122.323 37.492C124.367 37.492 126.031 39.1559 126.031 41.2004C126.031 43.2449 124.367 44.9087 122.323 44.9087V44.9087ZM122.323 39.9643C121.64 39.9643 121.086 40.518 121.086 41.2004C121.086 41.8827 121.64 42.4365 122.323 42.4365C123.005 42.4365 123.559 41.8827 123.559 41.2004C123.559 40.518 123.005 39.9643 122.323 39.9643Z" fill="#EFEFEF"/>
<path d="M134.16 71.7917V93.4236C134.16 96.1554 136.372 98.368 139.104 98.368H179.896C182.628 98.368 184.84 96.1554 184.84 93.4236V71.7917H134.16Z" fill="#F3F3F1"/>
<path d="M141.851 52.6319H179.404L185.975 59.3836L176.585 79.7572L143.43 80.4444L131.148 63.8904L141.851 52.6319Z" fill="#F3F3F1"/>
<path d="M165.681 88.4792H153.319C151.955 88.4792 150.847 87.3716 150.847 86.0069C150.847 84.6423 151.955 83.5347 153.319 83.5347H165.681C167.045 83.5347 168.153 84.6423 168.153 86.0069C168.153 87.3716 167.045 88.4792 165.681 88.4792Z" fill="#2FDF84"/>
<path d="M143.431 76.118C149.916 76.118 155.174 70.8605 155.174 64.375C155.174 57.8895 149.916 52.6319 143.431 52.6319C136.945 52.6319 131.688 57.8895 131.688 64.375C131.688 70.8605 136.945 76.118 143.431 76.118Z" fill="#2FDF84"/>
<path d="M175.569 76.118C182.055 76.118 187.313 70.8605 187.313 64.375C187.313 57.8895 182.055 52.6319 175.569 52.6319C169.084 52.6319 163.826 57.8895 163.826 64.375C163.826 70.8605 169.084 76.118 175.569 76.118Z" fill="#2FDF84"/>
<path d="M144.049 98.368H139.104C136.385 98.368 134.16 96.143 134.16 93.4236V71.7917H139.104V93.4236C139.104 96.143 141.329 98.368 144.049 98.368Z" fill="#D5DBE1"/>
<path d="M158.264 88.4792H153.319C151.96 88.4792 150.847 87.3667 150.847 86.0069C150.847 84.6472 151.96 83.5347 153.319 83.5347H158.264C156.904 83.5347 155.792 84.6472 155.792 86.0069C155.792 87.3667 156.904 88.4792 158.264 88.4792Z" fill="#00B871"/>
<path d="M145.903 75.8461C145.112 76.0192 144.271 76.118 143.431 76.118C136.953 76.118 131.688 70.8522 131.688 64.375C131.688 57.8978 136.953 52.6319 143.431 52.6319C144.271 52.6319 145.112 52.7308 145.903 52.9039C140.612 54.0164 136.632 58.7383 136.632 64.375C136.632 70.0117 140.612 74.7336 145.903 75.8461Z" fill="#00B871"/>
<path d="M178.042 75.8461C177.251 76.0192 176.41 76.118 175.569 76.118C169.092 76.118 163.826 70.8522 163.826 64.375C163.826 57.8978 169.092 52.6319 175.569 52.6319C176.41 52.6319 177.251 52.7308 178.042 52.9039C172.751 54.0164 168.771 58.7383 168.771 64.375C168.771 70.0117 172.751 74.7336 178.042 75.8461Z" fill="#00B871"/>
<path d="M143.431 77.9722C135.932 77.9722 129.833 71.8732 129.833 64.375C129.833 56.8768 135.932 50.7778 143.431 50.7778C150.929 50.7778 157.028 56.8768 157.028 64.375C157.028 71.8732 150.929 77.9722 143.431 77.9722ZM143.431 54.4861C137.977 54.4861 133.542 58.9213 133.542 64.375C133.542 69.8287 137.977 74.2639 143.431 74.2639C148.884 74.2639 153.32 69.8287 153.32 64.375C153.32 58.9213 148.884 54.4861 143.431 54.4861Z" fill="black"/>
<path d="M175.569 77.9722C168.071 77.9722 161.972 71.8732 161.972 64.375C161.972 56.8768 168.071 50.7778 175.569 50.7778C183.068 50.7778 189.167 56.8768 189.167 64.375C189.167 71.8732 183.068 77.9722 175.569 77.9722ZM175.569 54.4861C170.116 54.4861 165.68 58.9213 165.68 64.375C165.68 69.8287 170.116 74.2639 175.569 74.2639C181.023 74.2639 185.458 69.8287 185.458 64.375C185.458 58.9213 181.023 54.4861 175.569 54.4861Z" fill="black"/>
<path d="M165.68 90.3333H153.319C150.934 90.3333 148.993 88.3926 148.993 86.0069C148.993 83.6212 150.934 81.6806 153.319 81.6806H165.68C168.066 81.6806 170.007 83.6212 170.007 86.0069C170.007 88.3926 168.066 90.3333 165.68 90.3333ZM153.319 85.3889C152.978 85.3889 152.701 85.6658 152.701 86.0069C152.701 86.3481 152.978 86.625 153.319 86.625H165.68C166.022 86.625 166.298 86.3481 166.298 86.0069C166.298 85.6658 166.022 85.3889 165.68 85.3889H153.319Z" fill="black"/>
<path d="M166.946 85.1867L181.775 72.8295L184.148 75.6775L169.32 88.0347L166.946 85.1867Z" fill="black"/>
<path d="M134.812 75.6874L137.186 72.8394L152.014 85.1965L149.641 88.0445L134.812 75.6874Z" fill="black"/>
<path d="M179.896 100.222H139.104C135.354 100.222 132.305 97.174 132.305 93.4236V71.7917H136.014V93.4236C136.014 95.127 137.401 96.5139 139.104 96.5139H179.896C181.599 96.5139 182.986 95.127 182.986 93.4236V71.7917H186.694V93.4236C186.694 97.174 183.646 100.222 179.896 100.222Z" fill="black"/>
<path d="M143.43 50.7778H175.569V54.4861H143.43V50.7778Z" fill="black"/>
<path d="M141.576 55.1042H145.285V62.5208H141.576V55.1042Z" fill="black"/>
<path d="M144.11 66.9094L145.964 63.698L152.387 67.4064L150.533 70.6178L144.11 66.9094Z" fill="black"/>
<path d="M134.473 67.4066L140.896 63.6982L142.75 66.9096L136.327 70.618L134.473 67.4066Z" fill="black"/>
<path d="M173.715 55.1042H177.424V62.5208H173.715V55.1042Z" fill="black"/>
<path d="M176.249 66.9094L178.103 63.698L184.526 67.4064L182.671 70.6178L176.249 66.9094Z" fill="black"/>
<path d="M166.612 67.409L173.035 63.7007L174.889 66.9121L168.466 70.6204L166.612 67.409Z" fill="black"/>
</svg>
