<svg width="320" height="150" viewBox="0 0 320 150" fill="none" xmlns="http://www.w3.org/2000/svg">
<rect width="320" height="150" fill="#FFCE56"/>
<g clip-path="url(#clip0)">
<path d="M184.363 75.8533C184.363 92.6704 170.731 106.303 153.914 106.303C137.097 106.303 123.464 92.6704 123.464 75.8533C123.464 59.0371 137.097 45.4042 153.914 45.4042C170.731 45.4042 184.363 59.0371 184.363 75.8533Z" fill="#C1DBDC"/>
<path d="M186.009 39.6987C185.663 39.6987 185.316 39.5663 185.052 39.3022C184.523 38.7741 184.523 37.9169 185.052 37.3887L187.52 34.92C188.049 34.3912 188.906 34.3912 189.435 34.92C189.963 35.4482 189.963 36.3054 189.435 36.8335L186.965 39.3022C186.701 39.5663 186.355 39.6987 186.009 39.6987Z" fill="#4C241D"/>
<path d="M180.249 45.4585C179.903 45.4585 179.557 45.3261 179.293 45.062C178.764 44.5331 178.764 43.6766 179.293 43.1485L181.761 40.6791C182.289 40.1509 183.147 40.1509 183.675 40.6791C184.204 41.2079 184.204 42.0644 183.675 42.5933L181.206 45.062C180.942 45.3261 180.595 45.4585 180.249 45.4585V45.4585Z" fill="#4C241D"/>
<path d="M182.719 39.6987C182.372 39.6987 182.025 39.5663 181.761 39.3022L179.293 36.8335C178.764 36.3054 178.764 35.4482 179.293 34.92C179.821 34.3912 180.678 34.3912 181.206 34.92L183.675 37.3887C184.204 37.9169 184.204 38.7741 183.675 39.3022C183.411 39.5663 183.064 39.6987 182.719 39.6987V39.6987Z" fill="#4C241D"/>
<path d="M188.477 45.4585C188.131 45.4585 187.785 45.3261 187.52 45.062L185.052 42.5933C184.523 42.0644 184.523 41.2079 185.052 40.6791C185.581 40.1509 186.437 40.1509 186.965 40.6791L189.435 43.1485C189.963 43.6766 189.963 44.5331 189.435 45.062C189.17 45.3261 188.824 45.4585 188.477 45.4585V45.4585Z" fill="#4C241D"/>
<path d="M131.988 109.01H128.498C127.75 109.01 127.145 108.404 127.145 107.657C127.145 106.909 127.75 106.303 128.498 106.303H131.988C132.737 106.303 133.341 106.909 133.341 107.657C133.341 108.404 132.737 109.01 131.988 109.01Z" fill="#4C241D"/>
<path d="M123.844 109.01H120.354C119.606 109.01 119 108.404 119 107.657C119 106.909 119.606 106.303 120.354 106.303H123.844C124.592 106.303 125.197 106.909 125.197 107.657C125.197 108.404 124.592 109.01 123.844 109.01Z" fill="#4C241D"/>
<path d="M126.171 106.683C125.423 106.683 124.818 106.076 124.818 105.329V101.838C124.818 101.091 125.423 100.485 126.171 100.485C126.919 100.485 127.524 101.091 127.524 101.838V105.329C127.524 106.076 126.919 106.683 126.171 106.683Z" fill="#4C241D"/>
<path d="M126.171 114.828C125.423 114.828 124.818 114.222 124.818 113.475V109.984C124.818 109.237 125.423 108.63 126.171 108.63C126.919 108.63 127.524 109.237 127.524 109.984V113.475C127.524 114.222 126.919 114.828 126.171 114.828Z" fill="#4C241D"/>
<path d="M196.282 114.652C193.979 114.652 192.107 112.779 192.107 110.478C192.107 108.176 193.979 106.303 196.282 106.303C198.584 106.303 200.457 108.176 200.457 110.478C200.457 112.779 198.584 114.652 196.282 114.652V114.652ZM196.282 109.01C195.472 109.01 194.813 109.668 194.813 110.478C194.813 111.287 195.472 111.945 196.282 111.945C197.092 111.945 197.75 111.287 197.75 110.478C197.75 109.668 197.092 109.01 196.282 109.01Z" fill="#4C241D"/>
<path d="M145.465 49.1004C145.119 49.1004 144.772 48.9679 144.508 48.7039C143.98 48.175 143.98 47.3185 144.508 46.7896L148.498 42.8001C149.026 42.2712 149.883 42.2712 150.412 42.8001C150.94 43.3282 150.94 44.1854 150.412 44.7135L146.421 48.7039C146.157 48.9679 145.811 49.1004 145.465 49.1004Z" fill="#4C241D"/>
<path d="M187.158 56.3182L175.236 63.214L186.382 73.0819L192.131 61.2913L187.158 56.3182Z" fill="#FFCE56"/>
<path d="M186.381 74.4355C186.054 74.4355 185.734 74.317 185.484 74.0956L174.338 64.2277C174.013 63.9397 173.845 63.5122 173.889 63.0793C173.932 62.6457 174.181 62.2608 174.557 62.0432L186.48 55.1466C187.008 54.8408 187.681 54.9283 188.114 55.3619L193.087 60.3349C193.496 60.743 193.601 61.3656 193.347 61.8852L187.598 73.6758C187.413 74.0561 187.061 74.3279 186.646 74.4099C186.557 74.427 186.469 74.4355 186.381 74.4355V74.4355ZM177.539 63.4456L185.945 70.8889L190.492 61.5654L186.936 58.0095L177.539 63.4456Z" fill="#4C241D"/>
<path d="M197.463 50.3579L187.158 56.3183L192.131 61.2913L197.463 50.3579Z" fill="#6B4F5B"/>
<path d="M192.13 62.6449C191.775 62.6449 191.43 62.5039 191.174 62.2484L186.201 57.2754C185.904 56.978 185.76 56.5591 185.816 56.1417C185.87 55.7251 186.116 55.358 186.48 55.1466L196.785 49.1863C197.302 48.8889 197.95 48.9609 198.386 49.3683C198.822 49.774 198.941 50.4168 198.679 50.9518L193.346 61.8852C193.155 62.2786 192.785 62.5543 192.353 62.6263C192.28 62.6395 192.205 62.6449 192.13 62.6449ZM189.36 56.6079L191.746 58.9937L194.304 53.7489L189.36 56.6079Z" fill="#4C241D"/>
<path d="M139.616 56.3182L151.538 63.214L140.392 73.0819L134.643 61.2913L139.616 56.3182Z" fill="#FFCE56"/>
<path d="M140.393 74.4355C140.305 74.4355 140.216 74.427 140.128 74.4099C139.713 74.3279 139.361 74.0561 139.177 73.6758L133.427 61.8852C133.174 61.3656 133.279 60.743 133.687 60.3349L138.66 55.3619C139.093 54.9283 139.765 54.8408 140.294 55.1466L152.217 62.0432C152.593 62.2616 152.842 62.6464 152.886 63.0793C152.929 63.5114 152.761 63.9397 152.437 64.2277L141.29 74.0956C141.04 74.317 140.72 74.4355 140.393 74.4355ZM136.282 61.5662L140.829 70.8896L149.235 63.4464L139.839 58.0103L136.282 61.5662Z" fill="#4C241D"/>
<path d="M129.312 50.3579L139.616 56.3183L134.643 61.2913L129.312 50.3579Z" fill="#6B4F5B"/>
<path d="M134.644 62.6449C134.57 62.6449 134.494 62.6387 134.42 62.6263C133.99 62.5543 133.619 62.2786 133.427 61.8852L128.095 50.9519C127.834 50.4168 127.953 49.7741 128.388 49.3683C128.824 48.961 129.473 48.8882 129.989 49.1863L140.294 55.1467C140.658 55.3581 140.904 55.7251 140.958 56.1417C141.014 56.5591 140.871 56.978 140.573 57.2754L135.6 62.2484C135.344 62.504 134.999 62.6449 134.644 62.6449ZM132.471 53.7489L135.028 58.9937L137.414 56.6079L132.471 53.7489Z" fill="#4C241D"/>
<path d="M149.454 49.1004C149.108 49.1004 148.762 48.9679 148.498 48.7039L144.508 44.7135C143.98 44.1854 143.98 43.3282 144.508 42.8001C145.037 42.2712 145.893 42.2712 146.421 42.8001L150.411 46.7896C150.94 47.3185 150.94 48.175 150.411 48.7039C150.147 48.9679 149.801 49.1004 149.454 49.1004Z" fill="#4C241D"/>
<path d="M142.583 104.622C139.923 101.556 137.88 97.8695 136.707 93.7026C132.455 78.5938 141.256 62.8989 156.365 58.6468C171.473 54.3939 187.169 63.1954 191.421 78.3042C195.674 93.413 186.872 109.108 171.763 113.36C164.84 115.309 157.793 114.516 151.78 111.632" fill="#FFCE56"/>
<path d="M164.058 115.778C159.638 115.778 155.241 114.794 151.194 112.853C150.52 112.529 150.236 111.721 150.56 111.046C150.882 110.374 151.689 110.088 152.365 110.411C158.296 113.258 165.054 113.844 171.397 112.058C185.762 108.015 194.161 93.0367 190.118 78.6705C186.075 64.302 171.094 55.9102 156.73 59.9485C142.366 63.9923 133.967 78.9702 138.009 93.3364C139.103 97.2191 140.986 100.718 143.605 103.735C144.096 104.299 144.035 105.154 143.471 105.643C142.909 106.134 142.052 106.074 141.562 105.509C138.678 102.189 136.606 98.3403 135.404 94.0705C130.956 78.2663 140.195 61.7915 155.998 57.3443C171.796 52.8994 188.275 62.1346 192.724 77.9372C197.171 93.7414 187.932 110.216 172.13 114.663C169.481 115.409 166.765 115.778 164.058 115.778V115.778Z" fill="#4C241D"/>
<path d="M147.842 110.695C147.576 110.695 147.307 110.616 147.071 110.452C146.238 109.874 145.431 109.25 144.672 108.599C144.105 108.113 144.04 107.258 144.527 106.691C145.013 106.123 145.865 106.06 146.435 106.544C147.124 107.136 147.859 107.703 148.617 108.231C149.23 108.657 149.383 109.501 148.955 110.113C148.692 110.492 148.271 110.695 147.842 110.695Z" fill="#4C241D"/>
<path d="M181.118 88.4408C180.37 88.4408 179.764 87.8344 179.764 87.0872C179.764 85.8915 178.792 84.9197 177.597 84.9197C176.402 84.9197 175.429 85.8915 175.429 87.0872C175.429 87.8344 174.825 88.4408 174.077 88.4408C173.328 88.4408 172.723 87.8344 172.723 87.0872C172.723 84.4001 174.909 82.2133 177.597 82.2133C180.285 82.2133 182.471 84.4001 182.471 87.0872C182.471 87.8344 181.866 88.4408 181.118 88.4408V88.4408Z" fill="#4C241D"/>
<path d="M152.698 88.4408C151.95 88.4408 151.345 87.8344 151.345 87.0872C151.345 85.8915 150.372 84.9197 149.177 84.9197C147.983 84.9197 147.01 85.8915 147.01 87.0872C147.01 87.8344 146.404 88.4408 145.656 88.4408C144.908 88.4408 144.303 87.8344 144.303 87.0872C144.303 84.4001 146.49 82.2133 149.177 82.2133C151.865 82.2133 154.051 84.4001 154.051 87.0872C154.051 87.8344 153.446 88.4408 152.698 88.4408Z" fill="#4C241D"/>
<path d="M126.568 41.3442C126.568 42.3106 125.784 43.0943 124.818 43.0943C123.851 43.0943 123.067 42.3106 123.067 41.3442C123.067 40.3778 123.851 39.5941 124.818 39.5941C125.784 39.5941 126.568 40.3778 126.568 41.3442Z" fill="#4C241D"/>
<path d="M201 65.7036C201 66.67 200.216 67.4537 199.25 67.4537C198.283 67.4537 197.5 66.67 197.5 65.7036C197.5 64.7372 198.283 63.9536 199.25 63.9536C200.216 63.9536 201 64.7372 201 65.7036Z" fill="#4C241D"/>
<path d="M189.389 97.5064C189.389 99.9085 187.442 101.855 185.04 101.855C182.638 101.855 180.691 99.9085 180.691 97.5064C180.691 95.105 182.638 93.1575 185.04 93.1575C187.442 93.1575 189.389 95.105 189.389 97.5064Z" fill="#E66353"/>
<path d="M185.04 103.209C181.896 103.209 179.338 100.651 179.338 97.5064C179.338 94.3624 181.896 91.8047 185.04 91.8047C188.184 91.8047 190.743 94.3624 190.743 97.5064C190.743 100.651 188.184 103.209 185.04 103.209ZM185.04 94.5111C183.388 94.5111 182.044 95.8547 182.044 97.5072C182.044 99.1589 183.388 100.502 185.04 100.502C186.692 100.502 188.036 99.1589 188.036 97.5072C188.036 95.8547 186.692 94.5111 185.04 94.5111V94.5111Z" fill="#4C241D"/>
<path d="M147.437 97.5064C147.437 99.9085 145.489 101.855 143.088 101.855C140.686 101.855 138.739 99.9085 138.739 97.5064C138.739 95.105 140.686 93.1575 143.088 93.1575C145.489 93.1575 147.437 95.105 147.437 97.5064Z" fill="#E66353"/>
<path d="M143.088 103.209C139.943 103.209 137.385 100.651 137.385 97.5064C137.385 94.3624 139.943 91.8047 143.088 91.8047C146.232 91.8047 148.79 94.3624 148.79 97.5064C148.79 100.651 146.232 103.209 143.088 103.209ZM143.088 94.5111C141.435 94.5111 140.092 95.8547 140.092 97.5072C140.092 99.1589 141.436 100.502 143.088 100.502C144.739 100.502 146.083 99.1589 146.083 97.5072C146.083 95.8547 144.739 94.5111 143.088 94.5111Z" fill="#4C241D"/>
<path d="M168.91 97.0882C166.498 97.0882 164.554 96.0273 163.313 94.9424C158.844 98.5162 154.589 96.4617 154.397 96.3665C153.728 96.0327 153.458 95.2197 153.792 94.5514C154.125 93.8862 154.931 93.6144 155.598 93.9412C155.762 94.0186 159.035 95.4984 162.43 92.1036C162.707 91.8248 163.081 91.6846 163.483 91.7102C163.874 91.7381 164.234 91.934 164.469 92.2484C164.569 92.3785 167.095 95.5735 171.268 93.8993C171.956 93.6237 172.75 93.9597 173.028 94.6536C173.305 95.3482 172.967 96.135 172.273 96.413C171.079 96.8908 169.951 97.0882 168.91 97.0882V97.0882Z" fill="#4C241D"/>
<path d="M163.387 93.0599C160.588 95.86 157.794 95.853 156.244 95.541C156.698 98.4658 157.831 103.383 159.826 106.967C161.297 109.608 165.055 109.664 166.66 107.102C168.205 104.634 169.724 100.89 169.765 95.6804C165.741 96.1868 163.387 93.0599 163.387 93.0599V93.0599Z" fill="#E66353"/>
<path d="M163.269 110.34C163.221 110.34 163.174 110.339 163.127 110.338C161.238 110.289 159.563 109.275 158.644 107.625C156.209 103.252 155.168 97.4289 154.906 95.7485C154.839 95.311 154.988 94.8681 155.308 94.5622C155.626 94.2563 156.076 94.1255 156.511 94.2137C157.959 94.5041 160.159 94.3733 162.43 92.1036C162.708 91.8248 163.09 91.6846 163.482 91.7102C163.87 91.7373 164.227 91.9309 164.464 92.2399C164.551 92.3537 166.434 94.7341 169.596 94.3369C169.992 94.2857 170.373 94.4089 170.664 94.6675C170.956 94.9269 171.121 95.2994 171.118 95.6897C171.083 100.221 169.94 104.415 167.808 107.819C166.814 109.405 165.126 110.34 163.269 110.34V110.34ZM157.883 97.0255C158.483 100.035 159.538 103.667 161.01 106.309C161.464 107.126 162.261 107.608 163.196 107.632C164.099 107.64 165.008 107.19 165.513 106.383C167.187 103.712 168.142 100.586 168.363 97.0727C166.042 96.9256 164.327 95.8058 163.325 94.9308C161.35 96.5066 159.411 96.979 157.883 97.0255V97.0255Z" fill="#4C241D"/>
</g>
<defs>
<clipPath id="clip0">
<rect width="82" height="82" fill="white" transform="translate(119 34)"/>
</clipPath>
</defs>
</svg>
