<svg width="320" height="150" viewBox="0 0 320 150" fill="none" xmlns="http://www.w3.org/2000/svg">
<rect width="320" height="150" fill="#ACEBE2"/>
<path d="M205 42.375V54H115V42.375C115 37.1981 119.198 33 124.375 33H195.625C200.802 33 205 37.1981 205 42.375Z" fill="#ACEBE2"/>
<path d="M205 54V99H192.625C189.518 99 187 101.518 187 104.625V117H124.375C119.198 117 115 112.802 115 107.625V54H205Z" fill="#E2E0E0"/>
<path d="M205 99C205 100.44 204.715 101.852 204.173 103.157C203.633 104.464 202.836 105.664 201.818 106.682L194.682 113.818C192.644 115.856 189.882 117 187 117V104.625C187 101.518 189.518 99 192.625 99H205Z" fill="#F79CAF"/>
<path d="M205 42.375V54H197.5V42.375C197.5 37.1981 193.302 33 188.125 33H195.625C200.802 33 205 37.1981 205 42.375Z" fill="#98D7CE"/>
<path d="M197.5 54H205V99H197.5V54Z" fill="#CECCCC"/>
<path d="M205 99C205 100.44 204.715 101.852 204.173 103.157C203.633 104.464 202.836 105.664 201.818 106.682L194.682 113.818C192.644 115.856 189.882 117 187 117V113.994C187.062 113.938 187.122 113.878 187.182 113.818L194.318 106.682C195.336 105.664 196.133 104.464 196.673 103.157C197.215 101.852 197.5 100.44 197.5 99H205Z" fill="#E3889B"/>
<path d="M195.625 30H124.375C117.551 30 112 35.5513 112 42.375V107.625C112 114.449 117.551 120 124.375 120H187C190.703 120 194.185 118.558 196.803 115.939L203.939 108.803C206.558 106.185 208 102.703 208 99V42.375C208 35.5513 202.449 30 195.625 30V30ZM124.375 36H195.625C199.14 36 202 38.8598 202 42.375V51H118V42.375C118 38.8598 120.86 36 124.375 36ZM118 107.625V57H202V96H192.625C187.869 96 184 99.8692 184 104.625V114H124.375C120.86 114 118 111.14 118 107.625ZM199.697 104.561L192.561 111.697C191.815 112.442 190.946 113.02 190 113.41V104.625C190 103.178 191.178 102 192.625 102H201.41C201.02 102.946 200.442 103.815 199.697 104.561V104.561Z" fill="black"/>
<path d="M184 72H136C134.343 72 133 70.6568 133 69C133 67.3432 134.343 66 136 66H184C185.657 66 187 67.3432 187 69C187 70.6568 185.657 72 184 72Z" fill="black"/>
<path d="M178 87H142C140.343 87 139 85.6568 139 84C139 82.3432 140.343 81 142 81H178C179.657 81 181 82.3432 181 84C181 85.6568 179.657 87 178 87Z" fill="black"/>
</svg>
