<svg width="320" height="150" viewBox="0 0 320 150" fill="none" xmlns="http://www.w3.org/2000/svg">
<rect width="320" height="150" fill="#BDDBFF"/>
<path d="M131.3 64.0666C131.3 79.92 160 114.633 160 114.633C160 114.633 188.7 79.92 188.7 64.0666C188.7 48.216 175.851 35.3666 160 35.3666C144.149 35.3666 131.3 48.216 131.3 64.0666ZM160 46.3L177.767 59.9666H172.3V76.3666H147.7V59.9666H142.233L160 46.3Z" fill="#7CB8FF"/>
<path d="M147.7 76.3667H155.9V65.4333H164.1V76.3667H172.3V59.9667H177.767L160 46.3L142.233 59.9667H147.7V76.3667Z" fill="#2488FF"/>
<path d="M155.9 65.4333H164.1V76.3666H155.9V65.4333Z" fill="#BDDBFF"/>
<path d="M160 116C159.592 116 159.206 115.818 158.946 115.504C157.761 114.072 129.933 80.2234 129.933 64.0667C129.933 47.4613 143.395 34 160 34C176.605 34 190.067 47.4613 190.067 64.0667C190.067 80.2234 162.239 114.072 161.054 115.504C160.794 115.818 160.408 116 160 116ZM160 36.7333C144.911 36.7506 132.684 48.978 132.667 64.0667C132.667 77.5584 154.857 106.042 160 112.462C165.143 106.041 187.333 77.5557 187.333 64.0667C187.316 48.978 175.089 36.7506 160 36.7333Z" fill="#231F20"/>
<path d="M178.6 58.8843L160.834 45.2176C160.342 44.8394 159.658 44.8394 159.166 45.2176L141.4 58.8843C140.802 59.345 140.691 60.2033 141.152 60.8011C141.41 61.1366 141.81 61.3332 142.233 61.3334H146.333V76.3667C146.333 77.1214 146.945 77.7334 147.7 77.7334H172.3C173.055 77.7334 173.667 77.1214 173.667 76.3667V61.3334H177.767C178.521 61.333 179.133 60.7208 179.133 59.966C179.133 59.5424 178.936 59.1429 178.6 58.8843ZM157.267 75V66.8H162.733V75H157.267ZM172.3 58.6C171.545 58.6 170.933 59.212 170.933 59.9667V75H165.467V65.4334C165.467 64.6786 164.855 64.0667 164.1 64.0667H155.9C155.145 64.0667 154.533 64.6786 154.533 65.4334V75H149.067V59.9667C149.067 59.212 148.455 58.6 147.7 58.6H146.251L160 48.0248L173.749 58.6H172.3Z" fill="#231F20"/>
</svg>
