<svg width="320" height="150" viewBox="0 0 320 150" fill="none" xmlns="http://www.w3.org/2000/svg">
<rect width="320" height="150" fill="#CCF3E2"/>
<path d="M170.288 41.1522C166.957 40.4848 156.773 46.9212 154.814 56.9851C154.446 58.876 154.371 60.7557 154.52 62.5671C152.976 61.4435 151.241 60.4928 149.328 59.8238C139.721 56.4648 129.081 62.1011 127.976 65.3402C126.871 68.5793 131.806 79.6614 141.412 83.0203C151.019 86.3792 161.445 81.37 162.764 77.504C162.767 77.4966 162.769 77.4887 162.771 77.4812C162.914 77.5299 163.055 77.5693 163.193 77.5968C167.168 78.3933 176.708 71.828 178.667 61.7641C180.626 51.7002 173.619 41.8195 170.288 41.1522V41.1522Z" fill="#CCF3E2"/>
<path d="M170.288 41.1522C169.885 41.0714 169.381 41.0956 168.804 41.2167C170.923 41.9737 174.915 47.8563 173.749 53.8452C172.543 60.0409 166.67 64.0827 164.222 63.5924C161.775 63.1022 157.858 57.0988 159.064 50.903C159.506 48.6339 160.628 46.6661 161.972 45.1013C158.789 47.8841 155.787 51.9868 154.814 56.9851C154.445 58.8773 154.375 60.7573 154.524 62.57C152.979 61.4451 151.242 60.4933 149.328 59.824C147.674 59.2459 145.99 58.9343 144.33 58.831C149.423 60.5837 152.838 65.6389 152.569 68.0966C152.261 70.9175 146.487 75.9561 140.123 75.2127C133.759 74.4691 129.266 67.7678 129.524 65.4043C129.635 64.3842 130.785 62.7809 132.566 61.3472C130.092 62.6231 128.384 64.1449 127.976 65.3405C126.871 68.5796 131.806 79.6617 141.412 83.0207C151.019 86.3796 161.445 81.3703 162.764 77.5043C163.561 75.1682 161.996 70.4264 158.513 66.2979C160.271 68.0209 161.904 69.8647 163.385 71.8319C164.627 73.4824 165.735 75.2112 166.801 76.9655C171.281 75.0684 177.174 69.4323 178.667 61.7642C180.626 51.7002 173.619 41.8195 170.288 41.1522V41.1522Z" fill="#B1B6E1"/>
<path d="M199.265 71.3048C199.265 61.4026 191.238 53.3752 181.336 53.3752C171.433 53.3752 163.406 61.4026 163.406 71.3048C163.406 73.8055 163.919 76.1861 164.843 78.3485C161.708 75.6626 157.636 74.0393 153.184 74.0393C143.282 74.0393 135.255 82.0666 135.255 91.969C135.255 101.871 143.282 109.899 153.184 109.899C157.356 109.899 161.194 108.474 164.24 106.085C167.392 111.229 173.064 114.661 179.539 114.661C189.441 114.661 197.469 106.634 197.469 96.7317C197.469 92.2011 195.787 88.0637 193.016 84.9073C196.842 81.619 199.265 76.7451 199.265 71.3048V71.3048Z" fill="#9781DD"/>
<path d="M162.788 87.8062C162.788 87.8845 162.784 87.9615 162.782 88.0396C164.048 86.5549 165.177 84.9562 166.432 83.4577C166.715 83.1195 167.007 82.7897 167.303 82.4633C167.447 82.6436 167.593 82.8223 167.743 82.9969C169.306 82.1637 170.84 81.2617 172.308 80.2668C167.66 78.4713 164.22 74.2502 163.535 69.1557C163.451 69.8605 163.406 70.5775 163.406 71.3048C163.406 73.807 163.92 76.1892 164.846 78.3527C161.711 75.6648 157.638 74.0394 153.184 74.0394C152.429 74.0394 151.685 74.0867 150.955 74.1772C157.642 75.1176 162.788 80.8595 162.788 87.8062V87.8062Z" fill="#8962DE"/>
<path d="M149.021 101.573C142.075 101.573 136.333 96.4269 135.392 89.7394C135.302 90.47 135.254 91.2138 135.254 91.969C135.254 101.871 143.282 109.899 153.184 109.899C157.144 109.899 160.803 108.614 163.769 106.44C162.471 102.944 161.191 99.4406 160.185 95.8537C157.686 99.317 153.619 101.573 149.021 101.573Z" fill="#8962DE"/>
<path d="M191.784 83.6367C192.319 83.9479 192.85 84.2638 193.373 84.5923C196.992 81.3118 199.265 76.5739 199.265 71.3048C199.265 61.4026 191.238 53.3752 181.336 53.3752C180.608 53.3752 179.891 53.4197 179.186 53.5039C185.984 54.4179 191.227 60.2377 191.227 67.2858C191.227 72.4845 188.373 77.0138 184.149 79.4014C182.678 79.0111 181.133 78.8021 179.539 78.8021C178.9 78.8021 178.27 78.8362 177.649 78.9013C184.803 79.7272 190.358 85.8014 190.358 93.1766C190.358 101.115 183.922 107.551 175.984 107.551C168.608 107.551 162.534 101.996 161.708 94.8419C161.643 95.4631 161.609 96.0935 161.609 96.7318C161.609 106.634 169.637 114.662 179.539 114.662C189.441 114.662 197.468 106.634 197.468 96.7318C197.468 91.5644 195.282 86.9087 191.784 83.6367V83.6367Z" fill="#8962DE"/>
<path d="M125.812 33.4247L127.237 37.4322C127.298 37.6038 127.419 37.7398 127.572 37.8085L131.132 39.4127C131.635 39.6393 131.635 40.4409 131.132 40.6674L127.572 42.2715C127.419 42.3402 127.298 42.4761 127.237 42.6478L125.812 46.6553C125.611 47.2215 124.899 47.2215 124.697 46.6553L123.272 42.6478C123.211 42.4761 123.09 42.3402 122.938 42.2715L119.377 40.6673C118.874 40.4407 118.874 39.6391 119.377 39.4126L122.938 37.8083C123.09 37.7396 123.211 37.6038 123.272 37.4321L124.697 33.4245C124.899 32.8585 125.611 32.8585 125.812 33.4247V33.4247Z" fill="#C3B3EC"/>
<path d="M187.246 34.5875L188.303 37.5603C188.348 37.6875 188.438 37.7885 188.551 37.8393L191.192 39.0293C191.565 39.1974 191.565 39.7919 191.192 39.96L188.551 41.15C188.438 41.201 188.348 41.3018 188.303 41.4291L187.246 44.4018C187.096 44.8218 186.568 44.8218 186.419 44.4018L185.361 41.4291C185.316 41.3018 185.226 41.2009 185.113 41.15L182.472 39.96C182.099 39.7919 182.099 39.1974 182.472 39.0293L185.113 37.8393C185.226 37.7883 185.316 37.6875 185.361 37.5603L186.419 34.5875C186.568 34.1674 187.096 34.1674 187.246 34.5875V34.5875Z" fill="#C3B3EC"/>
<path d="M123.304 87.6602C124.624 87.6602 125.694 86.5901 125.694 85.2699C125.694 83.9498 124.624 82.8796 123.304 82.8796C121.984 82.8796 120.913 83.9498 120.913 85.2699C120.913 86.5901 121.984 87.6602 123.304 87.6602Z" fill="#9882DE"/>
<path d="M146.609 46.2563C146.609 46.9977 146.008 47.5988 145.267 47.5988C144.525 47.5988 143.924 46.9977 143.924 46.2563C143.924 45.5148 144.525 44.9138 145.267 44.9138C146.008 44.9138 146.609 45.5148 146.609 46.2563Z" fill="#9882DE"/>
<path d="M201 71.3048C201 60.4617 192.178 51.6401 181.335 51.6401C180.817 51.6401 180.303 51.6606 179.794 51.7002C179.252 49.8238 178.571 48.2638 178.01 47.1526C175.888 42.9471 172.991 39.924 170.629 39.4507C168.068 38.9374 164.664 40.9782 163.319 41.8793C158.039 45.4176 154.223 50.9406 153.11 56.6533C152.926 57.6001 152.812 58.5261 152.755 59.4269C151.868 58.9625 150.918 58.5418 149.9 58.186C144.502 56.2985 137.9 56.8158 132.239 59.5697C130.751 60.2936 127.197 62.2504 126.334 64.7799C125.553 67.0679 126.684 71.1069 129.215 75.0694C130.421 76.9585 132.678 79.9184 136.096 82.2465C134.457 85.1157 133.519 88.4347 133.519 91.9688C133.519 102.812 142.341 111.634 153.184 111.634C157.092 111.634 160.737 110.485 163.802 108.511C167.392 113.295 173.11 116.396 179.539 116.396C190.382 116.396 199.203 107.574 199.203 96.7314C199.203 92.3693 197.775 88.3349 195.362 85.0699C198.846 81.5202 201 76.6599 201 71.3048V71.3048ZM197.53 71.3048C197.53 75.6269 195.828 79.5584 193.059 82.4654C189.532 79.1214 184.771 77.0668 179.539 77.0668C175.302 77.0668 171.373 78.4138 168.159 80.7022C166.262 78.0501 165.141 74.8069 165.141 71.3046C165.141 62.3749 172.405 55.1101 181.335 55.1101C190.265 55.1103 197.53 62.375 197.53 71.3048V71.3048ZM156.517 57.3167C157.909 50.1656 163.554 45.8994 165.251 44.7623C167.402 43.3206 169.046 42.837 169.751 42.837C169.828 42.837 169.893 42.8427 169.947 42.8535C170.725 43.0095 172.981 44.8892 174.912 48.7161C175.361 49.6047 175.899 50.8252 176.348 52.2817C168.933 54.227 163.215 60.4035 161.939 68.0637C161.826 67.8816 161.711 67.6995 161.591 67.5176C160.577 65.9831 158.809 63.704 156.197 61.6562C156.139 60.2893 156.222 58.8322 156.517 57.3167ZM132.139 73.2016C129.83 69.5869 129.358 66.6629 129.618 65.9007C129.807 65.3459 131.099 63.9837 133.757 62.6902C135.046 62.0631 138.669 60.5208 143.072 60.5208C144.871 60.5208 146.802 60.7786 148.755 61.4616C155.39 63.7817 159.608 69.8361 160.857 73.8666C158.498 72.8624 155.905 72.3041 153.184 72.3041C147.118 72.3041 141.686 75.0653 138.076 79.3963C135.141 77.4066 133.184 74.8377 132.139 73.2016V73.2016ZM153.184 108.164C144.254 108.164 136.989 100.899 136.989 91.9691C136.989 83.0394 144.254 75.7746 153.184 75.7746C157.071 75.7746 160.641 77.1517 163.436 79.4426C164.006 80.6919 164.704 81.8714 165.512 82.9648C162.027 86.5147 159.874 91.3761 159.874 96.7317C159.874 99.9058 160.631 102.906 161.972 105.563C159.439 107.206 156.422 108.164 153.184 108.164V108.164ZM179.539 112.926C170.609 112.926 163.344 105.661 163.344 96.7317C163.344 87.8019 170.609 80.5372 179.539 80.5372C188.468 80.5372 195.733 87.8021 195.733 96.7317C195.733 105.661 188.468 112.926 179.539 112.926V112.926Z" fill="#3C122C"/>
<path d="M179.424 106.793C179.101 106.793 178.775 106.691 178.49 106.484C177.854 106.022 177.653 105.207 178.002 104.502C179.1 102.279 178.241 99.6349 176.046 98.4822C175.35 98.1168 175.034 97.3396 175.276 96.5921C175.519 95.8446 176.231 95.4016 177.01 95.5153C179.462 95.8721 181.713 94.2386 182.131 91.7947C182.263 91.02 182.905 90.4789 183.691 90.4789C184.477 90.4791 185.118 91.02 185.25 91.7947V91.7948C185.668 94.2384 187.917 95.8723 190.371 95.5153C191.149 95.4016 191.862 95.8446 192.105 96.5921C192.348 97.3396 192.031 98.1168 191.335 98.4822C189.14 99.6349 188.281 102.279 189.379 104.502C189.728 105.207 189.527 106.022 188.891 106.484C188.255 106.945 187.418 106.885 186.856 106.336C185.081 104.604 182.301 104.604 180.526 106.336C180.215 106.639 179.822 106.793 179.424 106.793V106.793ZM178.405 97.6088C180.136 99.1757 180.903 101.537 180.424 103.822C182.449 102.66 184.931 102.66 186.957 103.822C186.477 101.537 187.245 99.1757 188.975 97.6088C186.654 97.3585 184.646 95.8993 183.69 93.769C182.735 95.8992 180.726 97.3583 178.405 97.6088V97.6088ZM183.198 92.1457C183.198 92.146 183.198 92.1463 183.198 92.1467C183.198 92.1463 183.198 92.1462 183.198 92.1459V92.1457Z" fill="#3C122C"/>
<path d="M144.828 103.166C144.505 103.166 144.179 103.064 143.894 102.857C143.258 102.395 143.057 101.58 143.405 100.875C144.503 98.6524 143.644 96.008 141.449 94.8553C140.753 94.4899 140.437 93.7126 140.68 92.9653C140.923 92.2179 141.635 91.7747 142.413 91.8885C144.867 92.2451 147.116 90.6118 147.534 88.1679C147.667 87.3933 148.308 86.8523 149.094 86.8523C149.88 86.8523 150.521 87.3934 150.654 88.1679C151.072 90.6118 153.321 92.2464 155.775 91.8887C156.552 91.775 157.265 92.218 157.508 92.9655C157.751 93.713 157.434 94.4901 156.739 94.8556C154.543 96.0083 153.684 98.6527 154.783 100.876C155.131 101.58 154.93 102.395 154.294 102.857C153.658 103.319 152.821 103.258 152.259 102.709C150.484 100.978 147.704 100.978 145.929 102.709C145.619 103.011 145.225 103.166 144.828 103.166V103.166ZM143.809 93.9819C145.54 95.5488 146.307 97.9098 145.827 100.195C147.853 99.0329 150.335 99.0331 152.36 100.195C151.881 97.9097 152.648 95.5488 154.379 93.9817C152.058 93.7314 150.049 92.2721 149.094 90.1418C148.139 92.2721 146.13 93.7314 143.809 93.9819V93.9819ZM149.628 88.3432L148.602 88.5186L149.628 88.3432Z" fill="#3C122C"/>
<path d="M189.191 75.065C188.794 75.065 188.4 74.9107 188.09 74.6081C186.315 72.8768 183.535 72.8765 181.76 74.6081C181.198 75.1567 180.361 75.2174 179.725 74.7556C179.089 74.2937 178.889 73.479 179.236 72.7743C180.335 70.5513 179.476 67.9069 177.281 66.7542C176.585 66.389 176.268 65.6117 176.511 64.8642C176.754 64.1168 177.467 63.6737 178.245 63.7872C180.697 64.1435 182.947 62.5106 183.366 60.0667C183.498 59.292 184.139 58.7511 184.925 58.7511C185.711 58.7511 186.353 59.2922 186.485 60.0667C186.903 62.5106 189.152 64.1443 191.606 63.7872C192.383 63.6736 193.096 64.1166 193.339 64.8642C193.582 65.6117 193.266 66.389 192.57 66.7542C190.375 67.9069 189.516 70.5511 190.614 72.7742C190.962 73.4786 190.761 74.2934 190.125 74.7555C189.84 74.9628 189.515 75.065 189.191 75.065V75.065ZM179.64 65.8809C181.371 67.4479 182.138 69.8089 181.659 72.094C183.684 70.9321 186.167 70.9321 188.192 72.094C187.712 69.8089 188.48 67.4479 190.21 65.8809C187.889 65.6306 185.881 64.1713 184.925 62.041C183.97 64.1712 181.961 65.6304 179.64 65.8809ZM184.433 60.418C184.433 60.4185 184.433 60.419 184.433 60.4195C184.433 60.419 184.433 60.4183 184.433 60.418Z" fill="#3C122C"/>
<path d="M153.709 81.2177C153.671 81.2177 153.633 81.2164 153.594 81.214C153.168 81.1863 152.745 81.1812 152.338 81.1983C151.378 81.2392 150.571 80.4966 150.53 79.5394C150.489 78.5821 151.232 77.7726 152.189 77.7315C152.721 77.7086 153.27 77.7152 153.821 77.7514C154.777 77.8139 155.501 78.6398 155.439 79.5961C155.379 80.5134 154.616 81.2176 153.709 81.2177V81.2177Z" fill="white"/>
<path d="M141.456 89.1873C141.246 89.1873 141.032 89.1488 140.824 89.0677C139.932 88.719 139.491 87.7125 139.84 86.8201C140.589 84.9051 141.907 82.9894 143.552 81.4262C144.363 80.6554 145.245 79.9931 146.174 79.4576C147.005 78.9792 148.065 79.2641 148.544 80.0943C149.022 80.9245 148.737 81.9855 147.907 82.4639C147.216 82.8625 146.555 83.3596 145.942 83.9416C144.658 85.1614 143.639 86.6324 143.072 88.0832C142.804 88.7685 142.149 89.1873 141.456 89.1873V89.1873Z" fill="white"/>
<path d="M173.601 63.3137C173.113 63.3137 172.628 63.109 172.285 62.7099C171.66 61.9833 171.743 60.8879 172.469 60.2631C172.873 59.9158 173.308 59.5814 173.763 59.2689C174.553 58.7261 175.633 58.9263 176.176 59.716C176.718 60.5056 176.518 61.5859 175.728 62.1286C175.376 62.3705 175.041 62.628 174.732 62.894C174.404 63.1758 174.002 63.3137 173.601 63.3137V63.3137Z" fill="white"/>
<path d="M170.056 76.2765C169.311 76.2765 168.623 75.794 168.396 75.0451C167.799 73.0776 167.648 70.757 167.973 68.5112C168.133 67.4037 168.416 66.3373 168.814 65.342C169.17 64.4523 170.18 64.0195 171.07 64.3754C171.959 64.7315 172.392 65.7412 172.036 66.6308C171.74 67.3716 171.528 68.1712 171.408 69.0073C171.154 70.7601 171.264 72.5464 171.717 74.037C171.995 74.9539 171.477 75.923 170.56 76.2014C170.392 76.2522 170.222 76.2765 170.056 76.2765Z" fill="white"/>
<path d="M174.096 88.303C173.524 88.303 172.964 88.0204 172.633 87.5027C172.116 86.6956 172.352 85.6226 173.159 85.1062C173.608 84.8189 174.086 84.5488 174.58 84.3037C175.438 83.8773 176.479 84.2276 176.905 85.0857C177.332 85.9438 176.982 86.9852 176.123 87.4115C175.741 87.6013 175.373 87.8091 175.029 88.0292C174.74 88.2145 174.416 88.303 174.096 88.303V88.303Z" fill="white"/>
<path d="M168.761 100.638C167.92 100.638 167.181 100.026 167.048 99.1687C166.733 97.1368 166.911 94.8183 167.548 92.6402C167.862 91.5658 168.292 90.5499 168.826 89.6207C169.304 88.7898 170.364 88.5035 171.195 88.9809C172.026 89.4583 172.312 90.5188 171.835 91.3497C171.437 92.0413 171.115 92.8033 170.878 93.6144C170.381 95.3141 170.239 97.098 170.477 98.6374C170.624 99.5843 169.975 100.471 169.028 100.618C168.938 100.632 168.849 100.638 168.761 100.638V100.638Z" fill="white"/>
</svg>
