<svg width="320" height="150" viewBox="0 0 320 150" fill="none" xmlns="http://www.w3.org/2000/svg">
<rect width="320" height="150" fill="#69D6F4"/>
<path d="M176.285 104.815C176.195 104.635 176.131 104.456 176.054 104.264L172.812 103.188V98.0625L176.054 96.9862C176.131 96.7941 176.195 96.6147 176.285 96.4353L175.618 95.1028L174.747 93.3731L178.373 89.7472L181.435 91.2847C181.615 91.195 181.794 91.1309 181.986 91.0541L183.062 87.8125H188.188L189.264 91.0541C189.415 91.1168 189.566 91.1681 189.706 91.2309C192.007 86.3557 193.312 80.8438 193.312 75C193.312 55.1868 178.397 39.125 160 39.125C141.603 39.125 126.688 55.1868 126.688 75C126.688 94.8132 141.603 110.875 160 110.875C165.495 110.875 170.675 109.432 175.244 106.894L176.285 104.815Z" fill="#69D6F4"/>
<path d="M168.969 94.2188C168.969 94.3084 168.969 94.3981 168.956 94.475C168.828 95.7691 167.726 96.7812 166.406 96.7812C165.022 96.7812 163.882 95.6666 163.844 94.2956C163.844 94.27 163.844 94.2444 163.844 94.2188C163.844 92.8094 164.997 91.6562 166.406 91.6562C167.816 91.6562 168.969 92.8094 168.969 94.2188Z" fill="#FF826E"/>
<path d="M156.156 91.6562C157.566 91.6562 158.719 92.8094 158.719 94.2188C158.719 95.6281 157.566 96.7812 156.156 96.7812C154.772 96.7812 153.632 95.6666 153.594 94.2956C153.594 94.27 153.594 94.2444 153.594 94.2188C153.594 92.8094 154.747 91.6562 156.156 91.6562Z" fill="#FF826E"/>
<path d="M145.906 91.6562C147.316 91.6562 148.469 92.8094 148.469 94.2188C148.469 94.3212 148.469 94.4238 148.443 94.5263C148.289 95.7947 147.213 96.7812 145.906 96.7812C144.74 96.7812 143.754 95.9997 143.446 94.9234C143.382 94.7056 143.344 94.4622 143.344 94.2188C143.344 92.8094 144.497 91.6562 145.906 91.6562Z" fill="#FF826E"/>
<path d="M149.75 77.5625C151.165 77.5625 152.312 76.4152 152.312 75C152.312 73.5848 151.165 72.4375 149.75 72.4375C148.335 72.4375 147.188 73.5848 147.188 75C147.188 76.4152 148.335 77.5625 149.75 77.5625Z" fill="#FF826E"/>
<path d="M160 77.5625C161.415 77.5625 162.562 76.4152 162.562 75C162.562 73.5848 161.415 72.4375 160 72.4375C158.585 72.4375 157.438 73.5848 157.438 75C157.438 76.4152 158.585 77.5625 160 77.5625Z" fill="#FF826E"/>
<path d="M172.8 74.7822C172.813 74.8462 172.812 74.9231 172.812 75C172.812 76.4094 171.659 77.5625 170.25 77.5625C168.841 77.5625 167.688 76.4094 167.688 75C167.688 74.9872 167.688 74.9744 167.688 74.9616C167.713 73.565 168.853 72.4375 170.25 72.4375C171.582 72.4375 172.684 73.4753 172.8 74.7822Z" fill="#FF826E"/>
<path d="M170.25 55.7812C170.25 57.1906 169.097 58.3438 167.688 58.3438C166.278 58.3438 165.125 57.1906 165.125 55.7812C165.125 55.7428 165.125 55.7044 165.125 55.6659C165.189 54.3078 166.317 53.2188 167.688 53.2188C168.969 53.2188 170.032 54.1669 170.212 55.3969C170.237 55.525 170.25 55.6531 170.25 55.7812Z" fill="#FF826E"/>
<path d="M157.438 53.2188C158.847 53.2188 160 54.3719 160 55.7812C160 57.1906 158.847 58.3438 157.438 58.3438C156.028 58.3438 154.875 57.1906 154.875 55.7812C154.875 55.7684 154.875 55.7556 154.875 55.7428C154.901 54.3462 156.041 53.2188 157.438 53.2188V53.2188Z" fill="#FF826E"/>
<path d="M149.455 54.6025C149.609 54.8844 149.712 55.2047 149.737 55.5506C149.75 55.6275 149.75 55.7044 149.75 55.7812C149.75 56.6012 149.353 57.3444 148.751 57.8056C148.315 58.1516 147.777 58.3438 147.188 58.3438C145.778 58.3438 144.625 57.1906 144.625 55.7812C144.625 55.5763 144.651 55.3841 144.689 55.1919C144.958 54.0644 145.983 53.2188 147.188 53.2188C148.161 53.2188 149.02 53.7697 149.455 54.5897V54.6025Z" fill="#FF826E"/>
<path d="M142.062 75V76.2812C142.062 77.6906 140.909 78.8438 139.5 78.8438H124.125C122.716 78.8438 121.562 77.6906 121.562 76.2812V73.7188C121.562 72.3094 122.716 71.1562 124.125 71.1562H139.5C140.909 71.1562 142.062 72.3094 142.062 73.7188V75Z" fill="#FCD770"/>
<path d="M128.456 86.5312H124.125C122.716 86.5312 121.562 85.3781 121.562 83.9688V81.4062C121.562 79.9969 122.716 78.8438 124.125 78.8438H139.5C140.909 78.8438 142.062 79.9969 142.062 81.4062V83.9688C142.062 85.3781 140.909 86.5312 139.5 86.5312H128.456Z" fill="#FCD770"/>
<path d="M142.062 66.0312V68.5938C142.062 70.0031 140.909 71.1562 139.5 71.1562H124.125C122.716 71.1562 121.562 70.0031 121.562 68.5938V66.0312C121.562 64.6219 122.716 63.4688 124.125 63.4688H128.443H139.5C140.909 63.4688 142.062 64.6219 142.062 66.0312Z" fill="#FCD770"/>
<path d="M198.438 49.375C198.438 54.6537 195.247 59.1766 190.686 61.1497C189.136 61.8159 187.419 62.1875 185.625 62.1875C180.602 62.1875 176.246 59.2919 174.145 55.0638C173.287 53.3469 172.812 51.425 172.812 49.375C172.812 46.9534 173.479 44.6856 174.657 42.7638C176.9 39.0481 180.974 36.5625 185.625 36.5625C192.697 36.5625 198.438 42.3025 198.438 49.375V49.375Z" fill="#E6E9ED"/>
<path d="M190.891 47.5172C191.583 47.8759 192.031 48.5934 192.031 49.375C192.031 50.1566 191.583 50.8741 190.891 51.2328L182.217 55.5634C181.935 55.7044 181.615 55.7812 181.294 55.7812C180.141 55.7812 179.219 54.8588 179.219 53.7056V45.0444C179.219 43.8912 180.141 42.9688 181.294 42.9688C181.615 42.9688 181.935 43.0456 182.217 43.1866L190.891 47.5172Z" fill="#FF826E"/>
<path d="M175.234 106.916L176.285 104.815C176.195 104.635 176.131 104.456 176.054 104.264L172.812 103.188V98.0625L176.054 96.9862C176.131 96.7941 176.195 96.6147 176.285 96.4353L175.618 95.1028L174.747 93.3731L178.373 89.7472L181.435 91.2847C181.615 91.195 181.794 91.1309 181.986 91.0541L183.062 87.8125H188.188L189.264 91.0541C189.418 91.1181 189.571 91.1694 189.712 91.2334C189.751 91.2462 189.776 91.2719 189.815 91.2847L192.877 89.7472L196.503 93.3731L194.965 96.4353C195.055 96.6147 195.119 96.7941 195.196 96.9862L198.438 98.0625V103.188L195.196 104.264C195.119 104.456 195.055 104.635 194.965 104.815L196.503 107.877L192.877 111.503L189.815 109.965C189.635 110.055 189.456 110.119 189.264 110.196L188.188 113.438H183.062L181.986 110.196C181.794 110.119 181.615 110.055 181.435 109.965L178.373 111.503L174.747 107.877L175.234 106.916ZM190.75 100.625C190.75 97.7934 188.457 95.5 185.625 95.5C182.793 95.5 180.5 97.7934 180.5 100.625C180.5 103.457 182.793 105.75 185.625 105.75C188.457 105.75 190.75 103.457 190.75 100.625Z" fill="#FCD770"/>
<path d="M181.292 57.0625C181.809 57.0625 182.33 56.9395 182.792 56.7089L191.459 52.3757C192.601 51.8042 193.312 50.6537 193.312 49.375C193.312 48.0963 192.601 46.9458 191.459 46.3743L182.792 42.0411C182.33 41.8105 181.809 41.6875 181.292 41.6875C179.443 41.6875 177.938 43.1917 177.938 45.0418V53.7082C177.938 55.5583 179.443 57.0625 181.292 57.0625ZM180.5 45.0418C180.5 44.6049 180.855 44.25 181.292 44.25C181.415 44.25 181.537 44.2782 181.645 44.3333L190.312 48.6665C190.582 48.8023 190.75 49.0726 190.75 49.375C190.75 49.6774 190.582 49.9477 190.312 50.0835L181.645 54.4167C181.151 54.6678 180.5 54.2668 180.5 53.7082V45.0418Z" fill="black"/>
<path d="M179.219 100.625C179.219 104.157 182.093 107.031 185.625 107.031C189.157 107.031 192.031 104.157 192.031 100.625C192.031 97.0926 189.157 94.2188 185.625 94.2188C182.093 94.2188 179.219 97.0926 179.219 100.625ZM189.469 100.625C189.469 102.744 187.744 104.469 185.625 104.469C183.506 104.469 181.781 102.744 181.781 100.625C181.781 98.5058 183.506 96.7812 185.625 96.7812C187.744 96.7812 189.469 98.5058 189.469 100.625Z" fill="black"/>
<path d="M199.719 68.5938C199.719 66.6129 197.555 65.0908 192.992 63.8224C192.79 63.1331 192.568 62.4489 192.327 61.7711C196.726 59.3828 199.719 54.7217 199.719 49.375C199.719 41.6042 193.396 35.2812 185.625 35.2812C180.933 35.2812 176.781 37.5952 174.217 41.1314C169.743 38.9584 164.969 37.8438 160 37.8438C154.069 37.8438 148.419 39.4837 143.453 42.3896C135.163 43.2263 125.406 45.1161 125.406 49.375C125.406 51.5134 127.859 53.0535 131.369 54.1669C129.816 56.6282 128.526 59.3111 127.542 62.1875H124.125C122.006 62.1875 120.281 63.9121 120.281 66.0312V68.5938C120.281 69.5816 120.667 70.4746 121.281 71.1562C120.667 71.8379 120.281 72.7309 120.281 73.7188V76.2812C120.281 77.2691 120.667 78.1621 121.281 78.8438C120.667 79.5254 120.281 80.4184 120.281 81.4062V83.9688C120.281 86.0879 122.006 87.8125 124.125 87.8125H127.547C128.53 90.6902 129.818 93.3757 131.368 95.8382C127.875 96.9478 125.406 98.4866 125.406 100.625C125.406 104.88 135.14 106.769 143.424 107.608C148.392 110.516 154.05 112.156 160 112.156C164.834 112.156 169.645 111.058 174.036 108.969L178.123 113.056L181.089 111.572L182.139 114.719H189.11L190.158 111.572L193.124 113.056L198.054 108.125L196.572 105.161L199.719 104.111V97.14L196.573 96.0907L198.056 93.1258L193.125 88.1956L192.162 88.6773C193.769 84.339 194.594 79.756 194.594 75C194.594 74.2992 194.571 73.6022 194.535 72.9064C197.621 71.843 199.719 70.4426 199.719 68.5938V68.5938ZM191.816 71.0397C188.062 72.0173 182.237 72.9551 174.08 73.4253C173.986 67.251 173.347 61.5123 172.282 56.5218C172.674 56.4885 173.052 56.4501 173.434 56.4129C175.872 60.6231 180.418 63.4688 185.625 63.4688C187.139 63.4688 188.596 63.2215 189.965 62.7782C190.899 65.4457 191.519 68.2094 191.816 71.0397V71.0397ZM174.677 105.161L174.273 105.968C171.548 107.437 168.695 108.471 165.736 109.045C168.172 106.255 170.229 101.724 171.693 96.0074C172.555 96.0791 173.394 96.1586 174.214 96.2457L171.531 97.1387V104.11L174.677 105.161ZM142.685 96.3021C143.371 97.3591 144.556 98.0625 145.906 98.0625C146.94 98.0625 147.877 97.6474 148.567 96.9811C150.005 102.219 151.952 106.383 154.236 109.013C146.895 107.573 140.325 103.436 135.583 97.4052C137.509 96.9965 139.857 96.616 142.685 96.3021ZM144.625 94.2188C144.625 93.5128 145.199 92.9375 145.906 92.9375C146.613 92.9375 147.188 93.5128 147.188 94.2188C147.188 94.9247 146.613 95.5 145.906 95.5C145.199 95.5 144.625 94.9247 144.625 94.2188ZM150.879 95.6743C151.437 95.6486 152.01 95.6294 152.583 95.6089C153.141 97.0413 154.528 98.0625 156.156 98.0625C157.822 98.0625 159.229 96.9914 159.762 95.5077C160.798 95.5141 161.817 95.5282 162.814 95.55C163.358 97.0119 164.756 98.0625 166.406 98.0625C167.253 98.0625 168.031 97.7781 168.668 97.3117C166.395 105.007 163.098 109.594 160 109.594C156.689 109.594 153.15 104.351 150.879 95.6743V95.6743ZM154.875 94.2188C154.875 93.5128 155.449 92.9375 156.156 92.9375C156.863 92.9375 157.438 93.5128 157.438 94.2188C157.438 94.9247 156.863 95.5 156.156 95.5C155.449 95.5 154.875 94.9247 154.875 94.2188ZM165.125 94.2188C165.125 93.5128 165.699 92.9375 166.406 92.9375C167.113 92.9375 167.688 93.5128 167.688 94.2188C167.688 94.9247 167.113 95.5 166.406 95.5C165.699 95.5 165.125 94.9247 165.125 94.2188ZM169.852 92.548C169.228 91.2667 167.925 90.375 166.406 90.375C164.72 90.375 163.301 91.473 162.783 92.9862C161.796 92.9644 160.791 92.9503 159.766 92.9452C159.238 91.4525 157.827 90.375 156.156 90.375C154.447 90.375 153.013 91.5025 152.515 93.0477C151.756 93.0746 151.009 93.1041 150.274 93.1399C149.358 88.9182 148.731 84.0277 148.535 78.6272C148.92 78.7579 149.323 78.8438 149.75 78.8438C151.418 78.8438 152.828 77.7688 153.358 76.2812H156.393C156.924 77.7688 158.333 78.8438 160.001 78.8438C161.669 78.8438 163.079 77.7688 163.609 76.2812H163.844C164.787 76.2812 165.709 76.2672 166.633 76.2531C167.157 77.756 168.572 78.8438 170.25 78.8438C170.677 78.8438 171.08 78.7579 171.465 78.6285C171.279 83.7778 170.7 88.4634 169.852 92.548ZM143.897 53.8261C140.533 53.4917 137.788 53.065 135.596 52.6012C140.321 46.6024 146.853 42.4729 154.141 41.011C152.02 43.4633 150.175 47.2827 148.753 52.2783C148.273 52.0631 147.746 51.9375 147.188 51.9375C145.785 51.9375 144.569 52.7011 143.897 53.8261V53.8261ZM168.463 52.0157C168.212 51.9644 167.953 51.9375 167.688 51.9375C166.05 51.9375 164.659 52.9702 164.106 54.4154C163.106 54.4462 162.083 54.468 161.039 54.4808C160.504 53.0022 159.099 51.9375 157.438 51.9375C155.795 51.9375 154.401 52.9779 153.851 54.4295C152.83 54.4013 151.832 54.3655 150.857 54.3206C153.079 45.726 156.556 40.4062 160 40.4062C163.006 40.4062 166.199 44.7279 168.463 52.0157V52.0157ZM168.969 55.7812C168.969 56.4872 168.395 57.0625 167.688 57.0625C166.98 57.0625 166.406 56.4872 166.406 55.7812C166.406 55.0753 166.98 54.5 167.688 54.5C168.395 54.5 168.969 55.0753 168.969 55.7812ZM158.719 55.7812C158.719 56.4872 158.145 57.0625 157.438 57.0625C156.73 57.0625 156.156 56.4872 156.156 55.7812C156.156 55.0753 156.73 54.5 157.438 54.5C158.145 54.5 158.719 55.0753 158.719 55.7812ZM147.188 54.5C147.895 54.5 148.469 55.0753 148.469 55.7812C148.469 56.4872 147.895 57.0625 147.188 57.0625C146.48 57.0625 145.906 56.4872 145.906 55.7812C145.906 55.0753 146.48 54.5 147.188 54.5ZM149.943 58.4514C150.365 58.017 150.671 57.4802 150.851 56.8857C151.814 56.9292 152.801 56.9651 153.809 56.992C154.319 58.5167 155.744 59.625 157.438 59.625C159.112 59.625 160.525 58.5411 161.051 57.0433C162.072 57.0305 163.072 57.01 164.054 56.9805C164.561 58.5103 165.99 59.625 167.688 59.625C168.609 59.625 169.444 59.2855 170.107 58.7435C170.815 62.5155 171.298 66.7564 171.465 71.3715C171.08 71.2421 170.677 71.1562 170.25 71.1562C168.592 71.1562 167.189 72.2171 166.651 73.6906C165.722 73.7047 164.793 73.7188 163.844 73.7188H163.608C163.078 72.2312 161.668 71.1562 160 71.1562C158.332 71.1562 156.922 72.2312 156.392 73.7188H153.357C152.826 72.2312 151.417 71.1562 149.749 71.1562C149.327 71.1562 148.929 71.2408 148.548 71.3664C148.717 66.8461 149.186 62.4489 149.943 58.4514ZM171.531 75C171.531 75.706 170.957 76.2812 170.25 76.2812C169.543 76.2812 168.969 75.706 168.969 75C168.969 74.294 169.543 73.7188 170.25 73.7188C170.957 73.7188 171.531 74.294 171.531 75V75ZM161.281 75C161.281 75.706 160.707 76.2812 160 76.2812C159.293 76.2812 158.719 75.706 158.719 75C158.719 74.294 159.293 73.7188 160 73.7188C160.707 73.7188 161.281 74.294 161.281 75V75ZM151.031 75C151.031 75.706 150.457 76.2812 149.75 76.2812C149.043 76.2812 148.469 75.706 148.469 75C148.469 74.294 149.043 73.7188 149.75 73.7188C150.457 73.7188 151.031 74.294 151.031 75V75ZM185.625 37.8438C191.984 37.8438 197.156 43.0174 197.156 49.375C197.156 55.7326 191.984 60.9062 185.625 60.9062C179.266 60.9062 174.094 55.7326 174.094 49.375C174.094 43.0174 179.266 37.8438 185.625 37.8438ZM172.306 53.9452C172.104 53.9632 171.898 53.9798 171.694 53.9965C170.232 48.2834 168.177 43.7554 165.745 40.9636C168.208 41.4441 170.6 42.241 172.907 43.3416C172.035 45.1738 171.531 47.2148 171.531 49.375C171.531 50.9766 171.813 52.5102 172.306 53.9452V53.9452ZM127.969 49.375C127.969 48.6139 130.855 46.8048 138.934 45.5466C136.69 47.3968 134.658 49.539 132.887 51.9401C129.359 50.942 127.969 49.9131 127.969 49.375V49.375ZM133.959 54.8716C136.882 55.5583 140.21 56.0324 143.403 56.3552C143.681 58.1887 145.245 59.6032 147.152 59.6212C146.416 64.0338 145.999 68.8295 145.936 73.7188H143.344C143.344 72.7309 142.958 71.8379 142.344 71.1562C142.959 70.4746 143.344 69.5816 143.344 68.5938V66.0312C143.344 63.9121 141.619 62.1875 139.5 62.1875H130.261C131.231 59.5597 132.475 57.1099 133.959 54.8716ZM122.844 76.2812V73.7188C122.844 73.0128 123.418 72.4375 124.125 72.4375H139.5C140.207 72.4375 140.781 73.0128 140.781 73.7188V76.2812C140.781 76.9872 140.207 77.5625 139.5 77.5625H124.125C123.418 77.5625 122.844 76.9872 122.844 76.2812ZM122.844 66.0312C122.844 65.3253 123.418 64.75 124.125 64.75H139.5C140.207 64.75 140.781 65.3253 140.781 66.0312V68.5938C140.781 69.2997 140.207 69.875 139.5 69.875H124.125C123.418 69.875 122.844 69.2997 122.844 68.5938V66.0312ZM122.844 83.9688V81.4062C122.844 80.7003 123.418 80.125 124.125 80.125H139.5C140.207 80.125 140.781 80.7003 140.781 81.4062V83.9688C140.781 84.6747 140.207 85.25 139.5 85.25H124.125C123.418 85.25 122.844 84.6747 122.844 83.9688ZM130.257 87.8125H139.5C141.619 87.8125 143.344 86.0879 143.344 83.9688V81.4062C143.344 80.4184 142.958 79.5254 142.344 78.8438C142.959 78.1621 143.344 77.2691 143.344 76.2812H145.918C145.981 81.4101 146.42 86.2443 147.167 90.6043C146.77 90.466 146.351 90.375 145.906 90.375C143.936 90.375 142.325 91.8715 142.106 93.7844C139.36 94.0957 136.508 94.5288 133.95 95.1323C132.469 92.8939 131.226 90.4429 130.257 87.8125ZM127.969 100.625C127.969 100.102 129.358 99.0708 132.886 98.0676C134.652 100.464 136.674 102.603 138.909 104.45C130.849 103.193 127.969 101.386 127.969 100.625V100.625ZM194.938 93.6307L193.553 96.4007L193.802 96.9555C193.874 97.1157 193.936 97.2771 194.001 97.4411L194.217 98.0061L197.156 98.9863V102.265L194.217 103.245L194.001 103.81C193.936 103.974 193.872 104.137 193.802 104.296L193.553 104.851L194.938 107.621L192.621 109.938L189.851 108.553L189.296 108.802C189.138 108.872 188.978 108.936 188.815 108.998L188.245 109.213L187.264 112.156H183.985L183.004 109.212L182.433 108.997C182.271 108.935 182.111 108.871 181.953 108.801L181.398 108.552L178.628 109.937L176.31 107.619L177.695 104.849L177.447 104.294C177.375 104.134 177.312 103.973 177.248 103.809L177.032 103.244L174.094 102.264V98.985L177.033 98.0048L177.249 97.4398C177.314 97.2758 177.378 97.1131 177.448 96.9542L177.697 96.3994L176.312 93.6294L178.629 91.3116L181.399 92.6966L181.954 92.4481C182.112 92.3776 182.272 92.3135 182.435 92.252L183.005 92.0368L183.986 89.0938H187.265L188.246 92.0381L188.817 92.2533C188.979 92.3148 189.139 92.3789 189.297 92.4493L189.852 92.6979L192.622 91.3129L194.938 93.6307ZM192.031 75C192.031 79.5689 191.219 83.9649 189.638 88.1136L189.111 86.5312H182.14L181.092 89.678L178.126 88.1943L173.196 93.1246L173.425 93.5833C173.051 93.5474 172.663 93.5179 172.281 93.4846C173.379 88.3365 174.025 82.3928 174.086 75.9981C178.904 75.7239 186.366 75.0884 192.003 73.6534C192.017 74.1018 192.031 74.549 192.031 75ZM194.311 70.2876C194.168 69.0845 193.974 67.8916 193.724 66.7129C196.859 67.7597 197.154 68.5848 197.159 68.5848C197.064 69.0268 196.126 69.6393 194.311 70.2876Z" fill="black"/>
</svg>
