<svg width="320" height="150" viewBox="0 0 320 150" fill="none" xmlns="http://www.w3.org/2000/svg">
<rect width="320" height="150" fill="#E50914"/>
<path d="M122.844 37.8438H197.156V89.0938H122.844V37.8438Z" fill="#683B0D"/>
<path d="M122.844 83.9688H197.156V86.5312H122.844V83.9688Z" fill="#533222"/>
<path d="M127.969 42.9688H192.031V83.9688H127.969V42.9688Z" fill="#EAEAE8"/>
<path d="M136.938 37.8438L136.211 50.9147C136.036 54.0673 135.214 57.1501 133.796 59.9711C132.378 62.7922 130.394 65.2912 127.969 67.3125V72.4375L134.375 89.0938H122.844V37.8438H136.938Z" fill="#D32B39"/>
<path d="M122.844 67.3125H127.969V72.4375H122.844V67.3125Z" fill="#D32B39"/>
<path d="M127.969 89.0938L125.406 72.4375H122.844V89.0938H127.969Z" fill="#E82F3E"/>
<path d="M124.125 67.3125L124.23 67.165C128.348 61.4001 130.766 54.5953 131.207 47.5246L131.812 37.8438H122.844V67.3125H124.125Z" fill="#E82F3E"/>
<path d="M183.062 37.8438L183.789 50.9147C183.964 54.0673 184.786 57.1501 186.204 59.9711C187.622 62.7922 189.606 65.2912 192.031 67.3125V72.4375L185.625 89.0938H197.156V37.8438H183.062Z" fill="#D32B39"/>
<path d="M197.156 72.4375H192.031V67.3125H197.156V72.4375Z" fill="#D32B39"/>
<path d="M192.031 89.0938L194.594 72.4375H197.156V89.0938H192.031Z" fill="#E82F3E"/>
<path d="M195.875 67.3125L195.77 67.165C191.652 61.4001 189.234 54.5953 188.793 47.5246L188.188 37.8438H197.156V67.3125H195.875Z" fill="#E82F3E"/>
<path d="M166.406 110.875H153.594V99.0234C153.594 98.4288 153.83 97.8585 154.25 97.438C154.671 97.0175 155.241 96.7812 155.836 96.7812H164.164C164.759 96.7813 165.329 97.0175 165.75 97.438C166.17 97.8585 166.406 98.4288 166.406 99.0234V110.875Z" fill="#E82F3E"/>
<path d="M153.594 108.312H140.781V99.0234C140.781 98.4288 141.017 97.8585 141.438 97.438C141.858 97.0175 142.429 96.7812 143.023 96.7812H151.352C151.946 96.7813 152.517 97.0175 152.937 97.438C153.358 97.8585 153.594 98.4288 153.594 99.0234V108.312Z" fill="#D32B39"/>
<path d="M130.211 96.7812H138.539C139.134 96.7813 139.704 97.0175 140.125 97.438C140.545 97.8585 140.781 98.4288 140.781 99.0234V104.469H127.969V99.0234C127.969 98.4288 128.205 97.8585 128.625 97.438C129.046 97.0175 129.616 96.7812 130.211 96.7812V96.7812Z" fill="#E82F3E"/>
<path d="M181.461 96.7812H189.789C190.384 96.7813 190.954 97.0175 191.375 97.438C191.795 97.8585 192.031 98.4288 192.031 99.0234V104.469H179.219V99.0234C179.219 98.4288 179.455 97.8585 179.875 97.438C180.296 97.0175 180.866 96.7812 181.461 96.7812V96.7812Z" fill="#E82F3E"/>
<path d="M179.219 107.031H166.406V99.0234C166.406 98.4288 166.642 97.8585 167.063 97.438C167.483 97.0175 168.054 96.7812 168.648 96.7812H176.977C177.571 96.7813 178.142 97.0175 178.562 97.438C178.983 97.8585 179.219 98.4288 179.219 99.0234V107.031Z" fill="#D32B39"/>
<path d="M162.242 104.469H170.57C171.165 104.469 171.735 104.705 172.156 105.125C172.576 105.546 172.812 106.116 172.812 106.711V112.156H160V106.711C160 106.116 160.236 105.546 160.657 105.125C161.077 104.705 161.648 104.469 162.242 104.469Z" fill="#E82F3E"/>
<path d="M149.43 104.469H157.758C158.352 104.469 158.923 104.705 159.343 105.125C159.764 105.546 160 106.116 160 106.711V112.156H147.188V106.711C147.188 106.116 147.424 105.546 147.844 105.125C148.265 104.705 148.835 104.469 149.43 104.469V104.469Z" fill="#B62531"/>
<path d="M136.617 104.469H144.945C145.54 104.469 146.11 104.705 146.531 105.125C146.951 105.546 147.188 106.116 147.188 106.711V112.156H134.375V106.711C134.375 106.116 134.611 105.546 135.032 105.125C135.452 104.705 136.023 104.469 136.617 104.469Z" fill="#E82F3E"/>
<path d="M175.055 104.469H183.383C183.977 104.469 184.548 104.705 184.968 105.125C185.389 105.546 185.625 106.116 185.625 106.711V112.156H172.812V106.711C172.812 106.116 173.049 105.546 173.469 105.125C173.89 104.705 174.46 104.469 175.055 104.469V104.469Z" fill="#B62531"/>
<path d="M176.656 62.1875H160C159.66 62.1875 159.334 62.0525 159.094 61.8122C158.854 61.572 158.719 61.2461 158.719 60.9062C158.719 60.5664 158.854 60.2405 159.094 60.0003C159.334 59.76 159.66 59.625 160 59.625H176.656C176.996 59.625 177.322 59.76 177.562 60.0003C177.803 60.2405 177.938 60.5664 177.938 60.9062C177.938 61.2461 177.803 61.572 177.562 61.8122C177.322 62.0525 176.996 62.1875 176.656 62.1875Z" fill="#0296E5"/>
<path d="M160 77.5625H143.344C143.004 77.5625 142.678 77.4275 142.438 77.1872C142.197 76.947 142.062 76.6211 142.062 76.2812C142.062 75.9414 142.197 75.6155 142.438 75.3753C142.678 75.135 143.004 75 143.344 75H160C160.34 75 160.666 75.135 160.906 75.3753C161.146 75.6155 161.281 75.9414 161.281 76.2812C161.281 76.6211 161.146 76.947 160.906 77.1872C160.666 77.4275 160.34 77.5625 160 77.5625Z" fill="#0296E5"/>
<path d="M143.344 37.8438H176.656V39.125C176.656 43.5425 174.901 47.7791 171.778 50.9027C168.654 54.0264 164.418 55.7812 160 55.7812C155.582 55.7812 151.346 54.0264 148.222 50.9027C145.099 47.7791 143.344 43.5425 143.344 39.125V37.8438Z" fill="#D32B39"/>
<path d="M148.469 37.8438H171.531V39.125C171.531 42.1833 170.316 45.1163 168.154 47.2788C165.991 49.4414 163.058 50.6562 160 50.6562C156.942 50.6562 154.009 49.4414 151.846 47.2788C149.684 45.1163 148.469 42.1833 148.469 39.125V37.8438Z" fill="#E82F3E"/>
<path d="M153.594 37.8438H166.406V39.125C166.406 40.824 165.731 42.4535 164.53 43.6549C163.328 44.8563 161.699 45.5312 160 45.5312C158.301 45.5312 156.672 44.8563 155.47 43.6549C154.269 42.4535 153.594 40.824 153.594 39.125V37.8438Z" fill="#B62531"/>
<path d="M160 72.4375C162.123 72.4375 163.844 70.7166 163.844 68.5938C163.844 66.4709 162.123 64.75 160 64.75C157.877 64.75 156.156 66.4709 156.156 68.5938C156.156 70.7166 157.877 72.4375 160 72.4375Z" fill="#0296E5"/>
<path d="M160 59.625C158.226 59.625 156.492 60.151 155.017 61.1365C153.542 62.122 152.393 63.5227 151.714 65.1616C151.035 66.8004 150.858 68.6037 151.204 70.3435C151.55 72.0832 152.404 73.6813 153.658 74.9356C154.912 76.1899 156.511 77.0441 158.25 77.3902C159.99 77.7362 161.793 77.5586 163.432 76.8798C165.071 76.201 166.472 75.0514 167.457 73.5765C168.443 72.1016 168.969 70.3676 168.969 68.5937C168.969 66.2151 168.024 63.9339 166.342 62.2519C164.66 60.5699 162.379 59.625 160 59.625ZM156.156 69.875C155.903 69.875 155.655 69.7999 155.444 69.6591C155.234 69.5183 155.07 69.3182 154.973 69.0841C154.876 68.8499 154.85 68.5923 154.9 68.3438C154.949 68.0952 155.071 67.867 155.25 67.6878C155.429 67.5086 155.658 67.3866 155.906 67.3371C156.155 67.2877 156.412 67.3131 156.647 67.41C156.881 67.507 157.081 67.6712 157.222 67.8819C157.362 68.0926 157.438 68.3403 157.438 68.5937C157.438 68.9336 157.303 69.2594 157.062 69.4997C156.822 69.74 156.496 69.875 156.156 69.875ZM160 73.7187C159.747 73.7187 159.499 73.6436 159.288 73.5028C159.077 73.362 158.913 73.1619 158.816 72.9278C158.719 72.6937 158.694 72.4361 158.743 72.1875C158.793 71.939 158.915 71.7107 159.094 71.5315C159.273 71.3523 159.502 71.2303 159.75 71.1809C159.999 71.1314 160.256 71.1568 160.49 71.2538C160.724 71.3508 160.925 71.515 161.065 71.7257C161.206 71.9364 161.281 72.1841 161.281 72.4375C161.281 72.7773 161.146 73.1032 160.906 73.3435C160.666 73.5838 160.34 73.7187 160 73.7187ZM160 66.0312C159.747 66.0312 159.499 65.9561 159.288 65.8153C159.077 65.6745 158.913 65.4744 158.816 65.2403C158.719 65.0062 158.694 64.7486 158.743 64.5C158.793 64.2515 158.915 64.0232 159.094 63.844C159.273 63.6648 159.502 63.5428 159.75 63.4934C159.999 63.4439 160.256 63.4693 160.49 63.5663C160.724 63.6633 160.925 63.8275 161.065 64.0382C161.206 64.2489 161.281 64.4966 161.281 64.75C161.281 65.0898 161.146 65.4157 160.906 65.656C160.666 65.8963 160.34 66.0312 160 66.0312ZM163.844 69.875C163.59 69.875 163.343 69.7999 163.132 69.6591C162.921 69.5183 162.757 69.3182 162.66 69.0841C162.563 68.8499 162.538 68.5923 162.587 68.3438C162.637 68.0952 162.759 67.867 162.938 67.6878C163.117 67.5086 163.345 67.3866 163.594 67.3371C163.842 67.2877 164.1 67.3131 164.334 67.41C164.568 67.507 164.768 67.6712 164.909 67.8819C165.05 68.0926 165.125 68.3403 165.125 68.5937C165.125 68.9336 164.99 69.2594 164.75 69.4997C164.509 69.74 164.184 69.875 163.844 69.875Z" fill="#A8A8A8"/>
<path d="M164.635 73.4741V79.0885C164.635 79.1977 164.663 79.3051 164.717 79.4005C164.77 79.4959 164.846 79.5761 164.939 79.6335C165.032 79.6909 165.138 79.7236 165.247 79.7285C165.356 79.7334 165.465 79.7104 165.563 79.6615L171.177 76.8543C171.284 76.8011 171.373 76.7193 171.436 76.6181C171.498 76.5169 171.531 76.4003 171.531 76.2813C171.531 76.1623 171.498 76.0456 171.436 75.9444C171.373 75.8432 171.284 75.7614 171.177 75.7082L165.563 72.901C165.465 72.8522 165.356 72.8291 165.247 72.834C165.138 72.8389 165.032 72.8716 164.939 72.9291C164.846 72.9865 164.77 73.0667 164.717 73.1621C164.663 73.2575 164.635 73.3649 164.635 73.4741V73.4741Z" fill="#E82F3E"/>
<path d="M197.156 36.5625H122.844C122.504 36.5625 122.178 36.6975 121.938 36.9378C121.697 37.1781 121.562 37.5039 121.562 37.8438V89.0938C121.562 89.4336 121.697 89.7595 121.938 89.9997C122.178 90.24 122.504 90.375 122.844 90.375H197.156C197.496 90.375 197.822 90.24 198.062 89.9997C198.303 89.7595 198.438 89.4336 198.438 89.0938V37.8438C198.438 37.5039 198.303 37.1781 198.062 36.9378C197.822 36.6975 197.496 36.5625 197.156 36.5625V36.5625ZM135.255 87.8125L134.269 85.25H185.731L184.745 87.8125H135.255ZM186.716 82.6875H133.284L129.25 72.1997V67.9027C133.932 63.7855 136.858 58.0313 137.427 51.823C140.137 51.4807 142.688 50.3575 144.77 48.5902C146.378 51.1813 148.621 53.3192 151.286 54.8017C153.951 56.2843 156.95 57.0624 159.999 57.0625C163.049 57.0626 166.048 56.2848 168.713 54.8024C171.378 53.3201 173.621 51.1824 175.229 48.5915C177.312 50.3587 179.863 51.4827 182.573 51.8267C183.143 58.0336 186.069 63.7864 190.75 67.9027V72.1997L186.716 82.6875ZM124.125 68.5938H126.688V71.1562H124.125V68.5938ZM141.934 39.125C141.72 40.1933 141.236 41.1888 140.527 42.0165C139.819 42.8442 138.91 43.4765 137.887 43.853L138.149 39.125H141.934ZM143.542 46.2544C141.892 47.8033 139.821 48.8315 137.59 49.2107L137.737 46.5681C139.652 46.1183 141.365 45.0478 142.609 43.5232C142.846 44.4574 143.157 45.3708 143.542 46.2544H143.542ZM181.851 39.125L182.113 43.8496C181.096 43.4664 180.192 42.8323 179.485 42.0064C178.778 41.1804 178.291 40.1893 178.069 39.125H181.851ZM182.264 46.5694L182.411 49.212C180.179 48.8315 178.109 47.8027 176.458 46.2537C176.846 45.3621 177.16 44.4402 177.397 43.4973C178.638 45.0284 180.348 46.1081 182.264 46.5694V46.5694ZM193.312 71.1562V68.5938H195.875V71.1562H193.312ZM195.875 65.0407C192.46 59.7716 190.462 53.7113 190.071 47.4446L189.551 39.125H195.875V65.0407ZM186.984 39.125L187.514 47.6045C187.921 54.1488 189.968 60.4855 193.467 66.0312H192.505C190.316 64.1226 188.531 61.7959 187.254 59.1878C185.977 56.5798 185.233 53.7429 185.068 50.8436L184.417 39.125H186.984ZM165.125 39.125C165.125 40.4842 164.585 41.7878 163.624 42.7489C162.663 43.71 161.359 44.25 160 44.25C158.641 44.25 157.337 43.71 156.376 42.7489C155.415 41.7878 154.875 40.4842 154.875 39.125H165.125ZM160 46.8125C162.038 46.8102 163.992 45.9995 165.433 44.5584C166.875 43.1172 167.685 41.1631 167.688 39.125H170.25C170.25 41.8435 169.17 44.4506 167.248 46.3728C165.326 48.2951 162.718 49.375 160 49.375C157.282 49.375 154.674 48.2951 152.752 46.3728C150.83 44.4506 149.75 41.8435 149.75 39.125H152.312C152.315 41.1631 153.125 43.1172 154.567 44.5584C156.008 45.9995 157.962 46.8102 160 46.8125V46.8125ZM160 51.9375C163.397 51.9336 166.654 50.5825 169.056 48.1805C171.458 45.7786 172.809 42.5219 172.812 39.125H175.375C175.375 43.2027 173.755 47.1134 170.872 49.9968C167.988 52.8801 164.078 54.5 160 54.5C155.922 54.5 152.012 52.8801 149.128 49.9968C146.245 47.1134 144.625 43.2027 144.625 39.125H147.188C147.191 42.5219 148.542 45.7786 150.944 48.1805C153.346 50.5825 156.603 51.9336 160 51.9375V51.9375ZM134.932 50.8436C134.767 53.7429 134.023 56.5798 132.746 59.1879C131.469 61.796 129.684 64.1226 127.495 66.0312H126.533C130.032 60.4855 132.079 54.1488 132.486 47.6045L133.016 39.125H135.583L134.932 50.8436ZM130.449 39.125L129.929 47.4446C129.538 53.7113 127.54 59.7716 124.125 65.0407V39.125H130.449ZM124.125 87.8125V73.7188H124.307L126.475 87.8125H124.125ZM129.068 87.8125L126.9 73.7188H127.089L132.509 87.8125H129.068ZM192.911 73.7188H193.1L190.932 87.8125H187.491L192.911 73.7188ZM195.875 87.8125H193.525L195.693 73.7188H195.875V87.8125Z" fill="black"/>
<path d="M193.312 104.469V99.0234C193.311 98.0893 192.94 97.1937 192.279 96.5332C191.619 95.8726 190.723 95.5011 189.789 95.5H181.461C180.642 95.4992 179.849 95.7849 179.219 96.3075C178.589 95.7849 177.795 95.4992 176.977 95.5H168.648C167.83 95.4992 167.036 95.7849 166.406 96.3075C165.776 95.7849 164.983 95.4992 164.164 95.5H155.836C155.017 95.4992 154.224 95.7849 153.594 96.3075C152.964 95.7849 152.17 95.4992 151.352 95.5H143.023C142.205 95.4992 141.411 95.7849 140.781 96.3075C140.151 95.7849 139.358 95.4992 138.539 95.5H130.211C129.277 95.5011 128.381 95.8726 127.721 96.5332C127.06 97.1937 126.689 98.0893 126.688 99.0234V104.469C126.688 104.809 126.822 105.134 127.063 105.375C127.303 105.615 127.629 105.75 127.969 105.75H133.228C133.139 106.063 133.094 106.386 133.094 106.711V112.156C133.094 112.496 133.229 112.822 133.469 113.062C133.709 113.303 134.035 113.438 134.375 113.438H185.625C185.965 113.438 186.291 113.303 186.531 113.062C186.771 112.822 186.906 112.496 186.906 112.156V106.711C186.906 106.386 186.861 106.063 186.772 105.75H192.031C192.371 105.75 192.697 105.615 192.937 105.375C193.178 105.134 193.312 104.809 193.312 104.469ZM168.648 98.0625H176.977C177.231 98.0628 177.476 98.1641 177.656 98.3442C177.836 98.5244 177.937 98.7687 177.938 99.0234V103.188H175.055C174.236 103.187 173.443 103.472 172.812 103.995C172.182 103.472 171.389 103.187 170.57 103.188H167.688V99.0234C167.688 98.7687 167.789 98.5244 167.969 98.3442C168.149 98.1641 168.394 98.0628 168.648 98.0625ZM155.836 98.0625H164.164C164.419 98.0628 164.663 98.1641 164.843 98.3442C165.023 98.5244 165.125 98.7687 165.125 99.0234V103.188H162.242C161.423 103.187 160.63 103.472 160 103.995C159.37 103.472 158.577 103.187 157.758 103.188H154.875V99.0234C154.875 98.7687 154.977 98.5244 155.157 98.3442C155.337 98.1641 155.581 98.0628 155.836 98.0625ZM143.023 98.0625H151.352C151.606 98.0628 151.851 98.1641 152.031 98.3442C152.211 98.5244 152.312 98.7687 152.312 99.0234V103.188H149.43C148.611 103.187 147.818 103.472 147.188 103.995C146.557 103.472 145.764 103.187 144.945 103.188H142.062V99.0234C142.063 98.7687 142.164 98.5244 142.344 98.3442C142.524 98.1641 142.769 98.0628 143.023 98.0625ZM129.25 99.0234C129.25 98.7687 129.352 98.5244 129.532 98.3442C129.712 98.1641 129.956 98.0628 130.211 98.0625H138.539C138.794 98.0628 139.038 98.1641 139.218 98.3442C139.398 98.5244 139.5 98.7687 139.5 99.0234V103.188H129.25V99.0234ZM135.656 106.711C135.657 106.456 135.758 106.212 135.938 106.032C136.118 105.852 136.362 105.75 136.617 105.75H144.945C145.2 105.75 145.444 105.852 145.625 106.032C145.805 106.212 145.906 106.456 145.906 106.711V110.875H135.656V106.711ZM148.469 106.711C148.469 106.456 148.57 106.212 148.75 106.032C148.931 105.852 149.175 105.75 149.43 105.75H157.758C158.013 105.75 158.257 105.852 158.437 106.032C158.617 106.212 158.718 106.456 158.719 106.711V110.875H148.469V106.711ZM161.281 106.711C161.282 106.456 161.383 106.212 161.563 106.032C161.743 105.852 161.987 105.75 162.242 105.75H170.57C170.825 105.75 171.069 105.852 171.25 106.032C171.43 106.212 171.531 106.456 171.531 106.711V110.875H161.281V106.711ZM184.344 106.711V110.875H174.094V106.711C174.094 106.456 174.195 106.212 174.375 106.032C174.556 105.852 174.8 105.75 175.055 105.75H183.383C183.638 105.75 183.882 105.852 184.062 106.032C184.242 106.212 184.343 106.456 184.344 106.711V106.711ZM190.75 103.188H180.5V99.0234C180.5 98.7687 180.602 98.5244 180.782 98.3442C180.962 98.1641 181.206 98.0628 181.461 98.0625H189.789C190.044 98.0628 190.288 98.1641 190.468 98.3442C190.648 98.5244 190.75 98.7687 190.75 99.0234V103.188Z" fill="black"/>
<path d="M160 73.7188C160.708 73.7188 161.281 73.1451 161.281 72.4375C161.281 71.7299 160.708 71.1562 160 71.1562C159.292 71.1562 158.719 71.7299 158.719 72.4375C158.719 73.1451 159.292 73.7188 160 73.7188Z" fill="black"/>
<path d="M160 66.0312C160.708 66.0312 161.281 65.4576 161.281 64.75C161.281 64.0424 160.708 63.4688 160 63.4688C159.292 63.4688 158.719 64.0424 158.719 64.75C158.719 65.4576 159.292 66.0312 160 66.0312Z" fill="black"/>
<path d="M163.844 69.875C164.551 69.875 165.125 69.3014 165.125 68.5938C165.125 67.8861 164.551 67.3125 163.844 67.3125C163.136 67.3125 162.562 67.8861 162.562 68.5938C162.562 69.3014 163.136 69.875 163.844 69.875Z" fill="black"/>
<path d="M156.156 69.875C156.864 69.875 157.438 69.3014 157.438 68.5938C157.438 67.8861 156.864 67.3125 156.156 67.3125C155.449 67.3125 154.875 67.8861 154.875 68.5938C154.875 69.3014 155.449 69.875 156.156 69.875Z" fill="black"/>
<path d="M176.656 59.625H160C158.218 59.6238 156.476 60.154 154.996 61.1478C153.517 62.1416 152.367 63.5539 151.694 65.2042C151.022 66.8545 150.856 68.668 151.219 70.4128C151.582 72.1577 152.457 73.7548 153.732 75H143.344C143.004 75 142.678 75.135 142.438 75.3753C142.197 75.6155 142.062 75.9414 142.062 76.2812C142.062 76.6211 142.197 76.9469 142.438 77.1872C142.678 77.4275 143.004 77.5625 143.344 77.5625H160C161.149 77.5645 162.288 77.3444 163.354 76.9143V79.0885C163.354 79.4164 163.437 79.739 163.596 80.0256C163.756 80.3122 163.986 80.5532 164.265 80.7255C164.544 80.8979 164.862 80.996 165.19 81.0103C165.517 81.0246 165.843 80.9548 166.136 80.8074L171.75 78.0002C172.069 77.8406 172.338 77.5952 172.526 77.2916C172.713 76.988 172.813 76.6381 172.813 76.2812C172.813 75.9243 172.713 75.5745 172.526 75.2709C172.338 74.9673 172.069 74.7219 171.75 74.5623L167.986 72.68C168.857 70.9768 169.16 69.0395 168.851 67.1516C168.542 65.2636 167.637 63.5241 166.268 62.1875H176.656C176.996 62.1875 177.322 62.0525 177.562 61.8122C177.803 61.572 177.938 61.2461 177.938 60.9063C177.938 60.5664 177.803 60.2406 177.562 60.0003C177.322 59.76 176.996 59.625 176.656 59.625V59.625ZM165.917 78.0519V74.5106L169.458 76.2812L165.917 78.0519ZM166.406 68.5937C166.408 69.6387 166.153 70.668 165.663 71.5909C165.383 71.5337 165.095 71.5393 164.818 71.6074C164.541 71.6755 164.283 71.8044 164.062 71.9846C163.841 72.1649 163.663 72.392 163.54 72.6496C163.418 72.9073 163.354 73.1888 163.354 73.474V74.052C162.347 74.675 161.185 75.0034 160 75C158.733 75 157.494 74.6243 156.441 73.9203C155.387 73.2164 154.566 72.2159 154.081 71.0453C153.597 69.8747 153.47 68.5866 153.717 67.3439C153.964 66.1013 154.574 64.9598 155.47 64.0638C156.366 63.1679 157.508 62.5578 158.75 62.3106C159.993 62.0634 161.281 62.1903 162.452 62.6751C163.622 63.16 164.623 63.9811 165.327 65.0346C166.031 66.0881 166.406 67.3267 166.406 68.5937Z" fill="black"/>
</svg>
