<svg width="320" height="150" viewBox="0 0 320 150" fill="none" xmlns="http://www.w3.org/2000/svg">
<rect width="320" height="150" fill="#5CD6B3"/>
<path d="M175.375 113.438H144.625H134.375V109.722C134.375 107.147 135.246 104.661 136.861 102.649C138.565 100.523 140.973 99.0747 143.664 98.5878L151.339 97.1913L153.594 107.031L160 103.188L166.406 107.031L168.661 97.2041L176.323 98.5878C178.988 99.0747 181.397 100.51 183.101 102.624L183.114 102.637C184.741 104.648 185.625 107.159 185.625 109.748V113.438H175.375Z" fill="#4FC1E9"/>
<path d="M166.406 96.7812L168.661 97.2041L166.406 107.031L160 103.188L166.406 96.7812Z" fill="#3BAFDA"/>
<path d="M160 103.188L153.594 107.031L151.339 97.1912L153.594 96.7812L160 103.188Z" fill="#3BAFDA"/>
<path d="M166.406 96.7812L160 103.188L153.594 96.7812L154.875 92.9375H165.087L166.368 96.7812H166.406Z" fill="#F0D0B4"/>
<path d="M121.562 51.9375H198.438V90.375C198.438 91.7844 197.284 92.9375 195.875 92.9375H165.087H154.875H124.125C122.716 92.9375 121.562 91.7844 121.562 90.375V51.9375Z" fill="#E6E9ED"/>
<path d="M198.438 39.125V51.9375H121.562V39.125C121.562 37.7156 122.716 36.5625 124.125 36.5625H195.875C197.284 36.5625 198.438 37.7156 198.438 39.125Z" fill="#5CD6B3"/>
<path d="M140.781 46.8125H127.969C127.262 46.8125 126.688 46.2385 126.688 45.5312V42.9688C126.688 42.2615 127.262 41.6875 127.969 41.6875H140.781C141.488 41.6875 142.062 42.2615 142.062 42.9688V45.5312C142.062 46.2385 141.488 46.8125 140.781 46.8125Z" fill="#E6E9ED"/>
<path d="M165.125 77.5625H154.875V80.125H153.594C151.467 80.125 149.75 78.4081 149.75 76.2812C149.75 75.2178 150.186 74.2569 150.877 73.565C151.569 72.8731 152.53 72.4375 153.594 72.4375H166.406C168.533 72.4375 170.25 74.1544 170.25 76.2812C170.25 77.3447 169.814 78.3056 169.122 78.9975C168.431 79.6894 167.47 80.125 166.406 80.125H165.125V77.5625Z" fill="#FC6E51"/>
<path d="M160 87.8125C158.591 87.8125 157.309 87.2359 156.374 86.3134C155.452 85.3781 154.875 84.0969 154.875 82.6875V80.125V77.5625H165.125V80.125V82.6875C165.125 85.5191 162.832 87.8125 160 87.8125Z" fill="#FF826E"/>
<path d="M167.688 41.6875H193.312V46.8125H167.688V41.6875Z" fill="#FCD770"/>
<path d="M195.875 35.2812H124.125C122.006 35.2812 120.281 37.0058 120.281 39.125V90.375C120.281 92.4942 122.006 94.2188 124.125 94.2188H153.098L152.619 95.6563L143.439 97.3258C140.447 97.8703 137.752 99.477 135.855 101.851C134.075 104.075 133.094 106.87 133.094 109.719V114.719H186.906V109.744C186.906 106.878 185.916 104.069 184.1 101.818C182.205 99.4655 179.522 97.8703 176.547 97.3296L167.342 95.6563L166.862 94.2188H195.875C197.994 94.2188 199.719 92.4942 199.719 90.375V39.125C199.719 37.0058 197.994 35.2812 195.875 35.2812V35.2812ZM124.125 37.8438H195.875C196.582 37.8438 197.156 38.419 197.156 39.125V50.6562H122.844V39.125C122.844 38.419 123.418 37.8438 124.125 37.8438ZM154.448 105.025L152.886 98.2124L153.162 98.1624L157.935 102.934L154.448 105.025ZM182.122 103.445C183.554 105.223 184.344 107.459 184.344 109.744V112.156H176.656V104.469H174.094V112.156H145.906V104.469H143.344V112.156H135.656V109.719C135.656 107.45 136.437 105.223 137.856 103.45C139.368 101.559 141.513 100.279 143.896 99.846L150.364 98.6698L152.739 109.038L160 104.681L167.261 109.038L169.635 98.6775L176.09 99.8511C178.458 100.282 180.594 101.551 182.122 103.445ZM166.832 98.1676L167.112 98.2188L165.553 105.024L162.067 102.933L166.832 98.1676ZM164.91 96.4661L160 101.376L155.059 96.4353L155.799 94.2188H164.163L164.91 96.4661ZM195.875 91.6562H124.125C123.418 91.6562 122.844 91.081 122.844 90.375V53.2188H197.156V90.375C197.156 91.081 196.582 91.6562 195.875 91.6562Z" fill="black"/>
<path d="M127.969 48.0938H140.781C142.194 48.0938 143.344 46.9445 143.344 45.5312V42.9688C143.344 41.5555 142.194 40.4062 140.781 40.4062H127.969C126.556 40.4062 125.406 41.5555 125.406 42.9688V45.5312C125.406 46.9445 126.556 48.0938 127.969 48.0938ZM133.094 45.5312V42.9688H135.656V45.5312H133.094ZM140.783 45.5312H138.219V42.9688H140.781L140.783 45.5312ZM127.969 42.9688H130.531V45.5312H127.969V42.9688Z" fill="black"/>
<path d="M194.594 40.4062H166.406V48.0938H194.594V40.4062ZM192.031 45.5312H168.969V42.9688H192.031V45.5312Z" fill="black"/>
<path d="M166.406 71.1562H153.594C150.767 71.1562 148.469 73.4548 148.469 76.2812C148.469 79.1077 150.767 81.4062 153.594 81.4062V82.6875C153.594 86.2199 156.468 89.0938 160 89.0938C163.532 89.0938 166.406 86.2199 166.406 82.6875V81.4062C169.233 81.4062 171.531 79.1077 171.531 76.2812C171.531 73.4548 169.233 71.1562 166.406 71.1562ZM163.844 82.6875C163.844 84.3557 162.769 85.7651 161.281 86.2955V83.9688H158.719V86.2955C157.231 85.7651 156.156 84.3557 156.156 82.6875V78.8438H163.844V82.6875ZM166.406 78.8438V76.2812H153.594V78.8438C152.181 78.8438 151.031 77.6945 151.031 76.2812C151.031 74.868 152.181 73.7188 153.594 73.7188H166.406C167.819 73.7188 168.969 74.868 168.969 76.2812C168.969 77.6945 167.819 78.8438 166.406 78.8438Z" fill="black"/>
<path d="M152.688 66.9371L154.499 65.1254L150.28 60.9062L154.499 56.6871L152.688 54.8754L148.469 59.0946L144.249 54.8754L142.438 56.6871L146.657 60.9062L142.438 65.1254L144.249 66.9371L148.469 62.7179L152.688 66.9371Z" fill="black"/>
<path d="M175.75 54.8754L171.531 59.0946L167.312 54.8754L165.5 56.6871L169.72 60.9062L165.5 65.1254L167.312 66.9371L171.531 62.7179L175.75 66.9371L177.562 65.1254L173.343 60.9062L177.562 56.6871L175.75 54.8754Z" fill="black"/>
</svg>
