<svg width="320" height="150" viewBox="0 0 320 150" fill="none" xmlns="http://www.w3.org/2000/svg">
<rect width="320" height="150" fill="#55A6FF"/>
<g clip-path="url(#clip0)">
<path d="M201 48.8587C201 57.108 200.076 72.6089 193.633 77.7652C189.451 81.1093 186.171 82.4865 184.123 83.0552C183.444 88.3996 181.33 92.6518 179.749 94.2325C178.753 95.2287 176.395 98.7425 175.244 102.199C173.868 106.328 171.952 110.359 165.125 110.359C162.88 110.359 161.204 109.628 160 108.555C158.796 109.628 157.12 110.359 154.875 110.359C148.048 110.359 146.132 106.328 144.756 102.199C143.707 99.0524 141.416 95.3975 140.251 94.2325C138.67 92.6518 136.556 88.3996 135.877 83.0552C133.829 82.4866 130.549 81.1093 126.367 77.7652C119.924 72.6089 119 57.108 119 48.8587C119 45.4697 120.664 42.289 122.314 40.6394C128.59 34.3634 143.215 54.5698 149.59 58.9805C154.116 57.4683 165.728 57.432 170.41 58.9805C176.773 54.5782 191.412 34.3655 197.686 40.6394C199.336 42.289 201 45.4697 201 48.8587V48.8587Z" fill="#8BC4FF"/>
<path d="M143.736 78.4002C144.92 77.3185 150.5 74.5868 152.313 78.7278C154.679 84.1362 143.736 88.1357 142.553 84.8906C141.369 81.6455 142.553 79.4819 143.736 78.4002V78.4002Z" fill="#B9DCFF"/>
<path d="M160 57.8307V57.8274C160.025 57.8274 160.018 57.8261 160 57.8307Z" fill="#B9DCFF"/>
<path d="M124.125 44.134C125.189 41.474 143.344 59.509 140.781 63.3528C138.219 67.1965 140.565 76.1653 133.094 76.1653C125.406 76.1653 119 56.9465 124.125 44.134V44.134Z" fill="#B9DCFF"/>
<path d="M176.264 78.6004C175.081 77.5187 169.5 74.787 167.688 78.928C165.321 84.3364 176.264 88.3359 177.447 85.0908C178.631 81.8457 177.447 79.6821 176.264 78.6004V78.6004Z" fill="#B9DCFF"/>
<path d="M163.844 86.6155C162.563 80.2093 166.406 80.2093 168.969 69.9593C170.604 63.4233 166.298 59.3785 160 58.0308V57.8306C158.488 58.1541 153.19 59.5395 151.329 63.7932C151.313 63.7932 150.112 66.0844 151.031 69.7591C153.594 80.0091 157.438 80.0091 156.156 86.4153C154.934 92.5256 144.39 91.643 144.527 101.55C145.998 105.52 147.318 110.359 154.875 110.359C157.121 110.359 158.796 109.628 160 108.555V108.756C161.205 109.829 162.88 110.559 165.125 110.559C171.953 110.559 173.868 106.528 175.244 102.399C175.316 102.183 175.393 101.966 175.473 101.75C175.61 91.8424 165.067 92.7263 163.844 86.6155V86.6155Z" fill="#B9DCFF"/>
<path d="M167.688 97.5461C167.688 100.178 164.441 105.234 160 105.234C155.559 105.234 152.312 100.178 152.312 97.5461C152.312 94.6404 155.807 91.1399 160 91.1399C164.193 91.1399 167.688 94.6388 167.688 97.5461Z" fill="#8BC4FF"/>
<path d="M195.875 44.3342C194.811 41.6742 176.656 59.7092 179.219 63.553C181.781 67.3967 179.435 76.3655 186.906 76.3655C194.594 76.3655 201 57.1467 195.875 44.3342V44.3342Z" fill="#B9DCFF"/>
<path d="M147.188 88.5766C149.31 88.5766 151.031 86.8557 151.031 84.7328C151.031 82.61 149.31 80.8891 147.188 80.8891C145.065 80.8891 143.344 82.61 143.344 84.7328C143.344 86.8557 145.065 88.5766 147.188 88.5766Z" fill="#2E58FF"/>
<path d="M197.686 40.6394C191.41 34.3634 176.785 54.5698 170.41 58.9805C165.806 57.4576 154.208 57.4374 149.59 58.9805C143.227 54.5782 128.588 34.3655 122.314 40.6394C120.664 42.289 119 45.4697 119 48.8587C119 57.108 119.924 72.6089 126.367 77.7652C130.549 81.1093 133.829 82.4865 135.877 83.0552C136.556 88.3996 138.67 92.6518 140.251 94.2325C141.337 95.319 143.06 98.1999 143.776 99.7835C145.808 104.083 146.215 110.359 154.875 110.359C157.12 110.359 158.796 109.628 160 108.555C161.204 109.628 162.88 110.359 165.125 110.359C171.952 110.359 173.868 106.328 175.244 102.199C176.395 98.7425 178.753 95.2287 179.749 94.2325C181.33 92.6518 183.444 88.3996 184.123 83.0552C186.171 82.4866 189.451 81.1093 193.633 77.7652C200.076 72.6089 201 57.1078 201 48.8587C201 45.4697 199.336 42.289 197.686 40.6394V40.6394ZM160 100.109C159.097 100.109 157.812 98.5135 157.49 97.631C157.809 97.1281 158.818 96.2649 160 96.2649C161.182 96.2649 162.191 97.1281 162.51 97.631C162.188 98.5135 160.903 100.109 160 100.109ZM190.43 73.7629C187.81 75.8594 185.699 76.9933 184.211 77.6083C183.375 71.1604 178.868 65.4572 178.657 65.1946C177.773 64.0895 176.16 63.9101 175.055 64.7942C173.95 65.6783 173.772 67.291 174.656 68.3961C175.924 69.9833 179.219 75.0906 179.219 79.6086C179.219 85.5376 176.781 89.9531 176.126 90.6082C174.661 92.072 171.823 96.2537 170.381 100.579C169.209 104.097 168.543 105.234 165.125 105.234C163.925 105.234 163.408 104.83 163.105 104.383C165.875 102.831 167.688 99.5113 167.688 97.5461C167.688 94.6404 164.193 91.1399 160 91.1399C155.807 91.1399 152.312 94.639 152.312 97.5461C152.312 99.5113 154.125 102.831 156.895 104.383C156.592 104.83 156.075 105.234 154.875 105.234C149.372 105.234 151.232 102.092 146.95 94.8459C145.813 92.924 144.651 91.3849 143.874 90.6082C143.219 89.9531 140.781 85.5376 140.781 79.6086C140.781 74.2322 145.251 68.5162 145.346 68.3945C146.228 67.2894 146.049 65.6783 144.945 64.7942C143.839 63.9101 142.227 64.0895 141.343 65.1946C141.132 65.4572 136.625 71.1604 135.789 77.6083C134.301 76.9933 132.19 75.8594 129.57 73.7629C126.261 71.1172 124.125 61.3412 124.125 48.8587C124.125 47.3067 124.855 45.5819 125.643 44.5937C129.674 45.8283 139.99 57.4219 144.758 61.6407C146.729 63.3816 148.828 64.9976 150.897 63.963C153.495 62.6455 166.45 62.6345 169.103 63.963C171.172 64.9976 173.271 63.3816 175.242 61.6407C180.048 57.3884 190.327 45.8282 194.357 44.5937C195.145 45.5819 195.875 47.3067 195.875 48.8587C195.875 61.3412 193.739 71.1172 190.43 73.7629V73.7629Z" fill="#2E58FF"/>
<path d="M172.812 88.5766C174.935 88.5766 176.656 86.8557 176.656 84.7328C176.656 82.61 174.935 80.8891 172.812 80.8891C170.69 80.8891 168.969 82.61 168.969 84.7328C168.969 86.8557 170.69 88.5766 172.812 88.5766Z" fill="#2E58FF"/>
</g>
<defs>
<clipPath id="clip0">
<rect width="82" height="82" fill="white" transform="translate(119 34)"/>
</clipPath>
</defs>
</svg>
