<svg width="320" height="150" viewBox="0 0 320 150" fill="none" xmlns="http://www.w3.org/2000/svg">
<rect width="320" height="150" fill="#F75B1E"/>
<path d="M131.11 70.5066H152.591C155.068 70.5066 156.901 72.8107 156.344 75.2241L154.959 81.2255C154.152 84.7206 151.04 87.1965 147.453 87.1965H134.695C131.527 87.1965 128.832 84.8848 128.35 81.7534L127.303 74.9439C126.944 72.6105 128.749 70.5066 131.11 70.5066Z" fill="#99E7FF"/>
<path d="M188.891 70.5066H167.41C164.933 70.5066 163.1 72.8107 163.656 75.2241L165.041 81.2255C165.848 84.7206 168.96 87.1965 172.547 87.1965H185.305C188.473 87.1965 191.168 84.8848 191.65 81.7534L192.697 74.9439C193.056 72.6105 191.251 70.5066 188.891 70.5066Z" fill="#99E7FF"/>
<path d="M152.59 74.358L152.591 74.3585L151.206 80.3603C150.8 82.1176 149.257 83.3449 147.453 83.3449H134.696C133.419 83.3449 132.351 82.4291 132.157 81.1677L131.11 74.358H152.59Z" fill="#CCF3FF"/>
<path d="M142.026 70.5066H130.472V76.9258H142.026C142.735 76.9258 143.31 76.351 143.31 75.642V71.7904C143.31 71.0812 142.736 70.5066 142.026 70.5066Z" fill="#4BD7C8"/>
<path d="M127.905 74.3577H127.917" stroke="#464646" stroke-width="16" stroke-miterlimit="10" stroke-linecap="round" stroke-linejoin="round"/>
<path d="M188.891 74.3574L187.843 81.1675C187.649 82.4293 186.581 83.3449 185.304 83.3449H172.547C170.743 83.3449 169.2 82.1176 168.794 80.3602L167.41 74.358H188.89L188.891 74.3574Z" fill="#CCF3FF"/>
<path d="M125.337 78.2095H130.472C131.89 78.2095 133.04 77.0598 133.04 75.6418V73.0742C133.04 71.6562 131.89 70.5066 130.472 70.5066H125.337C123.919 70.5066 122.769 71.6562 122.769 73.0742V75.6418C122.769 77.0598 123.918 78.2095 125.337 78.2095Z" fill="#EDEBED"/>
<path d="M127.917 73.1568H127.904C127.241 73.1568 126.709 73.6946 126.709 74.358C126.709 75.0214 127.254 75.5592 127.917 75.5592C128.58 75.5592 129.118 75.0214 129.118 74.358C129.118 73.6946 128.58 73.1568 127.917 73.1568Z" fill="black"/>
<path d="M194.664 61.6023H192.096C191.433 61.6023 190.895 62.1401 190.895 62.8035C190.895 63.4669 191.433 64.0047 192.096 64.0047H194.664C196.833 64.0047 198.598 65.7696 198.598 67.9388C198.598 70.1079 196.833 71.8729 194.664 71.8729H193.288C193.128 71.5895 192.941 71.3192 192.725 71.0679C191.764 69.9478 190.366 69.3052 188.89 69.3052H167.409C165.861 69.3052 164.419 70.0003 163.455 71.2124C162.874 71.9432 162.516 72.8008 162.399 73.6972C161.668 73.3484 160.853 73.1567 160 73.1567C159.147 73.1567 158.332 73.3484 157.601 73.6972C157.484 72.8008 157.126 71.9432 156.545 71.2124C155.581 70.0003 154.14 69.3052 152.591 69.3052H148.446C147.782 69.3052 147.244 69.843 147.244 70.5064C147.244 71.1698 147.782 71.7076 148.446 71.7076H152.591C153.403 71.7076 154.159 72.0723 154.665 72.7081C155.171 73.3437 155.356 74.1625 155.173 74.954L153.788 80.9553C153.104 83.9227 150.498 85.9951 147.453 85.9951H134.695C132.101 85.9951 129.932 84.1343 129.538 81.5705L129.205 79.4106H130.472C131.599 79.4106 132.611 78.913 133.302 78.1268H142.026C143.397 78.1268 144.511 77.0121 144.511 75.6418V71.7902C144.511 70.4199 143.397 69.3052 142.026 69.3052H125.336C124.19 69.3052 123.162 69.8203 122.47 70.6305C121.796 69.9108 121.402 68.9526 121.402 67.9388C121.402 65.7695 123.167 64.0047 125.336 64.0047H127.904C128.567 64.0047 129.105 63.4669 129.105 62.8035C129.105 62.1401 128.567 61.6023 127.904 61.6023H125.336C121.843 61.6023 119 64.4448 119 67.9388C119 69.9601 119.968 71.8461 121.569 73.0322C121.569 73.0462 121.568 73.0601 121.568 73.074V75.6418C121.568 77.72 123.258 79.4106 125.336 79.4106H126.775L127.163 81.9358C127.739 85.68 130.907 88.3975 134.695 88.3975H147.453C151.624 88.3975 155.191 85.5594 156.129 81.4955L157 77.7224C157.445 76.4248 158.636 75.559 160 75.559C161.363 75.559 162.555 76.4247 163 77.7224L163.871 81.4955C164.809 85.5594 168.376 88.3975 172.547 88.3975H179.257C179.921 88.3975 180.459 87.8597 180.459 87.1963C180.459 86.5329 179.921 85.9951 179.257 85.9951H172.547C169.502 85.9951 166.896 83.9227 166.212 80.9553L164.827 74.954C164.644 74.1625 164.829 73.3437 165.335 72.7081C165.841 72.0723 166.597 71.7076 167.409 71.7076H188.89C189.664 71.7076 190.398 72.0445 190.902 72.6322C191.406 73.2198 191.628 73.9957 191.51 74.761L190.462 81.5707C190.068 84.1344 187.899 85.9953 185.305 85.9953C184.641 85.9953 184.104 86.5331 184.104 87.1965C184.104 87.8598 184.641 88.3977 185.305 88.3977C189.093 88.3977 192.261 85.6801 192.837 81.936L193.884 75.1263C193.928 74.8425 193.946 74.5579 193.942 74.2754H194.664C198.158 74.2754 201 71.4327 201 67.9389C201 64.4451 198.158 61.6023 194.664 61.6023ZM142.109 71.7902V75.6418C142.109 75.6875 142.072 75.7245 142.027 75.7245H134.239C134.239 75.6969 134.241 75.6695 134.241 75.6418V73.074C134.241 72.5921 134.149 72.1315 133.983 71.7076H142.026C142.072 71.7076 142.109 71.7447 142.109 71.7902ZM123.97 75.6418V73.074C123.97 72.3205 124.583 71.7076 125.336 71.7076H130.472C131.225 71.7076 131.838 72.3207 131.838 73.074V75.6418C131.838 76.3954 131.225 77.0083 130.472 77.0083H125.336C124.583 77.0084 123.97 76.3954 123.97 75.6418Z" fill="black"/>
</svg>
