<svg width="320" height="150" viewBox="0 0 320 150" fill="none" xmlns="http://www.w3.org/2000/svg">
<rect width="320" height="150" fill="#C6EA7C"/>
<path d="M143.314 55.1899H156.531V54.0663C156.531 46.5961 150.475 40.5403 143.005 40.5403H129.788V41.6639C129.788 49.1341 135.844 55.1899 143.314 55.1899Z" fill="#C6EA7C"/>
<path d="M151.321 55.1903H143.314C135.844 55.1903 129.788 49.1348 129.788 41.6635V40.5408H137.796V41.6635C137.796 49.1348 143.852 55.1903 151.321 55.1903Z" fill="#B2E254"/>
<path d="M176.687 55.1899H163.47V54.0663C163.47 46.5961 169.526 40.5403 176.996 40.5403H190.213V41.6639C190.213 49.1341 184.157 55.1899 176.687 55.1899Z" fill="#C6EA7C"/>
<path d="M185.004 40.5408C177.533 40.5408 171.477 46.5963 171.477 54.066V55.1903H163.469V54.066C163.469 46.5963 169.525 40.5408 176.996 40.5408H185.004Z" fill="#B2E254"/>
<path d="M163.469 38.6702V65.184C162.557 65.0559 161.626 64.979 160.683 64.9534C160.455 64.947 160.228 64.9438 160 64.9438C158.823 64.9438 157.665 65.0255 156.533 65.184L156.531 65.1824V38.6702C156.531 36.7531 158.083 35.2012 160 35.2012C161.918 35.2012 163.469 36.7531 163.469 38.6702V38.6702Z" fill="#97D729"/>
<path d="M184.929 89.8705C184.929 90.5912 184.898 91.3055 184.837 92.0118C183.752 104.776 173.047 114.799 160 114.799C148.221 114.799 138.35 106.628 135.745 95.6457C135.304 93.7927 135.072 91.858 135.072 89.8705C135.072 86.0988 135.91 82.5225 137.41 79.3178C141.384 70.8263 150.005 64.9438 160 64.9438C160.228 64.9438 160.455 64.947 160.683 64.9534C174.134 65.3137 184.929 76.3309 184.929 89.8705V89.8705Z" fill="#8AC9FE"/>
<path d="M164.007 114.477C162.704 114.69 161.365 114.799 160 114.799C148.221 114.799 138.35 106.628 135.745 95.6457C135.304 93.7927 135.072 91.858 135.072 89.8705C135.072 86.0988 135.91 82.5225 137.41 79.3178C141.384 70.8263 150.005 64.9438 160 64.9438C160.228 64.9438 160.455 64.947 160.683 64.9534C161.81 64.9838 162.92 65.0895 164.006 65.2641C155.748 66.5966 148.85 71.9843 145.418 79.3178C143.917 82.5225 143.08 86.0988 143.08 89.8705C143.08 91.858 143.312 93.7927 143.752 95.6457C146.057 105.358 154.043 112.872 164.007 114.477V114.477Z" fill="#60B7FF"/>
<path d="M143.08 89.8705C143.08 91.4096 143.219 92.9183 143.487 94.3805C142.76 95.1589 141.723 95.6457 140.573 95.6457H135.745C135.304 93.7927 135.072 91.858 135.072 89.8705C135.072 86.0988 135.91 82.5225 137.41 79.3178H145.418C143.917 82.5225 143.08 86.0988 143.08 89.8705V89.8705Z" fill="#22B27F"/>
<path d="M150.98 82.4521V83.1568C150.98 83.8262 150.708 84.4332 150.269 84.8736C149.829 85.3125 149.222 85.5847 148.552 85.5847C146.349 85.5847 144.563 87.3721 144.563 89.5742V91.6562C144.563 93.86 142.776 95.6457 140.573 95.6457H135.745C135.304 93.7927 135.072 91.858 135.072 89.8705C135.072 86.0988 135.91 82.5225 137.41 79.3178H147.848C149.577 79.3178 150.98 80.7208 150.98 82.4521V82.4521Z" fill="#C6EA7C"/>
<path d="M143.08 89.8705C143.08 91.4096 143.219 92.9183 143.487 94.3805C142.76 95.1589 141.723 95.6457 140.573 95.6457H135.745C135.304 93.7927 135.072 91.858 135.072 89.8705C135.072 86.0988 135.91 82.5225 137.41 79.3178H145.418C143.917 82.5225 143.08 86.0988 143.08 89.8705V89.8705Z" fill="#B2E254"/>
<path d="M184.929 89.8705C184.929 90.5912 184.898 91.3055 184.837 92.0118H179.022C178.3 92.0118 177.648 92.3049 177.174 92.7774C176.701 93.2482 176.41 93.9033 176.41 94.624C176.41 95.91 175.889 97.0728 175.047 97.9168C174.203 98.7576 173.037 99.2797 171.753 99.2797C169.182 99.2797 167.097 97.1945 167.097 94.624V86.1037C167.097 85.218 166.738 84.4156 166.157 83.8374C165.577 83.2561 164.775 82.8973 163.889 82.8973C162.118 82.8973 160.683 81.4607 160.683 79.6894V64.9534C174.134 65.3138 184.929 76.3309 184.929 89.8705Z" fill="#C6EA7C"/>
<path d="M190.212 39.3396H184.013C183.349 39.3396 182.811 39.8774 182.811 40.5408C182.811 41.2041 183.349 41.742 184.013 41.742H189.011C188.968 48.5025 183.456 53.9891 176.687 53.9891H164.671C164.713 47.2289 170.226 41.742 176.996 41.742H178.777C179.441 41.742 179.978 41.2041 179.978 40.5408C179.978 39.8774 179.441 39.3396 178.777 39.3396H176.996C171.845 39.3396 167.304 41.9982 164.671 46.0146V38.6702C164.671 36.095 162.576 34 160 34C157.425 34 155.33 36.095 155.33 38.6702V46.0148C152.697 41.998 148.156 39.3391 143.005 39.3391H129.788C129.125 39.3391 128.587 39.8769 128.587 40.5403V41.664C128.587 49.7845 135.194 56.3911 143.314 56.3911H155.33V56.4731C155.33 57.1365 155.868 57.6743 156.531 57.6743C157.195 57.6743 157.732 57.1365 157.732 56.4731V38.6702C157.732 37.4197 158.75 36.4023 160 36.4023C161.251 36.4023 162.268 37.4197 162.268 38.6702V63.8416C160.756 63.7088 159.244 63.7088 157.732 63.8416V61.7086C157.732 61.0453 157.195 60.5075 156.531 60.5075C155.868 60.5075 155.33 61.0453 155.33 61.7086V64.1608C146.946 65.6799 140.245 70.7826 136.387 78.691C134.016 83.5528 133.308 91.2824 134.604 96.0175C137.714 107.382 147.709 116 160 116C173.641 116 184.873 105.492 186.029 92.1452C186.03 92.1359 186.031 92.1265 186.032 92.117C186.095 91.3765 186.129 90.6277 186.129 89.871C186.129 77.0572 176.857 66.3687 164.67 64.1606V56.3914H176.687C184.807 56.3914 191.413 49.7845 191.413 41.6635V40.5408C191.413 39.8774 190.876 39.3396 190.212 39.3396V39.3396ZM143.314 53.9888C136.544 53.9888 131.031 48.502 130.989 41.7415H143.005C149.775 41.7415 155.288 47.2283 155.33 53.9888H143.314ZM136.274 89.8711C136.274 86.5521 136.96 83.3904 138.196 80.5193H147.848C148.913 80.5193 149.779 81.3865 149.779 82.4525C149.893 83.2487 149.562 84.3842 148.552 84.3842C145.69 84.3842 143.361 86.7129 143.361 89.575V91.6562C143.361 93.1938 142.11 94.4447 140.573 94.4447H136.718C136.428 92.9642 136.274 91.4354 136.274 89.8711V89.8711ZM183.727 89.8711C183.727 90.186 183.719 90.4988 183.707 90.8108H179.022C176.698 91.0283 175.427 92.2994 175.209 94.6241C175.012 96.731 173.86 97.8825 171.753 98.0787C169.848 98.0787 168.298 96.529 168.298 94.6241V92.4891C168.298 91.8257 167.76 91.2879 167.097 91.2879C166.433 91.2879 165.896 91.8257 165.896 92.4891V94.6239C165.896 97.8535 168.523 100.481 171.753 100.481C174.949 100.481 177.611 97.821 177.611 94.6239C177.691 93.7641 178.161 93.2938 179.022 93.213H183.49C181.861 104.719 171.949 113.598 160 113.598C149.344 113.598 140.307 106.536 137.321 96.8471H140.573C143.435 96.8471 145.763 94.5184 145.763 91.6562V89.5747C145.763 88.0372 147.014 86.7862 148.552 86.7862C150.991 86.557 152.248 84.8125 152.181 82.4522C152.181 80.0616 150.237 78.1166 147.848 78.1166H139.396C143.408 71.1109 150.889 66.3362 159.481 66.1509V79.6892C159.481 81.983 161.614 84.0983 163.889 84.0983C165.111 84.2141 165.78 84.8826 165.896 86.1035V87.2534C165.896 87.9168 166.433 88.4546 167.097 88.4546C167.76 88.4546 168.298 87.9168 168.298 87.2534V86.1035C168.045 83.4181 166.575 81.949 163.889 81.696C162.787 81.6668 162.119 80.9979 161.884 79.6892V66.2191C174.09 67.1823 183.727 77.422 183.727 89.8711V89.8711Z" fill="black"/>
</svg>
