<svg width="320" height="150" viewBox="0 0 320 150" fill="none" xmlns="http://www.w3.org/2000/svg">
<rect width="320" height="150" fill="#F5C84C"/>
<path d="M176.656 115.199H143.472C140.077 115.199 137.29 112.445 137.29 109.017V40.9828C137.29 37.5875 140.045 34.8008 143.472 34.8008H176.656C180.052 34.8008 182.838 37.5555 182.838 40.9828V109.017C182.838 112.445 180.084 115.199 176.656 115.199Z" fill="#3A70BF"/>
<path d="M176.656 38.2922H167.015C165.83 38.2922 164.709 38.9648 164.132 40.0219C162.691 42.5203 159.52 43.3851 157.021 41.9758C156.22 41.5273 155.548 40.8547 155.067 40.0219C154.491 38.9648 153.402 38.3242 152.184 38.2922H143.472C141.998 38.2922 140.781 39.5094 140.781 40.9828V109.017C140.781 110.491 141.998 111.708 143.472 111.708H176.656C178.13 111.708 179.347 110.491 179.347 109.017V40.9828C179.347 39.4773 178.13 38.2922 176.656 38.2922V38.2922Z" fill="#9BE5F9"/>
<path d="M150.423 72.0851H169.545C171.083 72.0851 172.364 73.3344 172.364 74.9039V90.6953C172.364 92.2328 171.115 93.5141 169.545 93.5141H150.423C148.885 93.5141 147.604 92.2648 147.604 90.6953V74.9039C147.636 73.3664 148.885 72.0851 150.423 72.0851V72.0851Z" fill="#FCDD86"/>
<path d="M154.267 72.0851V68.3055C154.267 65.1344 156.861 62.5719 160.032 62.5719C163.203 62.5719 165.766 65.1344 165.766 68.3055V72.0851H169.065V68.3055C169.065 63.3086 164.997 59.2726 160 59.2726C155.003 59.2726 150.967 63.3086 150.967 68.3055V72.0851H154.267Z" fill="#C7D7E5"/>
<path d="M147.636 75.2562H172.396V90.3109H147.636V75.2562Z" fill="#F5C84C"/>
<path d="M162.403 86.1149L161.217 83.3602C161.089 83.0719 161.185 82.7516 161.442 82.5594C162.499 81.7586 162.691 80.2852 161.89 79.2281C161.089 78.1711 159.616 77.9789 158.559 78.7797C157.502 79.5805 157.31 81.0539 158.11 82.111C158.238 82.2711 158.399 82.4313 158.559 82.5594C158.815 82.7516 158.879 83.0719 158.751 83.3602L157.566 86.1149C157.406 86.4992 157.566 86.9157 157.95 87.0758C158.046 87.1078 158.142 87.1399 158.238 87.1399H161.666C162.082 87.1399 162.403 86.8196 162.403 86.4032C162.467 86.3071 162.435 86.211 162.403 86.1149V86.1149Z" fill="#3A70BF"/>
<path d="M167.463 43.3531H172.3C172.685 43.3531 173.005 43.6735 173.005 44.0578V46.1078C173.005 46.4922 172.685 46.8125 172.3 46.8125H167.463C167.079 46.8125 166.759 46.4922 166.759 46.1078V44.0578C166.727 43.6735 167.047 43.3531 167.463 43.3531Z" fill="#C7D7E5"/>
<path d="M167.463 43.3531C167.079 43.3531 166.759 43.6734 166.759 44.0578V46.1078C166.759 46.4922 167.079 46.8125 167.463 46.8125H169.385L170.891 43.3211H167.463V43.3531Z" fill="#F5C84C"/>
<path d="M183.703 43.3531H182.838V48.5742H183.703C184.824 48.5742 185.753 47.6453 185.753 46.5242V45.4031C185.753 44.2821 184.824 43.3531 183.703 43.3531V43.3531Z" fill="#DAE6F1"/>
<path d="M183.703 51.7133H182.838V64.2695H183.703C184.824 64.2695 185.753 63.3406 185.753 62.2195V53.7633C185.753 52.6422 184.824 51.7133 183.703 51.7133Z" fill="#DAE6F1"/>
<path d="M132.742 43.8977H132.069V43.225C132.069 42.7445 131.652 42.3281 131.172 42.3281C130.692 42.3281 130.275 42.7445 130.275 43.225V43.8977H129.602C129.122 43.8977 128.706 44.3141 128.706 44.7945C128.706 45.275 129.122 45.6914 129.602 45.6914H130.275V46.3641C130.275 46.8445 130.692 47.2609 131.172 47.2609C131.652 47.2609 132.069 46.8445 132.069 46.3641V45.6914H132.742C133.222 45.6914 133.638 45.275 133.638 44.7945C133.638 44.282 133.254 43.8977 132.742 43.8977V43.8977Z" fill="#87D147"/>
<path d="M191.903 88.4211C190.622 88.1968 189.629 87.2039 189.373 85.9547C189.373 85.9226 189.341 85.8906 189.309 85.9226C189.277 85.9226 189.277 85.9547 189.277 85.9547C189.02 87.2359 188.027 88.1968 186.746 88.4211C186.714 88.4211 186.682 88.4531 186.714 88.4851C186.714 88.5172 186.746 88.5172 186.746 88.5172C188.027 88.7414 189.02 89.7343 189.277 90.9836C189.277 91.0156 189.309 91.0476 189.341 91.0156C189.373 91.0156 189.373 90.9836 189.373 90.9836C189.629 89.7023 190.622 88.7414 191.903 88.5172C191.935 88.5172 191.967 88.4851 191.935 88.4531C191.935 88.4531 191.935 88.4211 191.903 88.4211Z" fill="#F5C84C"/>
<path d="M129.026 53.8594C129.557 53.8594 129.987 53.4291 129.987 52.8984C129.987 52.3677 129.557 51.9375 129.026 51.9375C128.495 51.9375 128.065 52.3677 128.065 52.8984C128.065 53.4291 128.495 53.8594 129.026 53.8594Z" fill="#70D6F9"/>
<path d="M187.643 73.7188C188.174 73.7188 188.604 73.2885 188.604 72.7578C188.604 72.2271 188.174 71.7969 187.643 71.7969C187.112 71.7969 186.682 72.2271 186.682 72.7578C186.682 73.2885 187.112 73.7188 187.643 73.7188Z" fill="#5290DB"/>
<path d="M186.682 98.3828C187.213 98.3828 187.643 97.9526 187.643 97.4219C187.643 96.8912 187.213 96.4609 186.682 96.4609C186.151 96.4609 185.721 96.8912 185.721 97.4219C185.721 97.9526 186.151 98.3828 186.682 98.3828Z" fill="#EF4460"/>
<path d="M143.472 116H176.656C180.5 116 183.639 112.861 183.639 109.017V65.0703H183.703C185.273 65.0703 186.554 63.7891 186.554 62.2195V53.7633C186.554 52.1938 185.273 50.9125 183.703 50.9125H183.639V49.375H183.703C185.273 49.375 186.554 48.0937 186.554 46.5242V45.4031C186.554 43.8336 185.273 42.5523 183.703 42.5523H183.639V40.9828C183.639 37.1391 180.5 34 176.656 34H143.472C139.628 34 136.489 37.1391 136.489 40.9828V109.017C136.521 112.861 139.628 116 143.472 116ZM183.639 44.1539H183.703C184.408 44.1539 184.953 44.7305 184.953 45.4031V46.5242C184.953 47.2289 184.376 47.7734 183.703 47.7734H183.639V44.1539ZM183.639 52.5141H183.703C184.408 52.5141 184.953 53.0906 184.953 53.7633V57.1906H183.639V52.5141ZM183.639 58.7922H184.953V62.2195C184.953 62.9242 184.376 63.4688 183.703 63.4688H183.639V58.7922ZM138.091 40.9828C138.123 38.0039 140.525 35.6016 143.472 35.6016H176.656C179.635 35.6016 182.038 38.0039 182.038 40.9828V109.017C182.038 111.996 179.635 114.398 176.656 114.398H143.472C140.493 114.398 138.091 111.996 138.091 109.017V40.9828Z" fill="black"/>
<path d="M158.366 39.2531H160.801C161.249 39.2531 161.602 38.9008 161.602 38.4523C161.602 38.0039 161.249 37.6516 160.801 37.6516H158.366C157.918 37.6516 157.566 38.0039 157.566 38.4523C157.566 38.9008 157.918 39.2531 158.366 39.2531Z" fill="black"/>
<path d="M146.163 45.8836H150.359C150.807 45.8836 151.159 45.5313 151.159 45.0828C151.159 44.6344 150.807 44.282 150.359 44.282H146.163C145.714 44.282 145.362 44.6344 145.362 45.0828C145.362 45.5313 145.714 45.8836 146.163 45.8836Z" fill="black"/>
<path d="M143.472 112.509H176.656C178.578 112.509 180.148 110.939 180.148 109.017V40.9828C180.148 39.0609 178.578 37.4914 176.656 37.4914H167.015C165.541 37.5234 164.164 38.3242 163.427 39.6055C162.21 41.7195 159.52 42.4562 157.405 41.2711C156.733 40.8867 156.156 40.3101 155.74 39.6055C155.003 38.3242 153.658 37.4914 152.152 37.4914H143.472C141.55 37.4914 139.98 39.0609 139.98 40.9828V109.017C139.98 110.939 141.55 112.509 143.472 112.509ZM141.582 40.9828C141.582 39.9258 142.415 39.093 143.472 39.093H152.152C153.081 39.093 153.914 39.6055 154.33 40.4062C155.964 43.289 159.648 44.314 162.563 42.6484C163.491 42.1039 164.26 41.3351 164.805 40.4062C165.253 39.6055 166.086 39.093 166.983 39.093H176.656C177.713 39.093 178.546 39.9258 178.546 40.9828V109.017C178.546 110.074 177.713 110.907 176.656 110.907H143.472C142.415 110.907 141.582 110.074 141.582 109.017V40.9828Z" fill="black"/>
<path d="M150.166 71.3164C148.277 71.4766 146.835 73.0461 146.835 74.9039V90.6953C146.835 92.6812 148.469 94.3148 150.455 94.3148H169.577C171.563 94.3148 173.197 92.6812 173.197 90.6953V74.9039C173.197 73.0141 171.756 71.4445 169.866 71.3164V68.3375C169.866 62.8922 165.445 58.5039 160 58.5039C154.555 58.5039 150.166 62.9242 150.166 68.3375V71.3164ZM169.577 92.7133H150.423C149.494 92.7133 148.661 92.0406 148.469 91.1437H171.531C171.339 92.0406 170.506 92.7133 169.577 92.7133ZM171.563 89.5102H148.437V76.057H171.595L171.563 89.5102ZM151.768 68.3375C151.768 63.7891 155.452 60.1055 160.032 60.1055C164.581 60.1055 168.264 63.7891 168.264 68.3375V71.3164H166.566V68.3375C166.566 64.718 163.62 61.8031 160.032 61.8031C156.445 61.8031 153.498 64.75 153.498 68.3375V71.3164H151.8V68.3375H151.768ZM164.933 68.3375V71.3164H155.035V68.3375C155.035 65.6148 157.245 63.4047 159.968 63.4047C162.691 63.4047 164.933 65.5828 164.933 68.3375ZM169.577 72.8859C170.506 72.8859 171.339 73.5266 171.531 74.4555H148.469C148.661 73.5266 149.494 72.8859 150.423 72.8859H169.577Z" fill="black"/>
<path d="M158.27 87.9406H161.698C162.563 87.9406 163.235 87.2359 163.235 86.4031C163.235 86.1789 163.203 85.9867 163.107 85.7945L161.954 83.1359C162.819 82.4312 163.267 81.3422 163.107 80.2531C162.883 78.5234 161.281 77.3062 159.552 77.5305C157.982 77.7547 156.797 79.1 156.797 80.6695C156.797 81.6305 157.213 82.5273 157.982 83.1359L156.829 85.7945C156.509 86.5633 156.861 87.4922 157.63 87.8125C157.854 87.9086 158.078 87.9406 158.27 87.9406V87.9406ZM159.039 81.9187C158.335 81.4062 158.206 80.4133 158.719 79.7086C159.039 79.2601 159.616 79.0359 160.16 79.1C160.865 79.1961 161.442 79.7406 161.538 80.4453C161.602 81.0219 161.377 81.5664 160.929 81.9187C160.385 82.3352 160.192 83.0398 160.481 83.6805L161.634 86.3391H158.367L159.52 83.6805C159.776 83.0398 159.584 82.3352 159.039 81.9187V81.9187Z" fill="black"/>
<path d="M167.464 47.6453H172.3C173.133 47.6453 173.806 46.9726 173.806 46.1398V45.9156H174.062C174.51 45.9156 174.863 45.5633 174.863 45.1148C174.863 44.6664 174.51 44.314 174.062 44.314H173.806V44.0898C173.806 43.257 173.133 42.5844 172.3 42.5844H167.464C166.631 42.5844 165.958 43.257 165.958 44.0898V46.1398C165.926 46.9406 166.631 47.6453 167.464 47.6453ZM171.403 44.1539H172.204V46.0437H170.571L171.403 44.1539ZM167.528 44.1539H169.642L168.841 46.0437H167.528V44.1539Z" fill="black"/>
</svg>
